<svg width="48" height="48" viewBox="0 0 48 48" xmlns="http://www.w3.org/2000/svg">
    <path d="M9.61 27.975c.25.217.769.576 1.554 1.078v3.007l10.027 5.834L24 39.342c2.224-.416 2.49-.466 3.637-.472l.337-.001h.188L24 41.333 9.61 32.937v-4.962zM26.031 16l5.871 16.91H28.07l-1.277-4.031h-5.941L19.55 32.91H16L21.871 16h4.16zm-2.086 3.516h-.21l-2.122 6.632h4.43l-2.098-6.632zM24 8l14.39 8.296v12.656c1.387.986 2.59 2.248 3.61 3.785a32.41 32.41 0 0 0-1.53-.627c.953 2.105 1.079 5.213-2.33 6.015-8.158 1.92-18.828-3.383-22.864-6.115 2.05.834 6.23 2.177 8.09 2.773l-1.262-.533c-1.876-.636-6.202-3.379-9.837-5.824C8.97 26.208 6.385 23.42 6 22.937c.552.15 1.02.243 1.404.276-1.254-2.28.075-4.637 2.206-5.589v-1.328L24 8zm0 1.78-12.836 7.418v6.04c-.551-.526-1.378-1.88-1.554-2.757-.551.401-.644 1.282-.3 2.156 1.489 3.795 8.366 8.774 11.05 10.56 1.272.739 2.23 1.214 2.872 1.426.643.212 1.893.571 3.751 1.078 1.84.371 3.562.595 5.165.67 6.944.326 7.42-1.68 6.242-3.358l-4.011 2.33c-1.103.1-2.106.084-3.008-.05l5.465-3.133V17.198L24 9.779z" fill="#FF8200" fill-rule="nonzero"/>
</svg>
