<svg width="16" height="16" viewBox="0 0 16 16" xmlns="http://www.w3.org/2000/svg">
    <path d="M6.486 9.86V5.663l3.962 2.106-3.962 2.093zm8.7-4.926s-.142-1.03-.582-1.483c-.558-.595-1.183-.598-1.47-.633-2.052-.151-5.13-.151-5.13-.151h-.007s-3.079 0-5.131.15c-.287.036-.912.039-1.47.634-.44.453-.583 1.483-.583 1.483S.667 6.144.667 7.353v1.134c0 1.21.146 2.418.146 2.418s.143 1.03.583 1.484c.558.595 1.291.576 1.617.639 1.174.114 4.987.15 4.987.15s3.082-.005 5.134-.156c.287-.035.912-.038 1.47-.633.44-.454.583-1.484.583-1.484s.146-1.209.146-2.418V7.353c0-1.21-.146-2.419-.146-2.419z" fill="#7B7A8E" fill-rule="evenodd"/>
</svg>
