<?xml version="1.0" encoding="UTF-8"?>
<svg width="24px" height="24px" viewBox="0 0 24 24" version="1.1" xmlns="http://www.w3.org/2000/svg" xmlns:xlink="http://www.w3.org/1999/xlink">
    <title>0F558C7C-6417-42A3-B272-832A43F1762D</title>
    <g id="TFT" stroke="none" stroke-width="1" fill="none" fill-rule="evenodd">
        <g id="desktop_app_01_game_tft" transform="translate(-320.000000, -125.000000)" fill="#1C1C1F" fill-rule="nonzero">
            <g id="01-Icon-/-08-tft-/-icon_academy" transform="translate(320.000000, 125.000000)">
                <path d="M11.7769806,3.00083215 C12.434226,2.98024669 13.0418897,3.34393669 13.4589169,3.83113124 C13.4747897,3.85062851 13.4910715,3.87026487 13.5074351,3.89007305 C13.676226,4.09405396 13.8599897,4.31613305 13.8599897,4.59130396 C13.8344624,4.80525033 13.6369533,4.8781176 13.451226,4.94666487 C13.3874078,4.97021215 13.3248987,4.99325215 13.2713078,5.02132396 C12.8946987,5.15627487 12.7497987,5.61145396 12.8634442,5.97286124 C12.9236624,6.40364215 13.4093351,6.54011487 13.7722806,6.61026578 C14.5903806,6.7330176 15.2834624,7.28427578 15.7386169,7.95370396 C15.8286169,8.18776124 15.7546533,8.51488669 15.5251533,8.64982942 C15.227826,8.86561669 14.8251987,9.00817669 14.4729715,8.8373976 C14.2352897,8.72358851 14.0396624,8.55124669 13.8437078,8.37865942 C13.668126,8.22399033 13.4922987,8.06912487 13.2858715,7.95598669 C13.4490169,8.17404033 13.5984169,8.42793033 13.5710078,8.71233033 C13.5481806,8.98890033 13.4543351,9.24801851 13.3604078,9.50718578 C13.303626,9.66382669 13.2468442,9.82048396 13.2057715,9.9810276 C12.8010169,11.4199067 12.805026,12.9135794 12.8089533,14.3999703 C12.8101806,14.8424431 12.811326,15.2843431 12.8017533,15.7238703 C12.7822806,16.8443703 12.5961442,17.9499794 12.4103351,19.0533794 C12.3621442,19.3396612 12.3139533,19.6257794 12.2687897,19.9119794 C12.2223169,20.1809158 12.0776624,20.4077158 11.932926,20.6345158 C11.8565897,20.7542976 11.7801715,20.8740794 11.7182351,21 C11.664726,20.886434 11.6069624,20.7744249 11.5491987,20.662334 C11.4102715,20.3929885 11.2711806,20.123234 11.1899351,19.8303249 C10.8459715,18.6455158 10.7095806,17.4103067 10.6820897,16.1797612 C10.6627806,15.6062976 10.6793897,15.032834 10.6959987,14.459534 C10.7153897,13.7879703 10.7347806,13.1164885 10.6965715,12.4452521 C10.643226,11.3267976 10.4609842,10.2006521 10.0271351,9.16296033 C9.87322693,8.86694215 10.0076624,8.57766578 10.1397006,8.29356033 C10.1960733,8.17225669 10.2520042,8.05189396 10.2848706,7.9323576 C10.2554651,7.94895851 10.2256587,7.96539578 10.1957297,7.98189851 C9.97416602,8.10404487 9.74559874,8.23006124 9.61995056,8.45843215 C9.46595238,8.71766487 9.1937842,8.92278305 8.88194238,8.91361124 C8.48470693,8.89761578 8.10958693,8.72299124 7.77712693,8.51559851 C7.57890602,8.3837076 7.59035238,8.10770215 7.7329042,7.93845305 C8.26508238,7.30333124 8.94138329,6.69108578 9.80068693,6.59273215 C10.1086915,6.5713776 10.4137015,6.41355033 10.5745806,6.14440942 C10.6896987,5.89127215 10.7361715,5.57333487 10.5929078,5.32096669 C10.5054867,5.17887142 10.3726402,5.09017135 10.2307337,5.01216707 L10.1231733,4.95500215 C9.94368874,4.86122215 9.76424511,4.76745851 9.65507511,4.59130396 C9.60636056,4.39167578 9.74498511,4.22267215 9.8663542,4.07471215 C9.88173602,4.0559676 9.89683965,4.03755033 9.91124783,4.01946033 C10.3717533,3.4643976 11.0312897,3.00387578 11.7769806,3.00083215 Z M4.03810147,7.68154396 L4.1300242,7.70478033 C4.43291511,7.78114942 4.73647693,7.85768215 5.02243147,7.98580124 C5.36009511,8.13210033 5.69859329,8.27653396 6.03708329,8.4209676 C6.99866783,8.8312776 7.96018693,9.24155487 8.90251147,9.69438578 C9.25096693,9.87661942 9.59252511,10.1984103 9.59942238,10.619234 C9.75225056,12.2766249 9.87035511,13.9370431 9.98845147,15.5972158 C10.0258915,16.123634 10.0633397,16.6500521 10.1018842,17.1763067 C10.1346524,17.3235794 10.0399724,17.4341976 9.9501442,17.5390885 C9.9292642,17.5634703 9.90862965,17.5875249 9.8899342,17.6117431 L9.83901056,17.5227249 C9.66580965,17.2206521 9.4896142,16.9134249 9.42786602,16.5663521 C9.18462874,15.3471794 8.58917238,14.1989431 7.72077056,13.3068794 C7.20455511,12.7663067 6.5976442,12.3203158 5.95871783,11.9345431 C5.89395056,11.8942067 5.8263442,11.8569794 5.7585742,11.8195885 C5.56864147,11.7150249 5.37748147,11.6096431 5.24429783,11.4343067 C5.06261238,11.1973612 4.93329874,10.9287521 4.80410783,10.6603067 C4.74626238,10.5401976 4.68844147,10.4200885 4.62594874,10.3028594 L4.82190329,10.0626821 L4.82190329,10.0626821 C5.56512329,10.3433021 6.31064238,10.6170249 7.0564642,10.8908703 L7.39668874,11.0158067 L7.46988329,10.8594521 C6.60603056,10.3806521 5.7391342,9.90789851 4.87069147,9.43899851 C4.56648329,9.27661396 4.27217511,9.05855215 4.11587783,8.74286487 C3.95881147,8.4119676 3.99235693,8.03379578 4.03810147,7.68154396 Z M19.1521533,7.78051124 C19.2626897,7.72259215 19.3836987,7.74082124 19.5013533,7.7585676 C19.5184533,7.76113669 19.5354715,7.76370578 19.5524078,7.76602942 C19.5760533,8.34928669 19.408326,9.00802124 18.8654624,9.31453669 C18.7982897,9.35150215 18.7310351,9.38842669 18.6637806,9.42535942 C17.7917624,9.90405305 16.9151624,10.385234 16.1450078,11.0208794 C16.6484351,10.8350703 17.1491624,10.6418976 17.6498897,10.4487249 C18.0365624,10.2995785 18.4233169,10.1504076 18.8112987,10.0045503 C18.8010715,10.0497794 18.7910078,10.0952785 18.7808624,10.1409249 C18.6778533,10.6046703 18.571326,11.0841249 18.2714624,11.4623703 C18.0789442,11.7086431 17.8046078,11.8546067 17.5333806,11.998934 C17.4620351,12.0368976 17.3909351,12.0747794 17.3215533,12.1142976 C16.1907442,12.7418431 15.2117897,13.6841431 14.6505987,14.8598703 C14.4332897,15.2959612 14.2907624,15.7633885 14.1679533,16.2330249 C14.0345897,16.7209885 13.7897897,17.1709067 13.4856715,17.572634 L13.4856715,17.572634 C13.4375624,17.4159521 13.3896987,17.2601703 13.4108897,17.0984158 L13.4108897,17.0984158 L13.4276624,16.8570521 C13.5737078,14.7507249 13.7198351,12.6439067 13.9049897,10.5397885 C13.9193897,10.2081794 14.1405442,9.90316124 14.4462987,9.77810215 C16.0032169,9.08509396 17.5769078,8.42934578 19.1521533,7.78051124 Z" id="Combined-Shape"></path>
            </g>
        </g>
    </g>
</svg>