<?xml version="1.0" encoding="UTF-8"?>
<svg width="24px" height="24px" viewBox="0 0 24 24" version="1.1" xmlns="http://www.w3.org/2000/svg" xmlns:xlink="http://www.w3.org/1999/xlink">
    <title>8BA6A90E-0603-467D-9848-CA3CC34BFF9F</title>
    <g id="TFT" stroke="none" stroke-width="1" fill="none" fill-rule="evenodd">
        <g id="desktop_app_01_game_tft" transform="translate(-376.000000, -125.000000)" fill="#1C1C1F" fill-rule="nonzero">
            <g id="01-Icon-/-08-tft-/-icon_assassin" transform="translate(376.000000, 125.000000)">
                <path d="M11.8912,3 C11.8912,3 16.0456,3.1368 16.9699,8.355 C17.8933,13.5705 19.7896,14.0295 19.7896,14.0295 C19.7896,14.0295 18.4072,18.9975 13.8019,21 C13.8019,21 16.1563,17.1597 16.1563,14.2878 C16.1563,12.7281 15.7351,10.1523 11.8948,10.1523 C8.0545,10.1523 7.6333,12.7317 7.6333,14.2878 C7.6333,17.1597 9.9877,21 9.9877,21 C5.3824,18.9966 4,14.0331 4,14.0331 C4,14.0331 5.8927,13.5741 6.817,8.3559 C7.7395,3.135 11.8903,3 11.8903,3 L11.8912,3 Z M8.635,13.08 C9.292,11.2422 11.8912,11.3124 11.8912,11.3124 C11.8912,11.3124 14.4931,11.2422 15.1474,13.0791 C14.4184,15.1563 13.5175,17.5809 11.8912,17.5809 C10.2685,17.5809 9.3622,15.1563 8.635,13.0791 L8.635,13.08 Z" id="Shape"></path>
            </g>
        </g>
    </g>
</svg>