<svg width="24" height="24" viewBox="0 0 24 24" xmlns="http://www.w3.org/2000/svg">
    <path d="M11.024 3.452c.567-.37 1.301-.606 1.958-.336.123.518.552.875.723 1.369.183.46.37.934.703 1.31.343.374.825.565 1.28.759.544.263 1.115.46 1.66.719.404.2.905.195 1.242.526.494.429.55 1.124.907 1.644.86 1.294 1.163 2.879 1.14 4.412-.003 1.013-.117 2.02-.246 3.024-.052.317-.122.725-.472.845-.942.291-1.942.203-2.913.188-.116-.487-.178-.99-.352-1.463-.084-.26-.387-.239-.601-.19-.128-.126-.262-.264-.3-.446.032-.215.217-.347.349-.5.36-.378.504-.924.44-1.436-.088-.736-.446-1.403-.568-2.132-.045-.304-.259-.54-.427-.785a1.567 1.567 0 0 0-.645 1.221c-.07 1.386.181 2.76.27 4.138.06 1.027.25 2.04.313 3.065.102.408.477.654.851.789.22.072.504.257.396.529-.139.282-.488.285-.758.27-.664-.044-1.353.137-1.998-.085-.339-.125-.345-.542-.368-.845-.017-.923-.143-1.838-.288-2.748-.07-.443-.352-.896-.796-1.037-.31-.104-.604.117-.763.365-.303.489-.41 1.077-.401 1.646.009.714.213 1.41.222 2.123-.002.177-.037.41-.234.472-.305.095-.63.062-.945.082-.427.01-.87.093-1.284-.047-.264-.17-.216-.526-.142-.785.26-.149.548-.331.609-.649.126-.69.127-1.416-.13-2.08-.433-1.151-.51-2.395-.51-3.615-.018-.793.064-1.588-.005-2.379-.027-.194-.11-.437-.307-.513-.282.012-.544.172-.753.353-.468.986-.67 2.203-.156 3.214.138.324.425.574.505.923-.016.446-.56.509-.769.832-.399.554-.325 1.278-.46 1.916-.927.101-1.846.273-2.777.34-.471.035-.639-.502-.663-.88-.179-1.884-.325-3.771-.52-5.654-.036-.356-.086-.729.038-1.075.086-.294.307-.518.507-.738C4.287 9.372 5 8.647 5.67 7.882c.386-.435.722-.939 1.239-1.235.577-.345 1.256-.444 1.908-.563.338-.066.712-.022 1.015-.215.437-.27.757-.708.927-1.19.153-.394.174-.819.264-1.227z" fill="#1C1C1F" fill-rule="nonzero"/>
</svg>
