<svg width="24" height="24" viewBox="0 0 24 24" xmlns="http://www.w3.org/2000/svg">
    <path d="M5.668 6.045c.986-.087 1.873.489 2.685.979a1.22 1.22 0 0 0 1.146.115 6.01 6.01 0 0 1 5.005-.018c.291.128.614.102.924.091.867-.655 1.882-1.183 2.988-1.212.261 1.198.405 2.445.158 3.659-.183.823-.087 1.716.356 2.442.181.29.57.22.86.259.435-.386.612-.954.528-1.527-.355.031-.708.083-1.063.119-.109-.367-.254-.822.02-1.152.27-.352.852-.605 1.208-.23.625.595.529 1.528.483 2.312-.158.888-.644 1.71-1.313 2.31-.28.244-.502.584-.881.677l-.012.224c.1-.005.201-.01.301-.013.312-.179.618-.369.913-.575.155-.01.31-.017.467-.023-.492 1.202-1.511 2.108-2.558 2.825-1.842 1.112-4.007 1.657-6.148 1.639-1.977-.114-3.973-.62-5.664-1.685-1.042-.686-1.998-1.597-2.505-2.762.146-.003.293-.003.44-.003.303.2.61.397.924.579l.36.018a7.849 7.849 0 0 1-.013-.13c-1.152-.801-2.204-2.003-2.267-3.479-.038-.646.014-1.361.473-1.86.2-.264.56-.183.846-.207.426.32.83.928.436 1.433-.311.18-.707 0-1.043-.032-.083.483-.06 1.07.362 1.393.301.255.705.098 1.025-.027.183-.491.447-.975.415-1.517.047-.95-.348-1.868-.21-2.818.116-.598.054-1.26.354-1.804zm3.3 4.857c-1.535.728-1.678 3.166-.363 4.18.62.43 1.528.164 1.854-.51.685-.923.468-2.2-.097-3.12-.329-.39-.873-.746-1.394-.55zm5.451.003c-.774.29-1.113 1.117-1.258 1.876-.194.726.135 1.467.557 2.042.427.578 1.34.651 1.854.153.947-.94 1.005-2.616.1-3.606-.305-.34-.783-.669-1.253-.465zm-2.635 5.144c-.226.226-.455.449-.687.67l.036.23c.583-.25 1.197-.09 1.8-.059a4.98 4.98 0 0 0-.722-.853l-.427.012z" fill="#1C1C1F" fill-rule="nonzero"/>
</svg>
