<svg width="16" height="16" viewBox="0 0 16 16" xmlns="http://www.w3.org/2000/svg">
    <path d="M12.219 2.34c.65.347 1.1.983 1.342 1.667.263.754.211 1.61-.133 2.33-.432.935-1.291 1.647-2.27 1.956-.363.118-.744.166-1.123.209-.12.015-.24.005-.36-.005a1.36 1.36 0 0 0-.447.011c-.388.083-.7.377-.884.718-.124.21-.188.444-.252.677-.042.153-.084.306-.143.453-.32.828-.92 1.52-1.615 2.06a17.303 17.303 0 0 1-2.313 1.507.598.598 0 0 1-.797-.193c-.131-.148-.082-.362.04-.498.265-.317.533-.63.802-.944.319-.373.638-.746.95-1.125l.14-.172c.317-.389.636-.782.828-1.25l.129-.312c.247-.6.496-1.206.912-1.712a3.17 3.17 0 0 1 2.126-1.216c.21-.036.425-.034.639-.033.299.002.597.004.883-.096.335-.101.63-.33.795-.638.246-.411.217-.945.004-1.361-.108-.12-.261-.173-.413-.225a1.94 1.94 0 0 1-.216-.084 2.99 2.99 0 0 1-.089.158c-.092.156-.184.313-.183.5-.003.326-.072.672-.299.92-.432.455-1.325.332-1.567-.266-.194-.448-.203-.962-.11-1.436.152-.738.685-1.366 1.361-1.686.7-.388 1.585-.31 2.263.086zm-.583 6.626c.041.11.07.227.099.343.063.254.126.508.317.7.226.27.586.337.917.375.188.067.17.311.015.41-.225.017-.466.036-.652.178-.27.193-.365.534-.419.845-.021.179-.133.315-.244.45-.04.047-.078.094-.113.143-.056-.447-.185-.92-.53-1.234-.285-.267-.67-.384-1.048-.443.461-.171.944-.404 1.21-.838.177-.271.224-.6.24-.916zm-7.204-6.39.055.039c.116.082.241.17.262.322l.009.047c.097.509.203 1.065.608 1.424.39.32.89.382 1.378.443.138.017.276.035.41.057l.009.037.04.156a9.383 9.383 0 0 0-.076.049c-.174.111-.351.224-.56.248-.504.087-1.045.277-1.316.742-.168.258-.215.554-.262.85-.045.287-.09.574-.245.827a15.002 15.002 0 0 1-.223-.056c-.053-.168-.09-.342-.128-.516-.08-.373-.16-.746-.393-1.056-.343-.488-.97-.664-1.54-.654-.18.018-.313-.105-.435-.218L2 5.294c.122-.146.26-.308.468-.312.452-.04.916-.19 1.235-.529.376-.373.498-.925.492-1.44-.011-.153.09-.268.185-.376l.052-.061z" fill="#1C1C1F" fill-rule="nonzero"/>
</svg>
