<?xml version="1.0" encoding="UTF-8"?>
<svg width="24px" height="24px" viewBox="0 0 24 24" version="1.1" xmlns="http://www.w3.org/2000/svg" xmlns:xlink="http://www.w3.org/1999/xlink">
    <title>2CEE54AA-D362-4002-B3C0-934C1F9F4DF4</title>
    <g id="TFT" stroke="none" stroke-width="1" fill="none" fill-rule="evenodd">
        <g id="desktop_app_01_game_tft" transform="translate(-740.000000, -125.000000)" fill="#1C1C1F" fill-rule="nonzero">
            <g id="01-Icon-/-08-tft-/-icon_mercenary" transform="translate(740.000000, 125.000000)">
                <path d="M13.9387278,10.594576 C14.0802739,10.8468225 14.0779012,11.1344965 14.0756102,11.4164431 L14.0756102,11.4164431 L14.0754466,11.5871984 C14.0737284,12.9405586 14.0737284,14.2940007 14.0754466,15.6474427 C14.0719284,15.9792168 14.043701,16.3348002 13.8416911,16.6126559 C13.7080814,16.8170385 13.495926,16.9404209 13.2883524,17.061185 C13.2422886,17.0879397 13.1963884,17.1146943 13.1517154,17.1421036 C12.2694663,17.6668876 11.3901626,18.1963353 10.5109407,18.7257829 C10.1204618,18.9609294 9.72999105,19.195994 9.33927486,19.4307314 C9.25675269,19.4843225 9.16053411,19.5033862 9.06579643,19.5222045 C9.04509635,19.5263772 9.02446171,19.5304681 9.00405617,19.5348863 C8.97048603,19.3301764 8.94052409,19.1237483 8.94405047,18.9163383 C8.94740503,18.2138444 8.94676684,17.5113506 8.94612866,16.8089385 C8.94542502,16.036408 8.94472138,15.2638775 8.94933594,14.4916742 C8.95462142,13.9366992 9.16990233,13.3358239 9.67720992,13.05175 C10.967079,12.2867468 12.2535117,11.514789 13.5363443,10.736613 C13.6530994,10.6598672 13.7904727,10.6284489 13.9245732,10.5978487 L13.9245732,10.5978487 Z M3.42137359,10.6822036 C3.45280009,10.6988946 3.4828193,10.7148492 3.50996669,10.7252402 C4.19106501,11.1316328 4.87119787,11.5403163 5.55137165,11.9491635 C6.175107,12.3239742 6.79923508,12.6991121 7.42380498,13.0721228 C7.94617536,13.3765695 8.1331716,14.0154086 8.12876158,14.5862564 C8.13040613,15.0564675 8.12702703,15.5267604 8.12365611,15.9971351 C8.11796972,16.788893 8.11228333,17.5809781 8.13052886,18.3729815 C8.12748521,18.479591 8.12918704,18.5868551 8.13088886,18.6942828 C8.1351107,18.9603567 8.1393489,19.2272487 8.07148043,19.4856316 C7.95863632,19.5645865 7.84686403,19.4983135 7.74171904,19.4359677 C7.70949891,19.416904 7.67790878,19.3981676 7.64709592,19.3840948 C7.06882712,19.0347297 6.48900377,18.6876555 5.90913133,18.3405813 C5.10965797,17.8620248 4.3100946,17.3834682 3.51438489,16.8986934 C3.14293697,16.6799107 3.00089182,16.2317088 3.00265092,15.8222889 L3.00137966,14.7508344 L3.00137966,14.7508344 L3.00161182,13.6793799 C3.00196364,12.8938402 3.00231546,12.1082187 3,11.3225972 C3.00634094,11.2621334 3.00614457,11.197824 3.00594821,11.1326146 C3.00544093,10.9616957 3.00490911,10.7848041 3.12176233,10.6564308 C3.20392449,10.5669213 3.32000862,10.6284489 3.42137359,10.6822036 Z M14.3744933,9.47808039 C15.1238692,9.67442031 15.8753724,9.86426384 16.6268755,10.0541646 C17.053641,10.1620015 17.4808973,10.2699201 17.9071718,10.3789024 C18.0968272,10.410648 18.2362459,10.5950669 18.2054003,10.7873404 C18.1806912,12.5475842 18.155082,14.3086462 18.1251364,16.0697081 C18.1462456,16.3520639 17.832226,16.5125918 17.5895523,16.4112187 L17.5895523,16.4112187 L16.8505674,16.2211542 C16.1820282,16.0494171 15.5135708,15.87768 14.8456044,15.7035702 C14.8546862,15.2324592 14.8681045,14.7612663 14.8815227,14.2900734 C14.9140047,13.1533686 14.9464048,12.0165002 14.9171138,10.8800408 C14.9162138,10.3621296 14.6885128,9.8786639 14.3744933,9.47808039 Z M20.9670211,6.76966627 C21.0103849,7.06944117 21.0015485,7.37136789 20.9927939,7.6730328 C20.9890302,7.80109515 20.9853484,7.92912478 20.9855939,8.05690078 C20.9812575,8.2944445 20.9771666,8.53202096 20.9730756,8.76960559 C20.9564665,9.73744512 20.9398573,10.7056037 20.9044299,11.6725351 C20.8955117,11.9504726 20.8779207,12.2372465 20.7543747,12.4922749 C20.5241374,12.9612587 20.3031455,13.4346607 20.0821537,13.9081445 C19.8932347,14.3128189 19.7042339,14.7175752 19.5095058,15.1197132 L19.5014876,15.1350951 C19.3496324,15.4249781 19.1933591,15.7232885 18.9272034,15.9252166 C18.8709941,15.0444402 18.8770486,14.1610456 18.8830214,13.2774873 C18.8862941,12.8015489 18.8895669,12.3256106 18.8830214,11.8499176 C18.8894032,11.7002716 18.8859668,11.5477618 18.8824487,11.3946794 C18.8729577,10.9744594 18.8633031,10.5495758 19.0560676,10.1674015 C19.5132695,9.35801989 19.9633532,8.54465374 20.4131915,7.7318685 L20.477419,7.61576801 C20.5248737,7.53004674 20.5680739,7.4416091 20.6112741,7.35315509 C20.7116654,7.14754513 20.8122204,6.94177154 20.9670211,6.76966627 Z M8.53367329,6.79438364 C8.73388322,6.86938669 8.93418315,6.94702429 9.11861847,7.0581993 C9.42671432,7.24325644 9.7350638,7.42801904 10.0434378,7.61278982 C10.9112787,8.13277109 11.7792915,8.65286692 12.6424769,9.18015459 C12.6898499,9.20985472 12.7396773,9.23850757 12.7898321,9.26734041 C13.0019057,9.38924184 13.222243,9.51592964 13.3156798,9.75274518 C13.2723978,9.91507314 13.1436972,10.0377191 13.0059967,10.1251013 L13.0059967,10.1251013 L12.1578658,10.6373671 L12.1434657,10.6461217 C11.2932894,11.1598602 10.4438495,11.6731896 9.59235592,12.1825918 C9.51397377,12.2280829 9.43709709,12.277174 9.36011404,12.3262651 C9.16073047,12.4535747 8.96066781,12.5813753 8.73212412,12.6475665 C8.45507841,12.7261122 8.16656992,12.6245755 7.93013893,12.4790203 C7.10539182,11.9703545 6.2740256,11.4728161 5.44244664,10.9750321 C4.9858829,10.7017583 4.52926189,10.4284844 4.07363088,10.1532469 C3.93885122,10.0750284 3.83802625,9.95524604 3.73900947,9.83767281 C3.72525578,9.82130911 3.71154299,9.80502722 3.69777294,9.78890897 L3.69777294,9.78890897 L3.71130572,9.76657252 C3.80143701,9.61789189 3.89546286,9.46276396 4.05509899,9.38037271 C4.48230624,9.12468163 4.90870349,8.86723146 5.33483892,8.60993674 C6.08351934,8.15789756 6.8320934,7.70592384 7.58603475,7.26292562 C7.88247145,7.06966208 8.19485459,6.90114864 8.53367329,6.79438364 Z M13.9527188,4.00019916 C14.1057195,3.99687733 14.2537292,4.03567567 14.4008389,4.07426129 L14.4008389,4.07426129 L14.5447577,4.11048235 C15.3356155,4.30272316 16.1269643,4.49379396 16.9183131,4.68488113 C18.0701543,4.96299867 19.2221592,5.24116529 20.373264,5.52304648 C20.6193741,5.55657571 20.7331837,5.86097335 20.577974,6.0541878 C19.9196621,7.21794997 19.2579957,8.37990395 18.5963293,9.54105611 C18.5133653,9.73687239 18.2786279,9.79242717 18.0898726,9.72803599 C17.4356517,9.56466894 16.781758,9.40008279 16.1277825,9.23549664 C15.1078328,8.97877465 14.087883,8.72206085 13.0669515,8.46995342 C12.8992235,8.42845507 12.7492501,8.34112197 12.6063132,8.24842976 C12.1458385,7.94758304 11.681682,7.65202998 11.2158891,7.36087876 C11.9754923,6.38682102 12.7316591,5.41099601 13.4843078,4.43164461 C13.514417,4.395399 13.5432171,4.35594611 13.5723445,4.3160514 C13.6729813,4.17823627 13.7775454,4.03509476 13.9527188,4.00019916 Z" id="Combined-Shape"></path>
            </g>
        </g>
    </g>
</svg>