<?xml version="1.0" encoding="UTF-8"?>
<svg width="24px" height="24px" viewBox="0 0 24 24" version="1.1" xmlns="http://www.w3.org/2000/svg" xmlns:xlink="http://www.w3.org/1999/xlink">
    <title>92E0259B-68CC-4077-8B49-804E3A4A53CD</title>
    <g id="TFT" stroke="none" stroke-width="1" fill="none" fill-rule="evenodd">
        <g id="desktop_app_01_game_tft" transform="translate(-768.000000, -125.000000)" fill="#1C1C1F" fill-rule="nonzero">
            <g id="01-Icon-/-08-tft-/-icon_mutant" transform="translate(768.000000, 125.000000)">
                <path d="M13.7585802,6.48046556 C13.7566984,6.71053786 13.7569439,6.94062652 13.7571893,7.17069882 L13.7570768,7.62495149 L13.7570768,7.62495149 L13.7533439,8.07917348 C12.8405001,8.33808663 11.9792835,8.73174589 11.1179852,9.12540515 C10.6172588,9.35425836 10.1164998,9.58311975 9.60564436,9.78551301 C9.48226277,9.83078292 9.36693208,9.89345553 9.25178139,9.95602996 C9.13797251,10.0178762 9.02435181,10.0796243 8.9033184,10.1243706 C7.75721964,9.7696894 6.58373639,9.43702548 5.37498956,9.40789008 C5.06441651,9.3946601 4.75649436,9.45025545 4.46004309,9.53850438 C4.56679926,9.9435118 4.85002054,10.2655394 5.12705639,10.5672679 C5.65644358,11.1345941 6.26699425,11.6181387 6.88725673,12.0813105 C9.29417131,10.546077 11.903111,9.30732754 14.645324,8.50443904 C15.7058493,8.20267779 16.79452,7.96011188 17.901927,7.9406801 C18.5089349,7.94328191 19.1591428,8.01210724 19.6691146,8.3747411 C20.0917865,8.66947419 20.3432133,9.19797774 20.2779225,9.71409405 C20.2037954,10.3334402 19.8553324,10.8796491 19.4617877,11.3472392 C18.9209705,11.9542471 18.3139626,12.5021006 17.6601547,12.9856452 C18.459435,13.6041077 19.2394881,14.2791064 19.8050143,15.1252685 C20.1569955,15.6545493 20.3908314,16.3464025 20.1305683,16.963065 C19.9037687,17.5524003 19.2747517,17.852427 18.6880346,17.9529813 C17.6654729,18.1108901 16.6322748,17.9220541 15.6334403,17.7050727 C13.8600346,17.2930371 12.1545378,16.6304747 10.5055772,15.8672762 C9.25272229,15.2831772 8.04039184,14.6126785 6.87486948,13.8688708 C6.23346522,14.3276245 5.61497002,14.8269599 5.08030557,15.4075407 C5.05672561,15.435277 5.0328102,15.4630133 5.00878843,15.4909132 C4.78016431,15.7560855 4.54118203,16.0333668 4.48210123,16.3886206 C4.82972149,16.4821386 5.19058809,16.5210022 5.54968741,16.4989932 C6.6057618,16.4459751 7.63454987,16.1733574 8.64475707,15.8760307 C8.76015322,15.8238308 8.86373484,15.8892852 8.96181011,15.9511396 C8.98976733,15.9688123 9.01727455,15.9861577 9.04448723,16.0004759 C10.5188317,16.8571925 12.1245924,17.4553641 13.7347712,17.9997812 C13.7289621,18.1468082 13.7322348,18.2955534 13.7355893,18.4444622 C13.7437711,18.8155888 13.7520348,19.1880245 13.6191623,19.5394329 C13.4153536,20.1507772 12.9265727,20.6599308 12.3169466,20.8725759 C11.7354658,21.0904573 11.0570307,21.0260665 10.5284863,20.7013307 C9.89057564,20.3351951 9.47854005,19.6178964 9.46799371,18.883825 C9.46515462,18.5764347 9.4658828,18.2690444 9.46661098,17.9617359 C9.4672328,17.6984454 9.46785462,17.4352369 9.46623462,17.1721919 C8.16573706,17.5833275 6.83074501,17.9494632 5.45968758,17.9874267 C4.78561339,17.9980631 4.05330113,17.9195178 3.51068396,17.4809731 C2.99101594,17.055683 2.86573044,16.2739936 3.15071736,15.6792583 C3.65123097,14.5381423 4.65165273,13.7350165 5.59907278,12.9743543 L5.59907278,12.9743543 C4.75473527,12.3107283 3.91389957,11.597766 3.34834063,10.6696223 C3.07130479,10.213454 2.90719337,9.65322144 3.05630754,9.12563424 C3.19040729,8.62442518 3.62891101,8.2574386 4.1088883,8.10035616 C4.80414518,7.86482661 5.55498104,7.91246924 6.27316333,7.98916546 C7.36812583,8.13569337 8.440122,8.42330829 9.48741731,8.77087127 C9.4892664,8.22790229 9.4889064,7.68493331 9.4885464,7.14194796 L9.48825185,6.48398374 C10.2532177,6.78662044 11.0878761,6.8466176 11.902211,6.82631855 C12.5322098,6.80338496 13.1709631,6.72132966 13.7585802,6.48046556 Z M18.8044617,9.5429471 C18.1012357,9.34701746 17.361928,9.43443185 16.6551839,9.55701162 C15.2364593,9.81205477 13.8653527,10.2770103 12.5313098,10.8134584 C11.0570307,11.41343 9.63210431,12.1324468 8.26361597,12.9450634 C8.38310301,13.0799814 8.54054545,13.1662176 8.69688334,13.2518811 C8.73687599,13.2737265 8.776795,13.2956537 8.81598584,13.3182355 C10.3687775,14.2111974 11.997529,14.9734142 13.6827349,15.580504 C14.7926783,15.9705305 15.9282307,16.307539 17.0963467,16.4671659 C17.6565547,16.5334385 18.2415536,16.585393 18.7841708,16.3966388 C18.7232982,16.1910301 18.6297802,15.9960577 18.4974804,15.8275944 C17.9322815,15.0684867 17.1743193,14.4860242 16.4294479,13.9136253 L16.4294479,13.9136253 L16.3860844,13.8803253 C15.7728583,14.2773064 15.1403231,14.6408239 14.5032879,14.9964051 C14.2728883,14.9167961 14.0389706,14.8492962 13.8051347,14.7818782 C13.5748987,14.7154419 13.3447446,14.6490057 13.1180269,14.5711149 C12.3563828,14.2647882 11.5922025,13.9651706 10.8281039,13.665553 C10.3839956,13.4914442 9.93986282,13.3173355 9.49621275,13.1418358 C9.73831229,13.0192724 9.97366185,12.8827999 10.2089869,12.7464093 C10.6648769,12.4820552 11.1206852,12.217783 11.6252569,12.0548833 C12.5657552,11.7274475 13.4780262,11.3286665 14.3841609,10.9193309 C14.9563143,11.1977576 15.4960679,11.5364025 16.035085,11.8746382 C16.1484848,11.9458199 16.2618028,12.0169197 16.375448,12.0875287 C16.9349197,11.6754931 17.4898914,11.2510212 17.9742541,10.7507857 L17.9742541,10.7507857 C18.3181353,10.4007682 18.6830437,10.0292325 18.8044617,9.5429471 Z M10.5346226,3.0670256 C11.6198569,2.94614519 12.7473912,2.96644097 13.7912256,3.31495059 C14.0805342,3.42523311 14.4864334,3.59463733 14.452888,3.97050118 C14.4478971,4.14807903 14.4502698,4.32603324 14.4525607,4.50398745 C14.4564062,4.79552963 14.4602516,5.08705545 14.4316971,5.37688763 C14.2305066,5.71720972 13.8183074,5.83223769 13.4548717,5.93369204 L13.4548717,5.93369204 L13.3702718,5.95743563 C12.1898013,6.21859878 10.9448582,6.21418879 9.76879769,5.93273477 C9.74263228,5.92454479 9.71605779,5.91636298 9.68921329,5.90809936 C9.35752301,5.80600683 8.98343462,5.69086432 8.8079104,5.37336127 C8.78671953,5.0855009 8.78962407,4.79664236 8.79252043,4.50780835 C8.79432861,4.32743233 8.79613679,4.14707266 8.79207861,3.96696664 C8.7744141,3.79756241 8.85998757,3.63257635 9.00383185,3.54257652 C9.45379828,3.23730528 10.0070109,3.14554636 10.5346226,3.0670256 Z" id="Combined-Shape"></path>
            </g>
        </g>
    </g>
</svg>