<?xml version="1.0" encoding="UTF-8"?>
<svg width="24px" height="24px" viewBox="0 0 24 24" version="1.1" xmlns="http://www.w3.org/2000/svg" xmlns:xlink="http://www.w3.org/1999/xlink">
    <title>BDE31EEE-CB42-48D4-AB71-F70CFE414DE0</title>
    <g id="TFT" stroke="none" stroke-width="1" fill="none" fill-rule="evenodd">
        <g id="desktop_app_01_game_tft" transform="translate(-880.000000, -125.000000)" fill="#1C1C1F" fill-rule="nonzero">
            <g id="01-Icon-/-08-tft-/-icon_scholar" transform="translate(880.000000, 125.000000)">
                <path d="M7.52884613,12.2140637 L7.632215,12.2334408 C7.84497529,12.3026591 7.9461927,12.5058139 8.04153556,12.6971869 C8.06392105,12.7421051 8.08597926,12.7863688 8.10908475,12.8280962 C8.68033189,14.0336887 9.58179768,15.0843993 10.7072819,15.8050548 C10.7370638,15.8255912 10.7680729,15.8460458 10.7994912,15.8668276 C11.0046914,16.0024823 11.2279736,16.1500825 11.2740373,16.4060102 C11.3075828,16.6455741 11.1745462,16.8596926 11.0510824,17.0582656 C11.0354551,17.0833838 11.0199915,17.1082566 11.0050187,17.1329657 C10.3105369,18.163958 9.61777318,19.2004322 9.03569329,20.3015428 C8.81706663,20.7369797 8.34747871,21.0707166 7.84364165,20.9870983 C7.34209551,20.9190254 6.85130847,20.795398 6.36081598,20.6717706 C6.20293122,20.6320069 6.04507919,20.5922432 5.88690806,20.5543613 L5.88690806,20.5543613 L6.16462389,19.8546513 C6.35787052,19.3690597 6.5510517,18.8835499 6.73889014,18.3960765 C6.71054828,18.3937856 6.66804368,18.3901856 6.62553089,18.3865856 L6.56354024,18.3813595 L6.56354024,18.3813595 L6.51217164,18.3771765 C6.31805774,18.5239585 6.1380984,18.6891497 5.95808179,18.8544226 C5.69341598,19.0973411 5.42863561,19.3404233 5.11860973,19.525169 C4.96296679,19.6159873 4.79023201,19.6924874 4.60580539,19.6870874 C4.24789945,19.3954052 4.24503581,18.9215136 4.24248307,18.4998221 L4.24248307,18.4998221 L4.24234398,18.4769948 C4.24054398,18.145058 3.91756626,17.9858396 3.64497225,17.8995213 C3.26711901,17.7851393 3.10158424,17.3785024 3.03590869,17.0231656 C2.92525272,16.2989918 3.07099238,15.5270362 3.46414564,14.9053808 C3.62523768,14.6384077 3.8877435,14.4714984 4.14502112,14.3080255 C4.19808847,14.2742345 4.2509349,14.240689 4.30261952,14.2064071 C5.17888527,13.6504518 6.03805099,13.0683147 6.88913307,12.4753775 C6.91236947,12.4610593 6.93596586,12.4460047 6.9599059,12.4308683 C7.16203799,12.3024136 7.38851103,12.1585771 7.632215,12.2334408 Z M11.3371192,8.96708267 C12.3338296,10.3003281 13.522404,11.5149125 14.9483332,12.3893865 C15.1264517,12.5108048 15.3333701,12.6619232 15.3441701,12.8994417 C15.362252,13.1677239 15.153779,13.3614696 14.9707514,13.5316517 C14.9536514,13.5475244 14.9367968,13.5631517 14.9203514,13.5786972 C14.355396,14.0626524 13.8085226,14.5683713 13.2776855,15.0910265 C13.2453673,15.1239993 13.2129672,15.1578721 13.1802399,15.1920721 C12.9401032,15.4430907 12.6845028,15.7103092 12.3258114,15.759482 C11.9289927,15.8071821 11.5808559,15.5719545 11.2668373,15.3597996 L11.2498191,15.3482633 C9.92279996,14.4333711 8.98899959,13.0586601 8.32501959,11.6102308 C8.21299398,11.3848214 8.29126954,11.1490211 8.36750783,10.9193572 C8.39412332,10.8392571 8.42049335,10.7598115 8.43842792,10.6818387 C8.48978527,10.7090842 8.54328625,10.7348569 8.59719632,10.7607933 C8.822753,10.8693662 9.05544423,10.9814573 9.16800165,11.2188939 C9.66910598,12.1014679 10.5031453,12.7744234 11.4630375,13.0991602 C11.2779645,12.8238416 11.0876552,12.5518776 10.8973458,12.2798318 C10.5111635,11.7278856 10.1247602,11.1757757 9.78251432,10.5954385 C9.4037447,9.91982398 9.7041733,8.94003355 10.4284452,8.63595586 C10.759482,8.48482929 11.1436189,8.68906411 11.3371192,8.96708267 Z M15.8132344,3.12325193 C15.9185346,3.14989196 16.0233438,3.17642564 16.1276621,3.19771476 L16.2401623,3.22383115 C17.305191,3.47089786 18.4212744,3.7297873 19.273821,4.45453375 C20.4397317,5.47384242 20.8813868,7.17867386 20.4981499,8.66040316 C20.4118316,8.97167268 20.3083315,9.33695864 19.9898947,9.48626066 C19.7592489,9.58458989 19.5051213,9.52307071 19.2686664,9.46581427 L19.1928209,9.44763424 L19.1928209,9.44763424 C18.366047,9.23347486 17.5499913,8.91409715 16.8771177,8.37610095 C16.3210806,7.96052947 15.9063436,7.38737596 15.5708068,6.78644514 C15.3080883,6.36180001 15.3962884,5.823812 15.5222067,5.36858319 C15.5771068,5.13377287 15.8046435,4.99522177 16.036762,4.99882995 C16.8500358,4.9700381 17.6426915,5.38927504 18.1375285,6.02533045 C18.5350836,6.5399348 18.806884,7.13913926 19.0578207,7.73561917 C19.3817393,6.15758155 18.2175468,4.51750929 16.6692174,4.18553975 C16.1348621,4.06768049 15.5114067,4.10457236 15.0849698,4.48422561 C14.7179329,4.79909514 14.5722145,5.31010765 14.6315328,5.78062012 C14.757533,6.81432881 15.21277,7.83007839 15.9900437,8.53715208 C16.7043175,9.20294845 17.6417915,9.54300165 18.5459654,9.86411391 C18.7118929,9.92762945 18.8824023,9.98458316 19.0534843,10.0417005 C19.6215487,10.231429 20.1952586,10.4230474 20.6232501,10.8627389 C20.5847137,10.9034026 20.5465864,10.9453754 20.5081318,10.9876754 C20.2987588,11.2179939 20.0817766,11.4567397 19.7640762,11.5212944 C18.8923023,11.7597947 18.0124283,11.9711313 17.1236362,12.1321497 C16.3066805,12.29325 15.5519068,11.850613 14.8808331,11.4466761 C13.7031406,10.6982023 12.7710666,9.62034448 12.029711,8.44988469 C11.7598743,8.01628046 11.9568928,7.47017607 12.1845112,7.06173915 C12.4906753,6.48514109 12.8142667,5.91841031 13.1379398,5.35162226 C13.4247948,4.84921702 13.7117315,4.34677088 13.9865592,3.83737018 C14.1654958,3.50360063 14.4003961,3.15003924 14.782733,3.0339718 C15.1295607,2.95019314 15.4736885,3.03730999 15.8132344,3.12325193 Z" id="Combined-Shape"></path>
            </g>
        </g>
    </g>
</svg>