<?xml version="1.0" encoding="UTF-8"?>
<svg width="24px" height="24px" viewBox="0 0 24 24" version="1.1" xmlns="http://www.w3.org/2000/svg" xmlns:xlink="http://www.w3.org/1999/xlink">
    <title>62B11A8F-7C5C-455C-AE88-AFC55357D551</title>
    <g id="TFT" stroke="none" stroke-width="1" fill="none" fill-rule="evenodd">
        <g id="desktop_app_01_game_tft" transform="translate(-824.000000, -125.000000)" fill="#1C1C1F" fill-rule="nonzero">
            <g id="01-Icon-/-08-tft-/-icon_scrap" transform="translate(824.000000, 125.000000)">
                <path d="M10.0382708,3.00687241 C11.7091271,2.99387561 13.3789525,3.00387787 15.0488598,3.00087515 C15.0508234,3.54583272 15.0477961,4.08979211 15.0508234,4.63474968 C13.7179249,5.97365364 12.37709,7.30552942 11.0441915,8.64541519 C12.4751081,10.083319 13.9240246,11.5052356 15.3408685,12.9570976 C16.6938125,11.6162628 18.0286746,10.2563234 19.3875913,8.92244306 C19.9244816,8.92844851 20.4614537,8.92443943 20.9984258,8.92544579 C20.9953986,10.6053185 21.0093894,12.2861075 20.9913895,13.9670601 C19.6745273,15.2629769 18.3765651,16.579839 17.0657575,17.8827921 C16.9767394,17.9907102 16.8197305,17.9357284 16.7017488,17.9517648 C14.8548691,17.9427648 13.0089711,17.9567557 11.163155,17.9447284 C10.1332862,18.9536273 9.12329093,19.9835534 8.09937844,20.9994886 C7.67947164,20.9985068 7.2604812,21.0034977 6.8404844,20.9944977 C5.56659309,19.7135537 4.29068089,18.4337551 3.00678323,17.1627929 C2.99478625,16.7418389 3.00278233,16.320803 3.00078597,15.9009125 C4.01671301,14.8790046 5.04162368,13.8669966 6.05354982,12.8410796 C6.04755256,10.9311999 6.05255164,9.02145932 6.05055528,7.11158782 C6.02954439,6.98053978 6.14953881,6.90754987 6.22454145,6.82355541 C7.4984573,5.55368138 8.77237314,4.28377462 10.0382708,3.00687241 Z" id="Path"></path>
            </g>
        </g>
    </g>
</svg>