<svg width="16" height="16" viewBox="0 0 16 16" xmlns="http://www.w3.org/2000/svg">
    <path d="M6.341 5.484c1.882-.35 3.951.41 5.099 1.957.59.798.92 1.806.825 2.803a3.922 3.922 0 0 1-1.233 2.513 4.697 4.697 0 0 1-2.743 1.236c-1.157.07-2.344-.36-3.159-1.19-.306-.304-.56-.674-.68-1.092-.168-.559-.124-1.166.074-1.711.145.744.607 1.41 1.24 1.823.822.548 1.896.708 2.837.396a2.704 2.704 0 0 0 1.516-1.191c.368-.62.423-1.41.159-2.08a2.901 2.901 0 0 0-1.014-1.283A3.336 3.336 0 0 0 6.4 7.187c-.2-.361-.316-.77-.32-1.184.026-.188.099-.413.261-.52zM4.31 3.557c.981-1.106 2.513-1.67 3.978-1.538.84.163 1.651.536 2.29 1.111.34.305.584.719.668 1.17.11.596.04 1.215-.136 1.792-.14-.816-.668-1.54-1.376-1.96A3.311 3.311 0 0 0 7.068 3.8c-.697.208-1.321.695-1.643 1.354a2.405 2.405 0 0 0-.087 1.914c.221.568.63 1.058 1.143 1.385a3.309 3.309 0 0 0 2.826.363c.199.403.27.865.247 1.31-.025.158-.068.376-.241.428-1.642.303-3.418-.21-4.623-1.372a4.397 4.397 0 0 1-1.323-2.544 3.916 3.916 0 0 1 .942-3.08z" fill="#1C1C1F" fill-rule="nonzero"/>
</svg>
