<?xml version="1.0" encoding="UTF-8"?>
<svg width="24px" height="24px" viewBox="0 0 24 24" version="1.1" xmlns="http://www.w3.org/2000/svg" xmlns:xlink="http://www.w3.org/1999/xlink">
    <title>363EB321-112E-4076-B234-0F2C0DDE6129</title>
    <g id="TFT" stroke="none" stroke-width="1" fill="none" fill-rule="evenodd">
        <g id="desktop_app_01_game_tft" transform="translate(-964.000000, -125.000000)" fill="#1C1C1F" fill-rule="nonzero">
            <g id="01-Icon-/-08-tft-/-icon_syndicate" transform="translate(964.000000, 125.000000)">
                <path d="M14.0208387,6.0825631 C14.9502942,7.38168981 15.8608496,8.69377655 16.7523414,10.018856 C16.9687507,10.3495163 17.20586,10.7285885 17.1219145,11.1423435 C17.0306053,11.5264802 16.7953778,11.8533442 16.567923,12.1694081 L16.5384684,12.2103172 C17.0258598,12.5677812 17.4196511,13.0420817 17.7017605,13.5752095 C18.0545608,14.2291828 18.2553428,14.9407563 18.4561249,15.6522479 C18.5588068,16.0160937 18.6614887,16.3799395 18.7844615,16.7360126 C18.8606343,16.9446491 18.8693889,17.2389494 18.6702432,17.3808223 C17.1167599,18.3753232 15.3926037,19.142124 13.5638019,19.4442788 C13.5020291,18.8812056 13.4391927,18.3182959 13.3764381,17.7554681 C13.275638,16.8517036 13.1748379,15.9480209 13.0782923,15.0439291 C13.0562832,15.0431927 13.0240468,15.0422109 12.9910741,15.0412291 C12.9527831,15.0400836 12.9134286,15.0388564 12.8878194,15.0379564 C12.8834831,15.9738755 12.8842194,16.9095491 12.8850376,17.8449773 L12.8852013,19.5359971 L12.8852013,19.5359971 C12.6394192,19.5190607 12.3931462,19.5080153 12.1468733,19.4970516 C11.6353455,19.4741425 11.1238995,19.4512334 10.61679,19.3758788 C8.99219019,19.1222422 7.38238317,18.6384508 5.97333361,17.7755954 L5.87338443,17.7134953 L5.87338443,17.7134953 C5.64471057,17.5726043 5.40647215,17.4258223 5.2774693,17.1843766 C5.21775015,17.0129674 5.24544563,16.8251945 5.30603206,16.6590216 C5.43911764,16.3201303 5.53645683,15.9690482 5.63373056,15.6181296 C5.76799432,15.1338474 5.90213536,14.6499742 6.12999104,14.1992374 C6.4133195,13.6473732 6.74672891,13.1240636 7.07994196,12.6010813 C7.19561662,12.4196084 7.31129128,12.2380536 7.42480594,12.0553535 C7.3768768,11.9691988 7.32200129,11.883126 7.26652033,11.7960714 C7.07355196,11.4933438 6.87335085,11.1792435 6.93318455,10.8108159 C6.98558096,10.5390729 7.13832748,10.3042463 7.28779308,10.0744761 L7.35724042,9.96698324 L7.35724042,9.96698324 C8.26779585,8.65919197 9.19213766,7.36090798 10.134684,6.07650854 C10.5561626,5.51392618 11.1845269,5.06732938 11.901173,5.00760205 C12.7407102,4.93318016 13.5456383,5.41352699 14.0208387,6.0825631 Z M17.3185237,5.38862151 C17.593924,5.52783528 17.7762151,5.77772462 17.9542516,6.02186213 C17.9820698,6.06001398 18.0098062,6.09813311 18.0377881,6.13555678 C18.559625,6.8357411 19.0677164,7.54717543 19.522135,8.29235979 C19.5408714,8.32405619 19.5604259,8.35569531 19.5800623,8.3874817 C19.6757079,8.54236367 19.7736443,8.7008211 19.7886989,8.8861231 C19.804408,9.09433421 19.7821534,9.30218532 19.7598989,9.50992189 C19.7478716,9.62166109 19.7359261,9.73341665 19.7298716,9.84512312 C19.8385262,9.86401496 19.8760808,9.95770505 19.911999,10.0472797 C19.9221445,10.0725533 19.9322081,10.0974915 19.9435808,10.120327 C20.2015538,10.7829159 20.4515086,11.4483438 20.7014634,12.1137717 C20.789418,12.3478537 20.8774545,12.5824267 20.9657364,12.8163451 C21.0713638,13.0526362 20.9181182,13.3244365 20.706127,13.4404548 C20.3786904,13.6310914 20.0391446,13.799637 19.6996806,13.9681826 C19.4935804,14.0704554 19.2874802,14.1727282 19.0841618,14.279992 C18.6557614,13.6533459 18.2429065,13.0136908 17.8620425,12.3567719 C17.7074059,12.1252262 17.7596878,11.8432805 17.8074697,11.5856348 L17.8187606,11.5241893 C17.9130971,11.0593798 17.903688,10.5617447 17.7192696,10.120327 C17.6192877,9.86045586 17.4598239,9.63492383 17.3002783,9.40926906 C17.2249237,9.30277441 17.1496509,9.19624704 17.0805144,9.08607875 C16.7686232,8.62688194 16.4757957,8.15490511 16.1830499,7.68293647 C15.9372679,7.28666609 15.6914858,6.89034661 15.434331,6.50166078 C15.3010491,6.31384696 15.2257763,6.05593125 15.3547218,5.84561741 C15.7606222,5.21639407 16.6754322,5.01386115 17.3185237,5.38862151 Z M7.15740749,5.23766682 C7.69922439,5.12861126 8.2652513,5.36749604 8.63133075,5.7656237 C8.886661,6.05643034 8.79060636,6.48831622 8.60017435,6.78606105 C8.07569475,7.62707096 7.5033351,8.4370063 6.93120455,9.24661436 C6.84151537,9.37353084 6.75183437,9.50044733 6.66233338,9.62747018 C6.29104211,10.1632652 6.08677463,10.8297159 6.18630655,11.4822165 C6.31094031,12.0526535 5.99590727,12.594454 5.67220969,13.0383999 C5.56004503,13.1866546 5.46495585,13.3476729 5.36991575,13.5086094 C5.21635924,13.7686278 5.06293364,14.0284008 4.8378516,14.2336828 C4.26780741,14.0703736 3.76851965,13.7493187 3.27344553,13.4309639 C3.19423727,13.3800729 3.11514356,13.329182 3.03587803,13.2790274 C3.03470803,13.2729728 3.03352166,13.2669183 3.0323353,13.2607819 C3.00378072,13.1138363 2.97368797,12.9589543 3.03933894,12.816836 C3.4331466,11.7609713 3.84512609,10.7128385 4.25796467,9.66472204 C3.90743888,9.30640714 4.10910453,8.77930117 4.36096568,8.42875902 C4.70400511,7.95764947 5.03600725,7.478489 5.36800939,6.99932035 C5.60142053,6.66245821 5.83482348,6.32558788 6.07207189,5.99152392 C6.32912851,5.62455265 6.70215432,5.30777689 7.15740749,5.23766682 Z M9.99011116,8.6322983 C9.98469479,8.77386844 9.97619387,8.9169604 9.96765205,9.0607969 C9.92702928,9.74450302 9.88538379,10.4453419 10.1692686,11.0817161 C10.3865534,11.5881712 10.808981,11.9421988 11.2233087,12.2895173 C11.3124906,12.3642174 11.4012634,12.4385902 11.4874999,12.5141903 C11.7359001,12.7261814 12.0924641,12.9832544 12.4195735,12.7711814 C12.9129376,12.4128174 13.317938,11.9437533 13.7135293,11.483362 C14.3207845,10.7030285 14.2169571,9.66092567 14.1249115,8.7376475 L14.1220479,8.70847111 L13.9327205,8.7784339 L13.9327205,8.7784339 C13.6409565,8.88726855 13.3488653,8.99620957 13.0393469,9.04606962 C12.0102368,9.24685981 10.9483175,9.02268596 9.99011116,8.6322983 Z" id="Combined-Shape"></path>
            </g>
        </g>
    </g>
</svg>