<?xml version="1.0" encoding="UTF-8"?>
<svg width="24px" height="24px" viewBox="0 0 24 24" version="1.1" xmlns="http://www.w3.org/2000/svg" xmlns:xlink="http://www.w3.org/1999/xlink">
    <title>3F9BCF58-B14A-4C88-80C8-487ABD611448</title>
    <g id="TFT" stroke="none" stroke-width="1" fill="none" fill-rule="evenodd">
        <g id="desktop_app_01_game_tft" transform="translate(-348.000000, -125.000000)" fill="#1C1C1F" fill-rule="nonzero">
            <g id="01-Icon-/-08-tft-/-icon_arcanist" transform="translate(348.000000, 125.000000)">
                <path d="M9.49324595,8.67728883 C9.73606794,8.57286343 9.96989804,8.68830983 10.1900808,8.79702254 C10.2354166,8.81940818 10.2801797,8.84150745 10.324321,8.86134034 C11.3565885,9.34723796 12.5958987,9.36853541 13.6356527,8.8932906 C13.684744,8.87289316 13.7336716,8.85009843 13.7828448,8.82718915 C13.9468098,8.75086034 14.1134748,8.67328789 14.2965035,8.67891703 C14.601606,8.67078423 14.6842431,9.0691275 14.6433337,9.30553489 C14.4438593,9.80125896 14.1219021,10.2298997 13.8023995,10.6553823 C13.7276171,10.7550377 13.6529164,10.8544476 13.579934,10.9545939 C13.2382585,11.4484525 13.2465222,12.0535847 13.2544586,12.6331076 C13.2557677,12.7235993 13.256995,12.8135182 13.2568314,12.9022917 C13.2485677,13.166812 13.2598587,13.4318233 13.2710679,13.6967527 C13.2886589,14.1100198 13.30625,14.5232868 13.2494677,14.9349993 C13.1872853,15.5435679 12.9893655,16.1260363 12.7635455,16.6913228 C12.4068971,17.613994 12.2155228,18.6299387 12.4143426,19.6124194 C12.4842978,19.9172765 12.4676885,20.2284336 12.4511611,20.5388543 C12.4450247,20.6531553 12.4389701,20.7672926 12.4371701,20.8811026 L12.4371701,20.8811026 C12.230823,20.9630033 12.0064757,21.0520222 11.7926012,20.9628396 C11.5456719,20.8567206 11.4497802,20.5891729 11.365834,20.3546801 L11.365834,20.3546801 L11.3615795,20.3428163 C11.3214064,20.2255699 11.2790242,20.1084872 11.2365603,19.9910771 C11.0479678,19.4695637 10.8574935,18.9430594 10.8535662,18.3829275 C10.8489843,18.1212709 10.9089576,17.8687779 10.9690126,17.6160394 C11.0062402,17.4593563 11.0434678,17.3026732 11.0653952,17.1436174 C11.2560331,15.9533985 11.0589315,14.7485341 10.8511116,13.5747608 C10.8015294,13.2955131 10.776411,13.0120108 10.7512926,12.7285902 C10.7106287,12.2688501 10.6699483,11.8092736 10.5247117,11.3685155 C10.4077271,11.0036852 10.2105927,10.6658551 9.9480115,10.3861165 C9.65355363,10.0777494 9.45316289,9.69079533 9.32309546,9.28756747 C9.25188033,9.07896213 9.29528524,8.80085166 9.49324595,8.67728883 Z M18.057798,8.43580867 C18.102062,8.47100714 18.1896082,8.54051225 18.2337904,8.57482708 C18.0581253,9.41027939 17.5866033,10.1002578 17.1140176,10.7917744 C16.7324144,11.3501062 16.3501567,11.9094199 16.1224549,12.547116 C16.4975943,12.5668344 16.8725701,12.58778 17.2475459,12.6088074 C17.8530054,12.6427623 18.4583013,12.6767171 19.0640063,12.7050264 C18.5213836,13.4919601 17.6923132,13.9764914 16.8817338,14.4503044 L16.5078217,14.6706425 L16.5078217,14.6706425 C16.9322979,15.0139545 17.3533377,15.3616028 17.7743775,15.7092511 L18.344164,16.1790549 L18.344164,16.1790549 C18.1868264,16.2032733 18.0295705,16.2302735 17.8721511,16.2572737 C17.3931835,16.3394199 16.9129886,16.4217296 16.425921,16.4285206 C16.0006266,16.4203387 15.5448956,16.4628845 15.1956927,16.7311685 C14.9711818,16.8896517 14.8283261,17.1170262 14.6851431,17.3449736 C14.5762422,17.5181841 14.4671777,17.6917219 14.322031,17.8354776 C14.1529114,18.0307792 13.9149822,18.1339528 13.6828621,18.2345081 C13.654471,18.2468628 13.6261617,18.2591356 13.5980978,18.2714903 C13.4104872,17.6281486 13.6107797,16.9714705 13.8001086,16.3505472 C13.8146723,16.3026832 13.8292361,16.2550646 13.8435544,16.2076915 C14.1270567,15.4209214 14.1022656,14.5844055 14.0778836,13.7586078 C14.0725653,13.58147 14.0674107,13.4047412 14.0652016,13.2292398 C14.0542379,12.8172819 14.1003837,12.4076967 14.1464478,11.9987661 C14.1587206,11.8897834 14.1709934,11.7808007 14.1822026,11.6718179 C14.1925936,11.501062 14.2888944,11.3588608 14.3821679,11.2210779 L14.4324865,11.1458045 L14.4324865,11.1458045 C14.4977779,11.0509765 14.5619239,10.9544302 14.6263153,10.8577204 C14.9284724,10.4032166 15.2342294,9.94319013 15.6807967,9.61945747 C15.9210169,9.43388413 16.1981373,9.31616316 16.4750123,9.19858947 C16.6081316,9.14201992 16.7412509,9.08549127 16.8701156,9.02145984 C16.9999621,8.95737113 17.129154,8.89213696 17.258346,8.82690279 C17.5231118,8.69321078 17.7879595,8.55948605 18.057798,8.43580867 Z M5.87117442,8.39955473 C6.08117887,8.49786827 6.29466062,8.59101085 6.50840419,8.6842598 C7.17304328,8.97422581 7.84016148,9.26527184 8.41271345,9.71652736 C9.18574616,10.2776247 9.85073707,11.1046497 9.90723298,12.0935941 C9.9285877,12.570598 9.92683678,13.0481747 9.92507768,13.5257513 C9.92334312,13.9990734 9.92160037,14.4723955 9.94235782,14.9451448 C9.95526065,15.0883278 9.99696372,15.2253744 10.0387077,15.3625028 C10.0790117,15.4948857 10.1193484,15.6274322 10.1338058,15.7656243 C10.1922735,16.2473737 10.0916936,16.7181593 9.99138367,17.1876359 C9.9499997,17.381383 9.90865663,17.5749664 9.87854729,17.7689589 C9.72355784,17.7239585 9.64770358,17.5929665 9.57241387,17.4629564 C9.54360546,17.4132105 9.51487886,17.3636283 9.48182404,17.319037 C9.19801898,16.894479 8.7391134,16.6131039 8.24744755,16.496103 C7.82656319,16.3935021 7.39617966,16.3532473 6.96573885,16.3129924 C6.65838633,16.284274 6.35100926,16.2555555 6.04705223,16.2040915 C5.97666347,16.2015551 5.92934762,16.1527911 5.88344725,16.1054998 L5.84336419,16.0658994 C6.16337409,15.8029336 6.48056942,15.5366951 6.79782202,15.2703747 C7.04905499,15.0594457 7.30031251,14.8485167 7.5530264,14.6392241 C7.41145524,14.5527416 7.26760133,14.4675681 7.12332196,14.3822311 C6.33471913,13.9156182 5.53174891,13.4404961 5,12.673608 C5.3682912,12.6567533 5.7369915,12.6394895 6.1052827,12.6222257 C6.7577226,12.5917073 7.41015432,12.5611071 8.06258603,12.5328796 C7.92278216,12.3066504 7.77955826,12.0823849 7.63639163,11.8582831 C7.36239665,11.4293069 7.08840986,11.0003306 6.83805235,10.556627 C6.73177784,10.3644345 6.59982858,10.1879758 6.46798568,10.0116398 C6.27712684,9.75637314 6.08648891,9.50139286 5.97424163,9.19949766 C5.87552718,8.96043115 5.87352262,8.70026357 5.87155897,8.4457742 L5.87155897,8.4457742 Z M11.4794804,3.05537635 C12.8014276,2.76744026 14.1993846,3.63534111 14.6344972,4.89343688 C15.076319,6.05744916 14.6051242,7.47095984 13.568643,8.15401636 C12.87171,8.63991398 11.9465843,8.78632882 11.1375594,8.51797934 C10.5535365,8.33562966 10.0496714,7.93639457 9.70604861,7.43414954 C9.14982768,6.60879368 9.06227332,5.48648447 9.50565787,4.59240896 C9.87131451,3.8063016 10.6279262,3.21652676 11.4794804,3.05537635 Z M11.6504818,4.91551979 C11.5743903,4.60712817 11.2030145,4.36418345 10.9011848,4.52615205 C10.4995606,4.69711254 10.2263265,5.22063866 10.4717585,5.62227104 C10.6058924,5.85540568 10.8700936,6.17442557 11.1679142,6.00264689 C11.5368354,5.79896704 11.7617555,5.328615 11.6504818,4.91551979 Z" id="Combined-Shape"></path>
            </g>
        </g>
    </g>
</svg>