<?xml version="1.0" encoding="UTF-8"?>
<svg width="24px" height="24px" viewBox="0 0 24 24" version="1.1" xmlns="http://www.w3.org/2000/svg" xmlns:xlink="http://www.w3.org/1999/xlink">
    <title>9E61081B-22CC-4BE3-9D7C-0D90299FBDD4</title>
    <g id="TFT" stroke="none" stroke-width="1" fill="none" fill-rule="evenodd">
        <g id="desktop_app_01_game_tft" transform="translate(-404.000000, -125.000000)" fill="#1C1C1F" fill-rule="nonzero">
            <g id="01-Icon-/-08-tft-/-icon_bodyguard" transform="translate(404.000000, 125.000000)">
                <path d="M9.41342321,3.96707466 C10.296176,5.33221936 11.770908,6.19925491 13.2935446,6.67582951 C13.8656992,6.86787317 14.4592083,6.968665 15.0519811,7.06934229 C15.1751175,7.09025502 15.2981721,7.11115956 15.421063,7.13287411 C14.2144083,10.4111736 12.7984627,13.6532194 10.7433534,16.4979561 C9.70021234,17.9179926 8.48967947,19.2468837 7.00218384,20.209802 C3.82957711,16.7182107 2.51042978,11.7528283 3.16217795,7.11813866 C5.48340094,6.65822224 7.62069664,5.49075029 9.41342321,3.96707466 Z M14.9855448,3 C15.8388267,4.32012833 17.2617268,5.16074479 18.7276634,5.6412303 C19.4654998,5.8790267 20.2298454,6.02679853 21,6.11486763 C19.7934271,9.5115662 18.337227,12.8691557 16.1891722,15.7863833 C15.2027721,17.1133107 14.0519174,18.3395199 12.6682081,19.2594019 C12.1231353,18.66442 11.6309171,18.0214926 11.1865625,17.3482107 C13.5910355,13.9720649 15.2849993,10.1506236 16.6853177,6.26655856 C15.1313448,6.0874749 13.5880901,5.6754794 12.2111717,4.92098477 C13.2005991,4.37982289 14.132181,3.73786099 14.9855448,3 Z M8.93979407,7.81879692 C8.0913476,8.53226791 7.08438658,9.07435434 5.99423282,9.29945254 C5.70260824,11.4836464 6.31226831,13.8196376 7.81245394,15.4606651 C8.33698218,15.1074559 8.79007496,14.6602377 9.20209501,14.1826649 C10.375417,12.7451193 11.1357534,11.0286555 11.7699262,9.29847891 C10.6983534,9.16632616 9.56708596,8.74850521 8.93979407,7.81879692 Z" id="Combined-Shape"></path>
            </g>
        </g>
    </g>
</svg>