<?xml version="1.0" encoding="UTF-8"?>
<svg width="24px" height="24px" viewBox="0 0 24 24" version="1.1" xmlns="http://www.w3.org/2000/svg" xmlns:xlink="http://www.w3.org/1999/xlink">
    <title>DDDD0FE0-DC10-46DC-A6CC-424220196041</title>
    <g id="TFT" stroke="none" stroke-width="1" fill="none" fill-rule="evenodd">
        <g id="desktop_app_01_game_tft" transform="translate(-656.000000, -125.000000)" fill="#9AA4AF" fill-rule="nonzero">
            <g id="01-Icon-/-08-tft-/-icon_bruiser" transform="translate(656.000000, 125.000000)">
                <path d="M17.4874156,6.00395347 C17.8001254,6.47218371 17.9059166,7.03065962 18.0092532,7.57631458 C18.0221805,7.64438748 18.035026,7.71226401 18.0482806,7.77973963 C18.3149267,9.47553194 18.3541177,11.1996007 18.2799902,12.9120594 C18.2173992,13.9662074 18.1332899,15.0269828 17.8732711,16.0536398 C17.7858072,16.3852497 17.684107,16.720296 17.4841428,17.0028146 C17.012869,16.9987239 16.5415133,16.9993785 16.0701576,17.0001148 C15.5781018,17.0008512 15.0858006,17.0015876 14.5934176,16.9969239 C14.4283899,16.7453324 14.3108987,16.4660863 14.2384076,16.1744037 C13.9592433,15.100292 13.8658886,13.9887075 13.797652,12.8845684 C12.5976218,12.887023 11.3976734,12.8862048 10.1976923,12.8845684 C10.1369013,13.9670256 10.0426956,15.0544737 9.77771858,16.1086218 C9.76453764,16.1518219 9.75176579,16.1956765 9.73891213,16.2398584 C9.66160194,16.5052773 9.58148538,16.7804325 9.39358128,16.9869421 C8.82689081,17.0066603 8.25961124,17.003633 7.69225804,17.0006058 C7.2993989,16.9985603 6.90641703,16.9965148 6.51367244,17.0019149 C6.20385896,16.5397228 6.09747052,15.986876 5.99364299,15.4472838 C5.97934114,15.3729109 5.96508837,15.2988652 5.95035288,15.2253105 C5.64703578,13.303724 5.61952844,11.3454829 5.75619786,9.40803178 C5.83702624,8.46803676 5.93286011,7.51972899 6.21535444,6.61559497 C6.27950823,6.39810535 6.38034121,6.19394394 6.51033425,6.00895258 C7.06258378,6.01180804 7.61483331,6.01139895 8.16707466,6.01098986 C8.58145203,6.01068713 8.99583759,6.01037622 9.41021496,6.01145622 C9.5535444,6.24728134 9.66102921,6.50226833 9.73276757,6.76892261 C10.0394065,7.85803982 10.1260276,8.9922144 10.2002451,10.1163253 C11.0622181,10.1145253 11.9238475,10.1148526 12.7853132,10.1151799 L13.8009248,10.1154253 L13.8009248,10.1154253 C13.8584431,9.09715466 13.951716,8.07638035 14.1817893,7.08057701 C14.2750623,6.705587 14.3825716,6.32560608 14.6009449,6.00228438 L15.0129823,6.00150711 C15.8378752,5.99996347 16.662359,5.99823437 17.4874156,6.00395347 Z M4.74925086,7.50025622 C4.97163322,7.50199077 5.19403195,7.50372532 5.41614431,7.50039531 C5.13198907,9.14532932 5.08032076,10.8211089 5.12532087,12.4869311 C5.16198369,13.495179 5.24282025,14.5043269 5.41947432,15.4984203 C5.20533925,15.4935112 4.99051691,15.4968657 4.77568638,15.5001385 C4.41116913,15.5057839 4.04661097,15.5114294 3.68536645,15.4768202 C3.46494773,15.2795561 3.3877439,14.9858281 3.31431191,14.7065002 C3.30334824,14.6647728 3.29247458,14.6233727 3.28121637,14.5827089 C3.03872305,13.4635153 2.99122585,12.3119216 3.00122569,11.1694097 C3.03039394,10.1369436 3.08288862,9.08869464 3.36953931,8.09039584 C3.38242571,8.05726758 3.39483756,8.02230658 3.40751123,7.98658468 C3.47519957,7.79586603 3.55065248,7.58328551 3.74786751,7.50959169 C4.08105651,7.49504439 4.41515368,7.49765439 4.74925086,7.50025622 Z M19.4473749,7.50016213 L20.3139952,7.50212168 C20.6082141,7.83355976 20.6936325,8.2772772 20.7752872,8.70115369 C20.7831418,8.74195652 20.7909964,8.78257934 20.7989327,8.82289944 C21.0306424,10.2562348 21.044797,11.7194747 20.929024,13.1643873 C20.9268149,13.1847601 20.9246876,13.205051 20.9224785,13.2254238 C20.8539147,13.8700708 20.7840418,14.5269088 20.5457049,15.1351467 L20.5457049,15.1351467 L20.5407958,15.1460285 C20.4704319,15.3009107 20.3759317,15.5091385 20.1748221,15.4985021 C19.870785,15.5027566 19.5664206,15.5016112 19.2620563,15.5004657 C19.0335375,15.4996476 18.8050188,15.4987475 18.5765819,15.5002203 C18.8415916,13.978562 18.904019,12.4285946 18.8781644,10.8861545 C18.8573826,9.75288808 18.764846,8.62039077 18.5807546,7.50131986 C19.1582287,7.49964258 19.7365211,7.49964258 20.3139952,7.50212168 Z" id="Combined-Shape"></path>
            </g>
        </g>
    </g>
</svg>