<?xml version="1.0" encoding="UTF-8"?>
<svg width="24px" height="24px" viewBox="0 0 24 24" version="1.1" xmlns="http://www.w3.org/2000/svg" xmlns:xlink="http://www.w3.org/1999/xlink">
    <title>AC1C4832-0AC2-454A-98DF-1D3B1BA334D3</title>
    <g id="TFT" stroke="none" stroke-width="1" fill="none" fill-rule="evenodd">
        <g id="desktop_app_01_game_tft" transform="translate(-432.000000, -125.000000)" fill="#1C1C1F" fill-rule="nonzero">
            <g id="01-Icon-/-08-tft-/-icon_challenger" transform="translate(432.000000, 125.000000)">
                <path d="M11.5169329,14.7085819 C11.5921232,14.8281173 11.6673136,14.9475709 11.7425039,15.0670245 C12.2569726,15.8844637 12.7715232,16.7019028 13.2783011,17.5240873 L13.2783011,17.5240873 L13.1380658,18.3265538 C13.06353,18.750696 12.9889942,19.1748381 12.9176493,19.599553 C12.8710951,20.023777 12.6655695,20.4093013 12.4615983,20.7760893 C12.1098647,21.0257147 11.6570046,21.0079603 11.2439078,20.9917604 C11.2306533,20.9912695 11.2174807,20.9906968 11.2043081,20.9902059 C10.9960006,20.9824332 10.8046293,20.8943975 10.618249,20.8086527 C10.6013127,20.8008801 10.5843765,20.7931074 10.5675221,20.7854165 C10.520477,20.6665356 10.4618956,20.5519093 10.4032325,20.4372011 C10.2928606,20.2212846 10.1824069,20.005368 10.1495162,19.7617154 C10.0883985,19.3984455 10.0248263,19.0359938 9.96117225,18.673542 C9.89314096,18.2859723 9.82510967,17.8984844 9.76020381,17.5100965 C10.3503783,16.5793401 10.934392,15.6440019 11.5169329,14.7085819 Z M15.9959527,9.49835867 C16.8739368,10.3034106 17.6627398,11.2853357 17.9520466,12.4642447 C18.168454,13.3266835 17.9838736,14.269058 17.4618777,14.9879888 C16.9678633,15.674438 16.2899231,16.2251519 15.5484107,16.6213943 C15.2217951,16.6372669 14.8945249,16.6346487 14.5672547,16.6319488 C14.3335838,16.630067 14.0998311,16.6281852 13.8661601,16.6330942 C13.6653799,16.2703152 13.4618178,15.9085998 13.2583376,15.5472935 C13.0381666,15.1562057 12.8179955,14.7651996 12.601179,14.3722299 L12.601179,14.3722299 L13.370264,14.372639 C13.6328165,14.3729663 13.8952872,14.3733754 14.1578397,14.3729663 C14.3957651,14.3768935 14.6075089,14.2612853 14.8127073,14.1492771 C14.8515707,14.1280864 14.8901886,14.1069775 14.9287246,14.0868503 C15.4638932,13.7804436 15.9571712,13.2748112 16.0021708,12.628698 C16.0479068,12.0337208 15.7307002,11.5001068 15.4072755,11.0285922 C15.4789476,10.7075402 15.6145193,10.4016244 15.7502546,10.0953977 C15.8377994,9.89789829 15.925426,9.70027619 15.9959527,9.49835867 Z M7.04013856,9.50468316 C7.20639181,9.88754837 7.36240151,10.2741281 7.51859939,10.6611496 C7.56426994,10.7743851 7.60998959,10.8876206 7.65594651,11.0007743 C7.29141661,11.513443 6.93621391,12.1253565 7.05646116,12.7800605 C7.17123481,13.4439281 7.74204311,13.9100426 8.31365322,14.195504 L8.32988582,14.203604 C8.50187449,14.289676 8.68210218,14.379839 8.87983883,14.3723118 C9.14005954,14.3731299 9.4002557,14.3725572 9.66046004,14.3719027 L10.4411958,14.3715754 L10.4411958,14.3715754 C10.2503973,14.7073546 10.061726,15.0442793 9.87296476,15.3811221 C9.63886021,15.7989643 9.40477203,16.2167247 9.16687115,16.6324397 C8.71003469,16.6301488 8.25319824,16.6285124 7.79715541,16.6332578 L7.75508074,16.632726 L7.75508074,16.632726 L7.71251516,16.6329306 C7.58455251,16.6337488 7.45309626,16.6346487 7.34652891,16.5540585 C6.56858313,16.0716622 5.82477162,15.4743941 5.37259877,14.662355 C4.93283764,13.89147 4.89560247,12.9319957 5.19111109,12.1036748 C5.54943922,11.0845554 6.2443811,10.2197276 7.04013856,9.50468316 Z M11.5185693,3 C12.1506098,4.25182483 12.6966601,5.5501793 13.1185932,6.88886982 C13.160402,7.07594565 13.1399476,7.26652326 13.1194932,7.45714178 C13.1080387,7.56367641 13.0966661,7.6702274 13.0960934,7.77618112 C13.0045395,9.68414177 13.1604838,11.6526147 13.8965144,13.4333736 C13.0746572,13.4310009 12.2528817,13.4313281 11.4313518,13.4315736 L10.2878493,13.4317475 L10.2878493,13.4317475 L9.14442041,13.4302645 C9.97270853,11.4083075 10.0642624,9.16677669 9.89443368,7.0129625 C10.2915515,5.62386419 10.8817015,4.29525359 11.5185693,3 Z" id="Combined-Shape"></path>
            </g>
        </g>
    </g>
</svg>