<?xml version="1.0" encoding="UTF-8"?>
<svg width="24px" height="24px" viewBox="0 0 24 24" version="1.1" xmlns="http://www.w3.org/2000/svg" xmlns:xlink="http://www.w3.org/1999/xlink">
    <title>8CA65FF6-EC94-4E5C-BF64-838ED2B71E14</title>
    <g id="TFT" stroke="none" stroke-width="1" fill="none" fill-rule="evenodd">
        <g id="desktop_app_01_game_tft" transform="translate(-460.000000, -125.000000)" fill="#1C1C1F" fill-rule="nonzero">
            <g id="01-Icon-/-08-tft-/-icon_chemtech" transform="translate(460.000000, 125.000000)">
                <path d="M13.0133408,17.6994842 L13.0832955,17.775739 C13.2341686,17.9401938 13.3851234,18.1046487 13.5323965,18.2736036 C13.3075596,18.6342589 13.0769955,18.9918051 12.8465132,19.3492695 C12.6713401,19.6209883 12.496167,19.8926252 12.3234485,20.1656531 C12.1985118,20.3964626 11.7860655,20.4005536 11.6711107,20.1573076 C11.2745372,19.5308245 10.8771454,18.9034413 10.4671537,18.2844037 C10.635454,18.0827214 10.8112816,17.8886483 10.9937366,17.6994842 C11.666938,17.7011206 12.3401394,17.7011206 13.0133408,17.6994842 L13.0133408,17.6994842 Z M11.7125108,7.53496923 C11.8656748,7.54034469 12.0187569,7.54571198 12.1693845,7.53587741 C12.2675665,7.54227561 12.3717213,7.53855287 12.4773488,7.53476468 C12.784904,7.52375193 13.1049774,7.51228918 13.3258051,7.74921877 C13.4939418,7.94688373 13.513251,8.19165152 13.5328056,8.43795749 C13.5484329,8.636007 13.5642238,8.83505469 13.6574149,9.01143052 C14.0231429,9.74296842 14.7763627,10.2661968 15.5920099,10.3437115 C16.003638,10.3920416 16.2685659,10.7860788 16.3534933,11.1626887 C16.4610026,11.6534352 16.50183,12.1808363 16.3377024,12.6648737 C16.0977291,13.4171934 15.7194829,14.119604 15.2787274,14.7719417 C15.2070545,14.8752783 15.1333362,14.9784513 15.0592906,15.0819515 C14.6458624,15.660489 14.2232706,16.2518721 14.0890067,16.9606645 C13.5719965,16.9587827 13.0549045,16.9599281 12.5377307,16.9610736 C11.660638,16.9630372 10.7829725,16.9649191 9.90566701,16.952319 C9.80286225,16.367236 9.4717761,15.8620895 9.1517027,15.3737157 L9.1466136,15.3660248 C8.4825922,14.4695411 7.87937002,13.4947572 7.59859398,12.4049367 C7.51275834,11.8142082 7.54363659,11.1443614 7.89688733,10.6403603 C8.07145497,10.4034144 8.33956554,10.3559843 8.60906701,10.3082678 C8.76141279,10.2812923 8.91420038,10.2542349 9.05078794,10.1928466 C9.67904654,9.93046336 10.2430777,9.41723319 10.4338536,8.7489736 C10.4480082,8.66357978 10.45619,8.57222959 10.4645355,8.47925121 C10.4949719,8.13952504 10.5272901,7.77814156 10.8596363,7.60674847 C11.133646,7.51466191 11.4232829,7.52482375 11.7125108,7.53496923 Z M15.8836105,3.36121045 C16.5584483,3.8027841 17.0408493,4.50014648 17.3058589,5.25415988 C17.3911137,5.49524585 17.395041,5.74980729 17.3988864,6.00405783 C17.4030592,6.27876295 17.4072319,6.55309989 17.5140867,6.80969043 C17.5664504,6.950148 17.7042325,7.02178815 17.8289237,7.08664556 L17.8298237,7.08712829 C18.9846079,7.66038858 20.049392,8.52935677 20.6143477,9.71157472 C21.1858489,10.8789426 21.0909396,12.2927638 20.5352294,13.446648 C20.2311106,14.0691221 19.7978824,14.6548597 19.1979902,15.0188695 C18.8596713,15.2080336 18.4847796,15.3879521 18.0864879,15.3479429 C18.0886151,14.9921967 18.3494521,14.747478 18.5941707,14.5178139 C18.6417072,14.4731411 18.6886709,14.429041 18.7330983,14.3848591 C19.4604635,13.7241759 19.8361734,12.7084828 19.7303004,11.733699 C19.6820276,11.2021251 19.5103727,10.6647422 19.1504537,10.261525 C18.5422979,9.54910801 17.493223,9.23337916 16.5993575,9.5291116 C16.0985473,9.68245556 15.5270461,9.77996668 15.0387542,9.53750617 C14.5213349,9.24169191 14.1547887,8.67182707 14.107334,8.07611582 C14.0514521,7.46369726 14.5480895,6.84801415 15.1703999,6.81218589 L15.1721999,6.81203862 C15.4083277,6.79208312 15.669001,6.77004944 15.8377922,6.5789054 C16.1119655,6.26479656 16.1102473,5.80821741 16.0277744,5.42246024 C15.8678196,4.73759971 15.5045461,4.07856105 14.9313267,3.6569838 C14.8718447,3.60447278 14.7949355,3.55975905 14.7169626,3.51444804 C14.5240349,3.40229962 14.3248072,3.2864612 14.3680891,3.03960704 C14.8929539,2.93712546 15.4470278,3.04960525 15.8836105,3.36121045 Z M9.49740161,3.0215661 C9.6190655,3.01739336 9.68570655,3.17486096 9.61234822,3.26651388 C9.53354078,3.36431136 9.42692328,3.43072332 9.32049397,3.49702891 C9.2727775,3.52675352 9.22510195,3.55645359 9.17998731,3.58894365 C8.57843422,3.97970811 8.19183432,4.63207039 7.99768755,5.31027909 C7.89434278,5.72769179 7.87105728,6.2317583 8.17183791,6.57585357 C8.32990279,6.75117394 8.55080416,6.77840309 8.77194281,6.80566497 C8.89235488,6.82050682 9.01283241,6.83535685 9.12327082,6.87413056 C9.52404167,7.02410361 9.84233143,7.40321713 9.88729061,7.83390895 C9.95815349,8.40129469 9.66067014,8.95707858 9.2549411,9.33529211 C8.94664954,9.62694181 8.50428225,9.72022292 8.09264593,9.67526373 C7.88036003,9.66333461 7.67720505,9.60548086 7.47416463,9.54765983 C7.26604328,9.48839879 7.0580283,9.4291623 6.84041602,9.41944228 C6.11889269,9.38864585 5.3765384,9.6694219 4.89497193,10.2159358 C4.52670752,10.6050148 4.33757621,11.1291432 4.28175973,11.6548261 C4.1451149,12.6729737 4.53920936,13.7502759 5.31654918,14.4251955 C5.33819832,14.4446683 5.36028109,14.4642229 5.38258477,14.4840229 C5.6409835,14.7134416 5.92949956,14.9696149 5.92643137,15.3416429 C5.44902946,15.3807521 4.99245032,15.1550153 4.60919678,14.8909056 C3.51524448,14.038522 2.94285309,12.6096463 3.00450977,11.239107 C3.04117257,10.1659448 3.57606006,9.15530809 4.33257711,8.41129289 C4.87414098,7.84558443 5.53233691,7.40153986 6.23387202,7.05908914 C6.5848973,6.89245788 6.5969246,6.47371154 6.60696371,6.12406899 C6.60821553,6.08036162 6.60944281,6.03772608 6.6112919,5.99680054 C6.55963998,5.22529437 6.96372446,4.51210014 7.44446456,3.94054985 C7.95266291,3.36815683 8.70090812,2.89158373 9.49740161,3.0215661 Z M10.8662636,13.2898022 C10.5762993,13.3530478 10.3430679,13.6088938 10.3105942,13.9045854 C10.2538777,14.3079498 10.5904539,14.7270234 11.0062548,14.7185962 C11.3953829,14.7336507 11.73362,14.3795409 11.7269108,13.9954855 C11.7411472,13.5622574 11.2895099,13.1864657 10.8662636,13.2898022 Z M12.9500134,11.2043342 C12.4043668,11.3659255 12.0518933,11.9883995 12.216021,12.539037 C12.3443121,13.08902 12.9451043,13.470539 13.49746,13.3314478 C14.1406341,13.2097839 14.5346713,12.4274368 14.2581253,11.8349901 C14.0706794,11.3259163 13.4657963,11.0377521 12.9500134,11.2043342 Z M10.2130913,5.44907575 C10.8179089,4.05269008 13.0983501,4.0860147 13.7365333,5.43991209 C13.2740959,5.68985898 12.9932953,6.15810542 12.8517496,6.65050464 C12.2751756,6.65133305 11.6977835,6.65216555 11.1212914,6.64967009 C10.9762274,6.15476723 10.6838087,5.68985898 10.2130913,5.44907575 Z" id="Combined-Shape"></path>
            </g>
        </g>
    </g>
</svg>