<svg width="16" height="16" viewBox="0 0 16 16" xmlns="http://www.w3.org/2000/svg">
    <path d="m7.849 2 .59.002.295.001c.114.424.23.848.348 1.271a5.356 5.356 0 0 1 1.486.612 74.148 74.148 0 0 1 1.145-.641l.66.66.379.38-.268.478c-.121.216-.243.431-.362.648.303.457.513.969.642 1.501.41.116.82.23 1.233.34.002.35.002.701.001 1.052v.419l-.322.09a78.71 78.71 0 0 0-.875.247 4.812 4.812 0 0 1-.635 1.58l.098.176c.166.3.333.601.503.9l-1.039 1.038-.336-.187c-.237-.131-.473-.263-.706-.401a5.143 5.143 0 0 1-1.618.682c-.107.384-.215.768-.325 1.15H7.72L7.278 14c-.113-.384-.222-.77-.33-1.156a5.105 5.105 0 0 1-1.618-.676c-.239.132-.477.266-.716.4l-.332.185c-.155-.158-.312-.314-.47-.47-.19-.191-.382-.382-.57-.576.12-.203.236-.409.351-.615.082-.145.163-.291.247-.436a5.1 5.1 0 0 1-.644-1.586 69.444 69.444 0 0 1-1.195-.339L2 7.781l.002-.517.525-.15c.234-.067.47-.134.703-.202.122-.54.356-1.045.643-1.515L3.4 4.555l-.157-.28c.281-.287.565-.57.85-.853l.19-.189c.145.08.29.163.434.245.238.137.476.273.721.398.447-.29.953-.474 1.466-.606.048-.178.1-.356.15-.534.07-.243.141-.485.203-.73a45.01 45.01 0 0 1 1.181-.004zm1.968 3.416c-.7-.49-1.6-.66-2.434-.5-1.022.185-1.918.922-2.323 1.875a3.24 3.24 0 0 0-.165 2.05c.2.843.778 1.575 1.521 2.01a3.233 3.233 0 0 0 2.323.325 3.282 3.282 0 0 0 2.11-1.649c.371-.69.447-1.523.255-2.278-.183-.743-.664-1.397-1.287-1.833zm-2.451.12h.823l.293.002v2.139c.337.33.664.668.991 1.007.159.165.317.329.477.492-.126.123-.246.252-.366.38-.134.144-.268.287-.41.424-.335-.335-.663-.678-.991-1.02-.271-.284-.542-.567-.818-.845z" fill="#1C1C1F" fill-rule="nonzero"/>
</svg>
