<svg width="16" height="16" viewBox="0 0 16 16" xmlns="http://www.w3.org/2000/svg">
    <path d="M8.036 2.759a.8.8 0 0 1 .949.151c.195.163.233.43.38.624.184.067.384.01.575.017.374-.018.786.156.947.511.133.31.044.658-.095.948.186.116.349.278.426.488.086.244.13.5.205.749.3.048.649.052.87.291.254.316.228.759.441 1.097.15.254.402.424.569.665.624.81.86 1.913.58 2.9-.388 1.462-1.844 2.551-3.355 2.518-.852.034-1.7-.283-2.354-.822-.863-.715-1.331-1.886-1.167-3 .079-.523.265-1.042.59-1.464.338-.394.733-.779.88-1.292.058-.172.031-.368.114-.531.235-.26.608-.289.931-.358.181-.045.14-.269.166-.408a.951.951 0 0 1 .214-.552c-.168-.053-.369-.083-.478-.238-.18-.25-.23-.561-.252-.861-.323.205-.733.4-1.113.23-.247-.09-.374-.342-.604-.456-.12.236-.135.57-.41.687-.302.105-.614-.033-.915-.077.153.15.276.325.387.508.177.1.409.023.595.112.266.1.397.387.444.65.061.433.268.824.406 1.234-.266.23-.53.46-.793.693-.563-.303-1.168-.587-1.82-.599-.835-.014-1.595.613-1.86 1.385-.314.878.083 1.963.917 2.397.676.34 1.462.26 2.183.136.115.373.218.749.331 1.121a2.915 2.915 0 0 1-1.673.37 3.557 3.557 0 0 1-2.73-1.618 3.285 3.285 0 0 1-.494-2.136c.075-.667.36-1.309.798-1.817.22-.241.47-.482.554-.811.083-.325.117-.715.415-.926.252-.201.589-.116.884-.16.038-.194.085-.4.23-.545.178-.179.438-.218.67-.28-.006-.279.024-.571.189-.805a.81.81 0 0 1 .914-.32c.215.067.434.204.667.134.294-.092.406-.432.692-.54zM9.965 8.34c-.773.18-1.435.824-1.567 1.617-.187.975.448 2.011 1.385 2.323.944.352 2.093-.092 2.571-.975.494-.836.232-2.001-.54-2.578-.511-.41-1.217-.54-1.85-.387z" fill="#1C1C1F" fill-rule="nonzero"/>
</svg>
