<svg width="16" height="16" viewBox="0 0 16 16" xmlns="http://www.w3.org/2000/svg">
    <path d="M6.89 4.285c.316 1.258.941 2.48 1.956 3.317.773.651 1.732 1.047 2.716 1.252a9.4 9.4 0 0 0-.018.121l-.01.064-.156.104c-.367.246-.735.494-1.143.668-.53.241-.99.66-1.229 1.195-.084.166-.139.348-.193.53-.09.296-.178.592-.397.823-.22.226-.562.244-.855.197-.63-.095-1.214-.346-1.796-.597-.206-.09-.412-.178-.62-.26a.482.482 0 0 0-.224.55c.026.085.058.168.09.252.094.242.19.486.12.748-.078.537-.714.942-1.213.657-.48-.256-.548-.853-.513-1.34a2.967 2.967 0 0 0-.346-.018c-.277-.004-.558-.008-.784-.186-.321-.242-.32-.702-.203-1.05.12-.351.506-.562.868-.506.124.02.246.05.368.08.243.06.487.12.74.106a57.766 57.766 0 0 1 .287-.273 4.29 4.29 0 0 1-1.082-2.587c-.017-.284.05-.6.282-.786.184-.152.409-.213.634-.273.149-.04.298-.08.436-.147.714-.284 1.274-.887 1.55-1.6.145-.407.438-.735.734-1.041zm2.753-.791c.019.01.039.018.06.028.155.071.348.16.314.359a1.891 1.891 0 0 1-.174.405c-.098.187-.196.374-.199.593-.068.624.423 1.25 1.058 1.294.326.047.622-.09.91-.224.063-.029.125-.058.188-.084.145-.074.337-.041.415.112.214.397.402.825.451 1.277.033.287-.055.63-.327.774-.347.193-.766.145-1.14.084-1.16-.23-2.194-.97-2.842-1.95-.424-.632-.689-1.384-.69-2.148-.006-.308.109-.662.42-.782.525-.165 1.073.059 1.556.262zm2.525-1.15c.196.279.187.623.179.952a9.076 9.076 0 0 0-.003.166l.199-.001c.31-.004.633-.009.893.176.444.302.4 1.002.048 1.357-.326.298-.831.229-1.197.045-.277-.15-.621-.035-.823.188l-.018.018c-.168.176-.366.383-.634.342-.35-.054-.52-.437-.536-.755.02-.183.143-.308.268-.434.113-.114.226-.228.262-.388.048-.162.022-.319-.018-.475l-.032-.117c-.044-.155-.088-.312-.074-.474.006-.333.086-.743.427-.89.364-.12.83-.046 1.059.29z" fill="#1C1C1F" fill-rule="nonzero"/>
</svg>
