<svg width="16" height="16" viewBox="0 0 16 16" xmlns="http://www.w3.org/2000/svg">
    <path d="M7.387 2.1c.237-.128.516-.104.774-.085.698.144 1.195.932 1 1.622-.085.289-.282.527-.507.72-.18.151-.289.362-.405.561.751.183 1.498.459 2.114.937.83.654 1.473 1.637 1.48 2.722-.021 1.403-.027 2.805 0 4.208.005.237-.077.518-.32.609-.419.15-.846.28-1.274.402-.606.173-1.24.198-1.867.202-1.364.022-2.738-.18-4.022-.646-.24-.07-.369-.324-.358-.563.02-1.055.054-2.112.027-3.168-.012-.5-.076-1.009.035-1.503C4.356 6.662 5.572 5.474 7 5.113c.205-.045.383-.163.573-.245-.107-.184-.198-.387-.37-.52a1.415 1.415 0 0 1-.493-.728c-.156-.58.137-1.253.678-1.52zM6.14 7.953a.883.883 0 0 0-.657.671c-.133.49.202 1.056.708 1.148.522.125 1.075-.315 1.089-.848.053-.592-.556-1.14-1.14-.97zm3.13.025a.923.923 0 0 0-.563.661c-.122.465.164.987.63 1.119.644.208 1.32-.5 1.141-1.136-.132-.498-.715-.833-1.208-.644zm-2.826 3.037c0 .187 0 .374-.004.561 1.003.017 2.006.003 3.008.007v-.57c-1.001.002-2.003 0-3.004.002z" fill="#1C1C1F" fill-rule="nonzero"/>
</svg>
