<?xml version="1.0" encoding="UTF-8"?>
<svg width="24px" height="24px" viewBox="0 0 24 24" version="1.1" xmlns="http://www.w3.org/2000/svg" xmlns:xlink="http://www.w3.org/1999/xlink">
    <title>E57F8A06-0E01-430B-B9BD-9C6A33A0DE2D</title>
    <g id="TFT" stroke="none" stroke-width="1" fill="none" fill-rule="evenodd">
        <g id="desktop_app_01_game_tft" transform="translate(-796.000000, -125.000000)" fill="#1C1C1F" fill-rule="nonzero">
            <g id="01-Icon-/-08-tft-/-icon_protector" transform="translate(796.000000, 125.000000)">
                <path d="M15.4149526,8.92077733 C19.1551723,10.0127016 19.0803908,14.3077115 17.2850624,16.928418 C15.0409633,20.2043216 12.422875,22.7522103 7.93461951,19.4763885 C12.7968642,17.2924255 15.0409633,11.8326407 15.4149526,8.92077733 Z M7.18672284,3.46114801 C6.93735031,5.76638138 7.93469314,11.1048712 10.926918,16.2006485 C6.81269269,18.3845297 4.94258283,15.8366411 3.44651132,11.1048712 C2.24965173,7.31938992 3.44651132,4.18912204 7.18672284,3.46114801 Z M15.0409633,3.09705054 C20.651211,3.82488548 20.6513747,8.43562222 19.9033144,10.3768563 C18.4072756,7.82895128 11.3009072,7.10099362 8.3087642,8.19292602 C8.18404112,6.49430632 8.99171389,2.31224095 15.0409633,3.09705054 Z" id="Combined-Shape"></path>
            </g>
        </g>
    </g>
</svg>