<?xml version="1.0" encoding="UTF-8"?>
<svg width="24px" height="24px" viewBox="0 0 24 24" version="1.1" xmlns="http://www.w3.org/2000/svg" xmlns:xlink="http://www.w3.org/1999/xlink">
    <title>18939AE5-1EB2-40CD-A590-56BDB864D3BC</title>
    <g id="TFT" stroke="none" stroke-width="1" fill="none" fill-rule="evenodd">
        <g id="desktop_app_01_game_tft" transform="translate(-908.000000, -125.000000)" fill="#1C1C1F" fill-rule="nonzero">
            <g id="01-Icon-/-08-tft-/-icon_sniper" transform="translate(908.000000, 125.000000)">
                <path d="M12.3000273,3 C12.6313909,3 12.9,3.26862545 12.9,3.59999727 L12.9001636,4.55572364 C16.1571,4.96193455 18.7383818,7.54342909 19.1443636,10.8004636 L20.4000273,10.7999727 C20.7313909,10.7999727 21,11.0686636 21,11.4000273 L21,12 C21,12.3313636 20.7313909,12.5999727 20.4000273,12.5999727 L19.1442818,12.6001364 C18.7380545,15.8569091 16.1568545,18.4381091 12.9001636,18.8442545 L12.9,20.4000273 C12.9,20.7313909 12.6313909,21 12.3000273,21 L11.6999727,21 C11.3686909,21 11.1,20.7313909 11.1,20.4000273 L11.1004091,18.8443364 C7.84342364,18.4383545 5.26192909,15.8570727 4.85572636,12.6001364 L3.59999727,12.5999727 C3.26862545,12.5999727 3,12.3313636 3,12 L3,11.4000273 C3,11.0686636 3.26862545,10.7999727 3.59999727,10.7999727 L4.85565273,10.8004636 C5.26161818,7.54327364 7.84327636,4.96161545 11.1004091,4.55565 L11.1,3.59999727 C11.1,3.26862545 11.3686909,3 11.6999727,3 L12.3000273,3 Z M12.9004091,6.37464 L12.9,9.77572364 C12.9,9.8553 12.8684182,9.93157091 12.8121273,9.98790273 L12,10.7999727 L11.1878727,9.98790273 C11.1315818,9.93157091 11.1,9.8553 11.1,9.77572364 L11.1001636,6.37464 C8.83875,6.75395727 7.05396,8.53874727 6.67464273,10.8001364 L9.77572364,10.7999727 C9.8553,10.7999727 9.93157091,10.8315545 9.98790273,10.8879273 L10.7999727,11.6999727 L9.98790273,12.5121 C9.93157091,12.5683909 9.8553,12.5999727 9.77572364,12.5999727 L6.67464273,12.6004636 C7.05427091,14.8615909 8.83897909,16.6461273 11.1001636,17.0253545 L11.1,14.2243091 C11.1,14.1447 11.1315818,14.0684455 11.1878727,14.0120727 L12,13.2000273 L12.8121273,14.0120727 C12.8684182,14.0684455 12.9,14.1447 12.9,14.2243091 L12.9004091,17.0253545 C15.1612909,16.6457182 16.9457455,14.8613455 17.3253818,12.6004636 L14.2243091,12.5999727 C14.1447,12.5999727 14.0684455,12.5683909 14.0120727,12.5121 L13.2000273,11.6999727 L14.0120727,10.8879273 C14.0684455,10.8315545 14.1447,10.7999727 14.2243091,10.7999727 L17.3253818,10.8001364 C16.9460727,8.53897636 15.1615364,6.75427636 12.9004091,6.37464 Z" id="Shape"></path>
            </g>
        </g>
    </g>
</svg>