<?xml version="1.0" encoding="UTF-8"?>
<svg width="24px" height="24px" viewBox="0 0 24 24" version="1.1" xmlns="http://www.w3.org/2000/svg" xmlns:xlink="http://www.w3.org/1999/xlink">
    <title>6D1F8A37-D327-4FA4-A42B-B1EF4ECA1B90</title>
    <g id="TFT" stroke="none" stroke-width="1" fill="none" fill-rule="evenodd">
        <g id="desktop_app_01_game_tft" transform="translate(-936.000000, -125.000000)" fill="#1C1C1F" fill-rule="nonzero">
            <g id="01-Icon-/-08-tft-/-icon_socialite" transform="translate(936.000000, 125.000000)">
                <path d="M15.6955365,5.50411884 C16.6048638,5.33194065 17.5341547,5.27829247 18.4573093,5.33020611 C18.3574093,5.44330338 18.2620911,5.56129338 18.1667729,5.67934066 C17.9127275,5.99389885 17.6582729,6.30888249 17.3161093,6.53285158 C16.607482,7.02084795 16.2812729,7.8894707 16.2059183,8.71839525 C16.0684638,9.97116255 15.8305365,11.3243453 14.9185092,12.2665635 C14.502382,12.736609 13.9384092,13.0138908 13.3825365,13.2872453 C13.2784638,13.3383817 13.1746365,13.3894362 13.0722001,13.4415544 C13.0730183,14.6761908 13.0739183,15.910909 13.0722001,17.1454636 C13.5576274,16.2794181 14.3111729,15.5405181 15.2569092,15.1987635 C16.024282,14.9132181 16.8609547,14.8821272 17.6698911,14.9538817 C17.6275093,15.9212181 17.188882,16.894609 16.3980274,17.4751909 C15.7829183,17.9493272 14.9869092,18.1499454 14.2168365,18.1049454 C13.8102001,18.0920181 13.3127456,18.0764727 13.0393092,18.4372909 C12.8070274,18.7716818 12.7433728,19.1657182 12.6797183,19.5601636 C12.6414274,19.7974363 12.6030547,20.0347909 12.5280274,20.2593818 C12.4573365,20.5207091 12.2443637,20.6790273 12.0352365,20.8345636 C11.9625001,20.8886455 11.8902546,20.9424 11.8246365,21 C11.7948546,20.9354455 11.7623728,20.8714636 11.729891,20.8074 C11.6354728,20.6215909 11.5404819,20.4345545 11.5096365,20.2273091 C11.4997365,19.8737727 11.5824546,19.5314454 11.6651728,19.1894454 C11.7555001,18.8159454 11.8457456,18.4427727 11.8150637,18.0556909 C11.7916637,17.677609 11.5926819,17.3124545 11.2768637,17.0996454 C11.0164364,16.9089272 10.7079492,16.828009 10.3997073,16.7471727 C10.249211,16.7076545 10.0987719,16.6682181 9.95401916,16.6160181 C9.20736278,16.3520727 8.50301459,15.8771181 8.1059264,15.1762635 C7.80049094,14.6640817 7.68199366,14.0618999 7.69146821,13.4700271 C8.40007095,13.2581181 9.22378369,13.2320999 9.85273643,13.6751453 C10.8022364,14.3321453 11.3748819,15.3723817 11.9209365,16.3642636 C11.9450728,16.4081999 11.9692092,16.4519727 11.9933456,16.4956636 L11.9933456,16.4956636 L11.995391,15.9571363 C11.9988274,15.1817454 12.0022637,14.4067635 11.9811546,13.6318635 C11.7940365,13.4453181 11.5449819,13.385509 11.2967455,13.3258635 C11.1927546,13.300909 11.0887637,13.2759544 10.9896001,13.2416726 C10.0639092,12.9508908 9.24801823,12.2899635 8.83356005,11.4048544 C8.54997004,10.8705817 8.45637004,10.2822926 8.3626064,9.69300527 C8.2961864,9.2755689 8.22968458,8.85760889 8.09550276,8.45795161 C7.81178185,7.4360916 7.2173482,6.48439067 6.34694182,5.86403703 C6.17232546,5.76114248 6.09674182,5.57534975 6.02399727,5.39654429 C6.01600364,5.37689974 6.00805091,5.3573452 6,5.3379952 C7.54093912,5.33020611 9.10433732,5.76540521 10.341641,6.70242795 C11.6930728,7.71555796 12.6015001,9.18818708 13.3222365,10.6901726 C13.5284183,10.5693271 13.4396456,10.3816362 13.3542274,10.201268 C13.3217456,10.1325489 13.2896728,10.0648771 13.2747001,10.0023435 C12.9273819,9.00860435 12.415691,8.09016252 11.9049819,7.17356977 C11.8443546,7.0647025 11.7836455,6.95585977 11.7233455,6.84692704 C13.0021638,6.27934612 14.313791,5.7576243 15.6955365,5.50411884 Z M13.1292274,5.39713338 C12.9951274,5.46448611 12.8618456,5.53378611 12.7284001,5.60311066 C12.3066274,5.8223343 11.8843637,6.0418443 11.4360001,6.20091521 C11.2328455,6.27918249 11.0247819,6.20012158 10.8283855,6.12546248 C10.7881392,6.11016248 10.7483755,6.09505067 10.7092419,6.08151794 C10.5618219,6.01945885 10.4134037,5.95916703 10.2649283,5.89884248 C9.74679006,5.68834884 9.22781733,5.47750338 8.74699641,5.19034611 C8.30135731,4.94549701 8.06949276,4.43242337 8.01928912,3.94445154 C8.17764822,3.50406517 8.66821368,3.28603607 9.10950823,3.25748153 C10.7222673,3.08617062 12.3055637,4.03962245 13.1292274,5.39713338 Z M15.0891001,3.01707516 C15.1117638,3.01936607 15.1352456,3.02122334 15.1590547,3.02310516 C15.315082,3.03542698 15.4875547,3.04905789 15.5753456,3.19616698 C15.7321911,3.41220789 15.8482093,3.65200063 15.9644729,3.89212881 C16.0539002,4.07707063 16.1434911,4.262217 16.251982,4.43687427 C16.0340183,4.48948337 15.817282,4.54817155 15.6004638,4.60686791 C15.1432638,4.73065064 14.6859001,4.85449065 14.2170001,4.92139337 C13.9790729,4.96205701 13.754891,4.83401155 13.5975547,4.66615337 C13.3308274,4.39286427 13.0775183,4.10731063 12.8240456,3.82166699 L12.5947092,3.56388244 L12.5947092,3.56388244 C13.3257547,3.08109789 14.2291092,2.94785616 15.0891001,3.01707516 Z" id="Combined-Shape"></path>
            </g>
        </g>
    </g>
</svg>