<?xml version="1.0" encoding="UTF-8"?>
<svg width="24px" height="24px" viewBox="0 0 24 24" version="1.1" xmlns="http://www.w3.org/2000/svg" xmlns:xlink="http://www.w3.org/1999/xlink">
    <title>663CEAC6-28DA-4549-A782-C913CC193450</title>
    <g id="TFT" stroke="none" stroke-width="1" fill="none" fill-rule="evenodd">
        <g id="desktop_app_01_game_tft" transform="translate(-992.000000, -125.000000)" fill="#1C1C1F" fill-rule="nonzero">
            <g id="01-Icon-/-08-tft-/-icon_transformer" transform="translate(992.000000, 125.000000)">
                <path d="M13.1404914,3.29003884 C13.589429,3.29990614 14.0380393,3.32571166 14.4866496,3.35152537 C14.7495321,3.36665359 15.0124146,3.38178181 15.2754608,3.39370275 C15.2766881,4.15517844 15.276279,4.91622867 15.2758699,5.67741799 L15.2758699,5.67741799 L15.2754608,6.81954561 C15.2598335,6.96136144 15.3378064,7.0750072 15.4143884,7.18657478 C15.4386885,7.22195305 15.4628249,7.2571186 15.4837704,7.29291415 C15.65878,7.09825181 15.835835,6.90561038 16.020581,6.72076625 C16.0227083,5.99993795 16.0222992,5.27860237 16.0218901,4.5571277 L16.0218901,4.5571277 L16.0215628,3.69100628 L18.2102869,3.69100628 C18.2054596,3.92827146 18.2082414,4.16568392 18.2109414,4.40302274 C18.2154414,4.78394467 18.2198596,5.16466206 18.1926959,5.54426672 C18.1359139,5.68979711 18.0374864,5.80891652 17.9388952,5.92819957 C17.850695,6.0349644 17.7624129,6.14186833 17.7036673,6.26796685 C17.5864216,6.47469741 17.5856034,6.71498987 17.5847034,6.9461514 L17.5847034,6.9461514 L17.5843761,7.01024794 C17.5872397,7.73869354 17.5867488,8.46682004 17.5862579,9.19502836 C17.5859306,9.70839793 17.5856034,10.2218084 17.5864216,10.735358 C17.5824125,11.1529591 17.7330401,11.560742 17.9814408,11.8942338 C18.0722592,12.0235069 18.1761686,12.1460709 18.2802416,12.2688803 C18.5122786,12.5426446 18.7453792,12.8177181 18.8372613,13.1715009 C18.8827523,13.4684199 18.8767796,13.7685298 18.8708068,14.0687215 C18.8675341,14.2333401 18.8642614,14.3980405 18.8694977,14.5621683 C18.338169,14.3824132 17.8084767,14.1971764 17.2783753,14.0118577 C17.0961657,13.9481212 16.9139561,13.8843846 16.7315829,13.8208935 C16.6358554,13.5985111 16.542746,13.3750651 16.4496367,13.1515372 C16.3154545,12.8294181 16.1812723,12.5073809 16.0392356,12.1886164 C15.3105609,12.5221082 14.581968,12.8546182 13.8514115,13.1822191 C13.9185844,13.2363829 13.9856755,13.290383 14.0528484,13.3443832 C14.3193309,13.558911 14.5857317,13.7732752 14.8490233,13.9920576 C14.844196,14.215831 14.8464869,14.4398498 14.848696,14.6638685 C14.8519687,14.9868876 14.8551597,15.3098248 14.8372414,15.6321075 C14.6911138,15.8547354 14.5056314,16.0455359 14.3201491,16.2364182 C14.2163216,16.3431094 14.1125758,16.4498006 14.0157847,16.5620555 C13.8879843,17.5930491 13.7528203,18.6234701 13.6176563,19.6538092 C13.5759289,19.9722465 13.5341197,20.2906019 13.492556,20.6090391 C12.7782813,20.61043 12.0640067,20.6102089 11.349323,20.6102089 L10.9916743,20.6100035 L10.9916743,20.6100035 L10.6339028,20.6099391 C10.5764663,20.1620651 10.5179662,19.7143549 10.4595478,19.2666446 C10.3599421,18.5039334 10.2603609,17.7412223 10.165468,16.9777748 C10.1758998,16.5647555 9.89118812,16.2916456 9.61021555,16.0221358 C9.4946716,15.9113537 9.37975765,15.8010625 9.28625558,15.6820167 C9.28584649,15.4403252 9.28596922,15.1986336 9.28610013,14.9570239 C9.28627195,14.6305684 9.28644377,14.3042767 9.28529013,13.9783121 L9.28529013,13.9783121 L9.58576003,13.7380115 C9.81364064,13.5554746 10.0414476,13.3731014 10.2711282,13.1930191 C9.66594206,12.9107456 9.05767133,12.6351813 8.44926151,12.3596169 L8.44926151,12.3596169 L7.98562117,12.1495072 C7.81485799,12.5507447 7.64609117,12.9529639 7.47720162,13.3555105 C7.41103508,13.5131745 7.34485218,13.6709204 7.278522,13.8286663 C6.92165468,13.9449302 6.56721736,14.0692124 6.21280459,14.1935764 C5.89316463,14.3057494 5.57353287,14.4178406 5.25215018,14.5240409 C5.26373567,14.3539404 5.25757474,14.1768036 5.25136473,13.998194 C5.23504195,13.5289655 5.21840009,13.0504096 5.52304273,12.6679086 C5.60990933,12.551481 5.7044914,12.4370171 5.79971166,12.321735 C6.1397653,11.9101884 6.48794351,11.4887418 6.52156269,10.9348312 C6.54247547,10.2182575 6.53929274,9.50061191 6.53610182,8.78297453 C6.53407272,8.32628057 6.53205181,7.8695948 6.53623273,7.41320357 C6.53467,7.32681152 6.53594636,7.23987128 6.53722273,7.15278378 C6.54075729,6.91252404 6.54430002,6.67115975 6.48831169,6.43715912 C6.43407427,6.24159678 6.30835212,6.08745909 6.18263814,5.9333214 C6.08390788,5.81227926 5.98517761,5.69123712 5.92108107,5.5501331 C5.8888119,5.16592207 5.89407282,4.77981285 5.89933374,4.39345817 C5.90252466,4.15926936 5.90571558,3.92499873 5.90054465,3.69100628 C6.36468409,3.69035173 6.82880715,3.69057264 7.29323295,3.69078537 L7.64178241,3.69093878 L7.64178241,3.69093878 L7.99047301,3.69100628 L7.99047301,3.69100628 L7.99095573,5.7453201 L7.99095573,5.7453201 L7.98853391,6.71783715 C8.15228526,6.89560399 8.32159208,7.06855173 8.49125072,7.24185129 L8.49125072,7.24185129 L8.58707643,7.3397961 C8.67801758,7.25079404 8.72296861,7.14425012 8.72296861,7.0190516 C8.72675681,6.49753292 8.72547226,5.97583425 8.72417953,5.45411102 C8.7224777,4.76462735 8.72077588,4.07509459 8.73080682,3.38587273 C9.04495675,3.38419545 9.35892669,3.36370813 9.67271662,3.34322898 C10.0886405,3.31608163 10.5042207,3.28895883 10.9195309,3.30568251 C11.1496042,3.47800843 11.2892682,3.73459094 11.4249232,3.98381798 C11.4432505,4.01746988 11.461496,4.05099088 11.4799051,4.08415188 C11.130786,4.49294116 10.8979308,4.99268796 10.8295306,5.52666758 C11.5942872,5.30662517 12.4089531,5.28901785 13.177637,5.49928296 C13.0847731,4.97899975 12.8715543,4.48120841 12.5194079,4.08415188 C12.5649808,4.01452442 12.6071172,3.93944786 12.6497446,3.86361038 L12.7138861,3.75082171 C12.8228428,3.56381003 12.9459,3.38640728 13.1404914,3.29003884 Z M20.0195372,3.00381352 L20.1682831,3.00484443 C20.4160292,3.00661171 20.6636935,3.00837899 20.9114396,3.0067508 L20.9114396,8.58215126 C20.9210942,9.2395703 20.9354942,9.89688298 20.9498942,10.5541302 C20.9792671,11.8974247 21.0087217,13.2404738 20.9975944,14.5840138 C20.7624483,14.5836047 20.527384,14.5802501 20.2924834,14.5768956 C19.9283915,14.5715774 19.5643814,14.566341 19.2000441,14.5723137 C19.1954623,14.4049951 19.1981623,14.2372674 19.2009441,14.0694578 C19.2057714,13.7683661 19.2106805,13.4671926 19.1736167,13.1688827 C19.1057893,12.7303361 18.8274431,12.3957806 18.5502423,12.0624524 C18.2438324,11.694106 17.9388134,11.3273959 17.9208134,10.82364 C17.9140224,9.45651179 17.9159861,8.08829539 17.9198315,6.72109352 C17.9203225,6.46657284 18.0738956,6.27966688 18.2273869,6.09294092 C18.380551,5.90657497 18.5335514,5.72038083 18.5340423,5.46733288 C18.5445969,5.08988004 18.5424696,4.71207539 18.5403423,4.33434437 C18.5389514,4.08281824 18.5375605,3.83117757 18.5398514,3.57983962 C18.6883518,3.5160949 18.8322704,3.43293468 18.976598,3.34958627 C19.3037898,3.16056122 19.6326998,2.97055761 20.0195372,3.00381352 Z M4.35053594,3.02311448 C4.60357571,3.12576385 4.84678909,3.25172328 5.0899452,3.37765816 C5.24524471,3.45808565 5.40052785,3.53850496 5.55833101,3.61283698 C5.56019647,3.84606851 5.5586501,4.07943914 5.55711191,4.31278522 C5.55460009,4.69196443 5.55208826,5.07110272 5.56420557,5.44947192 C5.56617739,5.70885262 5.72131326,5.90035677 5.87640823,6.09181183 C6.02890136,6.28004325 6.18136177,6.46823375 6.18814452,6.72083989 C6.19641636,7.40159354 6.19505817,8.08232264 6.19369181,8.76322357 C6.19263635,9.29042044 6.19158089,9.81771549 6.19499272,10.3452151 L6.19490272,10.49203 C6.1959009,10.7341307 6.19690727,10.9798313 6.1148025,11.2107229 C5.99972492,11.5430692 5.77630341,11.8119245 5.55308645,12.0804525 C5.3001694,12.3847351 5.04751418,12.6886905 4.95296483,13.0845279 C4.89708286,13.4027197 4.90304742,13.7258206 4.90902017,14.0490032 C4.91224381,14.2235219 4.91547564,14.3981224 4.90895471,14.5719865 C4.56954744,14.5662592 4.23042652,14.5714137 3.89128107,14.5765683 C3.59522936,14.5809865 3.29916129,14.5854865 3.00288049,14.5827865 C2.9906241,13.2405556 3.01966963,11.8983247 3.04870698,10.5560938 C3.06367975,9.86411471 3.07865252,9.17217648 3.08796345,8.48023826 L3.088393,7.11211594 L3.088393,7.11211594 L3.08894527,3.00648898 L3.08894527,3.00648898 C3.25122389,3.01140627 3.41409978,3.00856717 3.57704113,3.00573625 C3.83535819,3.00123624 4.09386343,2.99673132 4.35053594,3.02311448 Z M12.8704907,7.04642804 C12.8660725,7.24248129 12.8674634,7.43854273 12.8688543,7.63461235 C12.8701634,7.82290103 12.8714725,8.01118154 12.867627,8.19944568 C12.8881635,8.62297046 12.5262807,9.03072883 12.0979613,9.04050613 C11.6735693,9.0757535 11.2754409,8.71876345 11.2500772,8.29726777 C11.2362499,8.06334895 11.2387045,7.8287756 11.2410772,7.59412042 C11.242959,7.41381721 11.2448409,7.2334649 11.239359,7.05330078 C10.2789664,7.38968078 9.58649639,8.34520517 9.55916905,9.36127517 C9.50048071,10.2884331 10.0041139,11.1842137 10.7689032,11.6908333 C10.9977493,10.9965223 11.418214,10.3627242 12.0207248,9.93831582 C12.6358355,10.3598115 13.073973,11.0042951 13.2881736,11.7152151 C14.220167,11.1793864 14.7248229,10.0321697 14.5086587,8.98181779 C14.3551674,8.10163178 13.6998838,7.35935888 12.8704907,7.04642804 Z" id="Combined-Shape"></path>
            </g>
        </g>
    </g>
</svg>