<?xml version="1.0" encoding="UTF-8"?>
<svg width="24px" height="24px" viewBox="0 0 24 24" version="1.1" xmlns="http://www.w3.org/2000/svg" xmlns:xlink="http://www.w3.org/1999/xlink">
    <title>1D9B3CB2-C823-4F1B-BC4C-C151D2B55BC5</title>
    <g id="TFT" stroke="none" stroke-width="1" fill="none" fill-rule="evenodd">
        <g id="desktop_app_01_game_tft" transform="translate(-1020.000000, -125.000000)" fill="#1C1C1F" fill-rule="nonzero">
            <g id="01-Icon-/-08-tft-/-icon_twinshot" transform="translate(1020.000000, 125.000000)">
                <path d="M6.23592795,3.86726469 C7.27703977,2.90150414 8.94208068,2.71956505 10.1687643,3.4362956 C11.475417,4.15488014 12.2077716,5.76844923 11.8880261,7.22581105 C10.8643989,11.3755638 9.84075523,15.5261183 8.82811614,19.6795365 C8.80090341,19.3608547 8.77407523,19.0421729 8.74724704,18.723491 C8.70160068,18.181282 8.6559625,17.6392365 8.60849159,17.0975183 C8.30912704,18.0052092 8.0013025,18.909791 7.69337159,19.8147001 C7.55897704,20.2096365 7.42455795,20.6046547 7.29081795,21 C7.12082432,19.9396365 6.95174704,18.879191 6.78818432,17.8179274 C6.63574886,18.2788092 6.4948825,18.7433729 6.35395886,19.2080183 C6.24682614,19.5613092 6.1396525,19.9147638 6.02734068,20.2667456 C5.85234795,18.0236183 5.68127432,15.7802456 5.5101925,13.5368729 C5.34978795,11.4334092 5.18938341,9.32995378 5.02575523,7.2267356 C4.8888325,6.00644196 5.29865977,4.68966832 6.23592795,3.86726469 Z M15.5204261,6.17846469 C16.3024443,5.60231741 17.4087898,5.52238105 18.2632989,5.98733741 C19.329308,6.5395856 19.9081716,7.84996105 19.6315443,9.01324378 C19.5451443,9.4166156 19.3503352,9.78881469 19.1086443,10.1195729 C17.5851898,12.1406456 16.064108,14.1630274 14.5430261,16.1853274 C13.5917261,17.4501547 12.6404261,18.714982 11.6886352,19.9793183 L11.6886352,19.9793183 L11.8003989,19.4774456 C12.003308,18.565582 12.206217,17.6534729 12.4274534,16.746682 C12.1706261,17.098991 11.9194443,17.4553092 11.6682625,17.811791 C11.399817,18.1925729 11.1314534,18.5733547 10.8561352,18.9492274 C11.851617,15.7803274 12.8489807,12.6115092 13.8461807,9.44310014 L13.8461807,9.44310014 L14.4389534,7.55958832 C14.648408,7.00639105 15.0564352,6.5368365 15.5204261,6.17846469 Z M17.9178625,8.67513014 C18.0501625,8.07870832 17.3573261,7.49707105 16.8013716,7.80586105 C16.225208,8.05665832 16.2049989,8.97100105 16.768317,9.24852832 C17.2231443,9.52323287 17.8498716,9.19061741 17.9178625,8.67513014 Z M9.95375432,6.29589014 C9.88485523,5.41559196 8.93933159,4.73101923 8.08290795,4.99933378 C7.4056825,5.17760741 6.93888523,5.88515469 7.00228614,6.57523378 C7.04272068,7.33699378 7.71992159,8.00781287 8.49274341,7.98302196 C9.35555704,7.99675105 10.0713598,7.1412765 9.95375432,6.29589014 Z" id="Combined-Shape"></path>
            </g>
        </g>
    </g>
</svg>