<?xml version="1.0" encoding="UTF-8"?>
<svg width="24px" height="24px" viewBox="0 0 24 24" version="1.1" xmlns="http://www.w3.org/2000/svg" xmlns:xlink="http://www.w3.org/1999/xlink">
    <title>00F7AAAE-CADC-4713-A992-9BEF9B8EDBAA</title>
    <g id="TFT" stroke="none" stroke-width="1" fill="none" fill-rule="evenodd">
        <g id="desktop_app_01_game_tft" transform="translate(-1076.000000, -125.000000)" fill="#1C1C1F" fill-rule="nonzero">
            <g id="01-Icon-/-08-tft-/-icon_yordle-lord" transform="translate(1076.000000, 125.000000)">
                <path d="M17.0893364,15.076137 L17.1939,15.7587461 C17.2755545,16.2940007 17.3569636,16.8272916 17.4438545,17.3605825 C16.1103,19.3018007 13.7526273,20.4610007 11.3951182,20.2414825 C9.40324636,20.2302734 7.68145636,19.0035734 6.46604727,17.5125188 C6.56733,16.7360643 6.66299182,15.9538825 6.74738727,15.1717825 C10.1909836,15.5206552 13.6626273,15.678237 17.0893364,15.076137 L17.0893364,15.076137 Z M15.9246545,15.5263007 C15.8853818,15.5479007 15.8461909,15.5695825 15.807,15.5911825 C14.9177182,16.0819279 14.0266364,16.5735734 13.0944,16.9723552 C13.1731091,17.6532461 13.5219818,18.1427643 14.1465,18.4353461 C15.1031182,17.7376007 15.9584455,16.8148552 15.9246545,15.5263007 Z M8.00212636,15.5431552 C8.19342545,16.5334825 8.60981455,17.4225188 9.25129364,18.2102643 C9.60018273,18.1821188 10.3035245,18.1314734 10.6579364,18.1089734 C10.6819909,17.8783279 10.7347636,17.4590098 10.7706818,17.1732188 C10.7768182,17.1243734 10.7824636,17.0793734 10.7873727,17.039937 C10.2177709,16.744737 9.65232545,16.4371007 9.08723182,16.1296279 C8.72571818,15.932937 8.36435182,15.7363279 8.00212636,15.5431552 Z M14.9382842,4.00170878 L15.1819091,4.00294612 C15.3506182,4.16291703 15.6080182,4.40859248 15.8632091,4.65214067 C16.1016273,4.87974248 16.3381636,5.10548703 16.4985273,5.25770976 L16.4985273,5.25770976 L16.1986551,5.25712433 C16.0303931,5.25658394 15.8396455,5.25573957 15.6489273,5.25489521 C15.45816,5.25405085 15.2674222,5.25320648 15.0991759,5.25266609 L14.7993273,5.25208067 C14.2985182,5.85976885 14.0059364,6.6250143 13.8202909,7.3846143 C13.7061273,8.22027794 14.1411215,8.88010168 14.6367672,9.50119432 L14.8680545,9.78560157 C15.0564,10.0150525 15.2427,10.2420243 15.4013455,10.4737334 C16.0202182,9.97302248 16.6336909,9.46084067 17.2469182,8.94887157 C17.2441364,9.22738885 17.2371,9.64517703 17.2300636,10.0629734 C17.2230273,10.4807534 17.2159909,10.8985007 17.2131273,11.1770916 C18.5016818,11.4753188 19.7790273,11.8354007 21,12.3587098 C20.8311273,12.5950007 20.4991909,13.0563734 20.3304,13.2871007 C15.5701364,15.1158188 10.2303464,15.1495279 5.32947,13.8271825 C4.74843818,13.6521734 4.20962455,13.3757098 3.67122818,13.0994916 C3.44840455,12.9851098 3.22564636,12.8708098 3,12.7637916 L3,12.7637916 L3,12.0829825 C3.81576818,11.9174643 4.61047636,11.667837 5.40393273,11.418537 C5.77072364,11.3032552 6.13725273,11.188137 6.50545909,11.0814461 C6.45483,10.3724507 6.46607182,9.66910885 6.63487909,8.97695157 C7.19755091,9.4609143 7.74898091,9.95043248 8.30036182,10.4512088 C8.35044273,10.283367 8.39976273,10.1121952 8.44963909,9.93910067 C8.90974364,8.34232885 9.41682818,6.58252612 10.9956,5.77537339 C11.2872,5.6126943 11.5779,5.43136885 11.8711364,5.24848067 C12.8964818,4.6090143 13.9524273,3.95043521 15.1819091,4.00294612 Z" id="Combined-Shape"></path>
            </g>
        </g>
    </g>
</svg>