<?xml version="1.0" encoding="UTF-8"?>
<svg width="24px" height="24px" viewBox="0 0 24 24" version="1.1" xmlns="http://www.w3.org/2000/svg" xmlns:xlink="http://www.w3.org/1999/xlink">
    <title>DDC66757-4E8A-44B4-9D74-BB5BF5880D1D</title>
    <g id="TFT" stroke="none" stroke-width="1" fill="none" fill-rule="evenodd">
        <g id="desktop_app_01_game_tft" transform="translate(-1048.000000, -125.000000)" fill="#1C1C1F" fill-rule="nonzero">
            <g id="01-Icon-/-08-tft-/-icon_yordle" transform="translate(1048.000000, 125.000000)">
                <path d="M3.67800273,8.74150273 C3.72599727,9.07825 3.71625273,9.42025 3.65025,9.75400273 L3.17249727,12.1412364 C3.05999727,12.7022636 3.10125,13.2872636 3.35850273,13.7979727 C4.55174727,16.168 7.4505,19.7507364 12.0007364,19.7507364 C16.5509727,19.7507364 19.4497909,16.1687364 20.6430273,13.7979727 C20.9002636,13.2872636 20.9415,12.7022636 20.829,12.1412364 L20.3512636,9.75400273 C20.2845,9.42025 20.2747636,9.07825 20.3227909,8.74150273 L21,4 L16.8832364,5.26675 C16.4085273,5.413 15.8925,5.31475273 15.5055,5.00425273 L14.6609727,4.3285 C14.3947364,4.11550273 14.0647636,4 13.7242364,4 L10.2765,4 C9.93599727,4 9.60524727,4.11624727 9.33974727,4.3285 L8.49525273,5.00425273 C8.1075,5.31475273 7.59149727,5.41224727 7.11674727,5.26675 L3,4 L3.67725,8.74150273 L3.67800273,8.74150273 Z M6.00074727,11.5000273 C6.37575273,7.74999727 9.75075273,7.74999727 10.5007636,11.5000273 C10.5007636,11.5000273 9.75075273,10.75 8.25074727,10.75 C6.75075,10.75 6.00074727,11.5000273 6.00074727,11.5000273 Z M18.0007091,11.5000273 C18.0007091,11.5000273 17.2507636,10.75 15.7507091,10.75 C14.2507364,10.75 13.5007091,11.5000273 13.5007091,11.5000273 C13.8757636,7.74999727 17.2507636,7.74999727 18.0007091,11.5000273 Z M12.0007364,14.4999727 C13.8757636,14.4999727 15.7507091,13.7500273 15.7507091,13.7500273 C15.7507091,17.8749727 8.25074727,17.5 8.25074727,13.7500273 C8.25074727,13.7500273 10.12575,14.4999727 12.0007364,14.4999727 Z" id="Shape"></path>
            </g>
        </g>
    </g>
</svg>