<svg xmlns="http://www.w3.org/2000/svg" width="24" height="24" viewBox="0 0 24 24">
    <g fill="none" fill-rule="evenodd">
        <g fill-rule="nonzero">
            <g>
                <g>
                    <g>
                        <path fill="#FFF" d="M0 0H24V18H0z" transform="translate(-415.000000, -1248.000000) translate(68.000000, 1184.000000) translate(347.000000, 64.000000) translate(0.000000, 3.000000)"/>
                        <g>
                            <path fill="#C70000" d="M8.205 4.151C8.205 6.44 6.367 8.3 4.099 8.3 1.83 8.299 0 6.443 0 4.15 0 1.86 1.837 0 4.106 0s4.099 1.864 4.099 4.151z" transform="translate(-415.000000, -1248.000000) translate(68.000000, 1184.000000) translate(347.000000, 64.000000) translate(0.000000, 3.000000) translate(7.897500, 4.848750)"/>
                            <path fill="#3D5897" d="M.056 3.42c.132 1.046.319 2.209 1.928 2.329.6.037 1.773-.143 2.175-1.785C4.69 2.389 6.278 1.935 7.36 2.79c.619.401.788 1.039.829 1.519-.049 1.526-.93 2.853-2.059 3.446-1.301.772-3.097.788-4.668-.383C.753 6.71-.24 5.48.056 3.42z" transform="translate(-415.000000, -1248.000000) translate(68.000000, 1184.000000) translate(347.000000, 64.000000) translate(0.000000, 3.000000) translate(7.897500, 4.848750)"/>
                        </g>
                        <g fill="#000">
                            <path d="M-0.395 1.285L3.265 1.285 3.265 1.99 -0.395 1.99z" transform="translate(-415.000000, -1248.000000) translate(68.000000, 1184.000000) translate(347.000000, 64.000000) translate(0.000000, 3.000000) translate(2.951740, 2.236399) translate(1.434983, 1.637105) rotate(-50.550955) translate(-1.434983, -1.637105)"/>
                            <path d="M0.453 1.982L4.113 1.982 4.113 2.687 0.453 2.687z" transform="translate(-415.000000, -1248.000000) translate(68.000000, 1184.000000) translate(347.000000, 64.000000) translate(0.000000, 3.000000) translate(2.951740, 2.236399) translate(2.282822, 2.334590) rotate(-50.550955) translate(-2.282822, -2.334590)"/>
                            <path d="M1.301 2.68L4.961 2.68 4.961 3.385 1.301 3.385z" transform="translate(-415.000000, -1248.000000) translate(68.000000, 1184.000000) translate(347.000000, 64.000000) translate(0.000000, 3.000000) translate(2.951740, 2.236399) translate(3.130658, 3.032076) rotate(-50.550955) translate(-3.130658, -3.032076)"/>
                        </g>
                        <g fill="#000">
                            <path d="M2.139 0.036L2.844 0.036 2.844 1.683 2.139 1.683z" transform="translate(-415.000000, -1248.000000) translate(68.000000, 1184.000000) translate(347.000000, 64.000000) translate(0.000000, 3.000000) translate(16.480246, 2.235672) translate(2.491267, 0.859549) rotate(-39.457110) translate(-2.491267, -0.859549)"/>
                            <path d="M3.417 1.594L4.122 1.594 4.122 3.24 3.417 3.24z" transform="translate(-415.000000, -1248.000000) translate(68.000000, 1184.000000) translate(347.000000, 64.000000) translate(0.000000, 3.000000) translate(16.480246, 2.235672) translate(3.769344, 2.417344) rotate(-39.457110) translate(-3.769344, -2.417344)"/>
                            <path d="M0.443 1.433L1.148 1.433 1.148 3.08 0.443 3.08z" transform="translate(-415.000000, -1248.000000) translate(68.000000, 1184.000000) translate(347.000000, 64.000000) translate(0.000000, 3.000000) translate(16.480246, 2.235672) translate(0.795261, 2.256469) rotate(-39.457110) translate(-0.795261, -2.256469)"/>
                            <path d="M1.727 2.988L2.432 2.988 2.432 4.634 1.727 4.634z" transform="translate(-415.000000, -1248.000000) translate(68.000000, 1184.000000) translate(347.000000, 64.000000) translate(0.000000, 3.000000) translate(16.480246, 2.235672) translate(2.079710, 3.811007) rotate(-39.457110) translate(-2.079710, -3.811007)"/>
                            <path d="M1.932 0.506L2.637 0.506 2.637 4.166 1.932 4.166z" transform="translate(-415.000000, -1248.000000) translate(68.000000, 1184.000000) translate(347.000000, 64.000000) translate(0.000000, 3.000000) translate(16.480246, 2.235672) translate(2.284840, 2.336365) rotate(-39.457110) translate(-2.284840, -2.336365)"/>
                        </g>
                        <g fill="#000">
                            <path d="M0.82 2.761L2.466 2.761 2.466 3.466 0.82 3.466z" transform="translate(-415.000000, -1248.000000) translate(68.000000, 1184.000000) translate(347.000000, 64.000000) translate(0.000000, 3.000000) translate(16.483732, 11.090631) translate(1.643050, 3.113505) rotate(-50.550955) translate(-1.643050, -3.113505)"/>
                            <path d="M2.098 1.205L3.744 1.205 3.744 1.91 2.098 1.91z" transform="translate(-415.000000, -1248.000000) translate(68.000000, 1184.000000) translate(347.000000, 64.000000) translate(0.000000, 3.000000) translate(16.483732, 11.090631) translate(2.920684, 1.557085) rotate(-50.550955) translate(-2.920684, -1.557085)"/>
                            <path d="M-0.028 2.064L1.618 2.064 1.618 2.769 -0.028 2.769z" transform="translate(-415.000000, -1248.000000) translate(68.000000, 1184.000000) translate(347.000000, 64.000000) translate(0.000000, 3.000000) translate(16.483732, 11.090631) translate(0.795214, 2.416019) rotate(-50.550955) translate(-0.795214, -2.416019)"/>
                            <path d="M1.25 0.507L2.896 0.507 2.896 1.212 1.25 1.212z" transform="translate(-415.000000, -1248.000000) translate(68.000000, 1184.000000) translate(347.000000, 64.000000) translate(0.000000, 3.000000) translate(16.483732, 11.090631) translate(2.072848, 0.859596) rotate(-50.550955) translate(-2.072848, -0.859596)"/>
                            <path d="M1.668 3.458L3.314 3.458 3.314 4.163 1.668 4.163z" transform="translate(-415.000000, -1248.000000) translate(68.000000, 1184.000000) translate(347.000000, 64.000000) translate(0.000000, 3.000000) translate(16.483732, 11.090631) translate(2.490890, 3.810990) rotate(-50.550955) translate(-2.490890, -3.810990)"/>
                            <path d="M2.945 1.902L4.592 1.902 4.592 2.607 2.945 2.607z" transform="translate(-415.000000, -1248.000000) translate(68.000000, 1184.000000) translate(347.000000, 64.000000) translate(0.000000, 3.000000) translate(16.483732, 11.090631) translate(3.768520, 2.254571) rotate(-50.550955) translate(-3.768520, -2.254571)"/>
                        </g>
                        <g fill="#000">
                            <path d="M2.777 -0.193L3.482 -0.193 3.482 3.467 2.777 3.467z" transform="translate(-415.000000, -1248.000000) translate(68.000000, 1184.000000) translate(347.000000, 64.000000) translate(0.000000, 3.000000) translate(2.952833, 11.094621) translate(3.129835, 1.636957) rotate(-39.457110) translate(-3.129835, -1.636957)"/>
                            <path d="M1.293 0.733L1.998 0.733 1.998 2.379 1.293 2.379z" transform="translate(-415.000000, -1248.000000) translate(68.000000, 1184.000000) translate(347.000000, 64.000000) translate(0.000000, 3.000000) translate(2.952833, 11.094621) translate(1.645330, 1.555979) rotate(-39.457110) translate(-1.645330, -1.555979)"/>
                            <path d="M2.57 2.286L3.275 2.286 3.275 3.932 2.57 3.932z" transform="translate(-415.000000, -1248.000000) translate(68.000000, 1184.000000) translate(347.000000, 64.000000) translate(0.000000, 3.000000) translate(2.952833, 11.094621) translate(2.922326, 3.108703) rotate(-39.457110) translate(-2.922326, -3.108703)"/>
                            <path d="M1.083 1.202L1.788 1.202 1.788 4.862 1.083 4.862z" transform="translate(-415.000000, -1248.000000) translate(68.000000, 1184.000000) translate(347.000000, 64.000000) translate(0.000000, 3.000000) translate(2.952833, 11.094621) translate(1.435130, 3.031706) rotate(-39.457110) translate(-1.435130, -3.031706)"/>
                        </g>
                    </g>
                </g>
            </g>
        </g>
    </g>
</svg>
