<svg width="364" height="146" xmlns="http://www.w3.org/2000/svg">
    <path d="M181.981 0c60.76 0 61.958 55.518 61.981 57.739V146l-15.55-20.624L212.915 146l-15.483-20.624L181.95 146l-15.482-20.624L150.986 146l-15.48-20.624L120 146V57.739C120.024 55.519 121.222 0 181.981 0zM99.924 7.775v25.238H43.268l-2.134 25.82h11.06c40.163 0 56.073 18.055 56.073 42.127 0 24.073-17.656 45.04-56.462 45.04-18.82 0-38.611-5.242-51.805-14.56l12.418-24.073c10.283 7.765 24.447 12.23 38.611 12.23 15.717 0 25.418-6.6 25.418-17.666 0-10.677-6.985-17.666-31.627-17.666H10.09l6.984-76.49h82.85zm257.913-.046v20.265l-30.429 34.739C351.674 66.593 364 81.646 364 101.525c0 22.773-17.526 43.616-55.85 43.616-18.874 0-38.326-5.21-51.422-14.474l12.133-23.932c10.208 7.72 24.46 12.159 38.518 12.159 15.6 0 25.23-6.369 25.23-17.37 0-10.228-7.512-16.597-25.23-16.597h-14.251v-20.65l27.732-31.458H263.47V7.729h94.368zM165.192 35.028 156 44.233l-9.192-9.205-2.829 2.832 9.192 9.205-9.192 9.206 2.829 2.832L156 49.897l9.192 9.206 2.829-2.832-9.193-9.206 9.193-9.205-2.829-2.832zm50 0L206 44.233l-9.192-9.205-2.829 2.832 9.192 9.205-9.192 9.206 2.829 2.832L206 49.897l9.192 9.206 2.829-2.832-9.193-9.206 9.193-9.205-2.829-2.832z" fill="#7D59EA" fill-rule="nonzero"/>
</svg>
