<?xml version="1.0" encoding="UTF-8"?>
<svg width="24px" height="24px" viewBox="0 0 24 24" version="1.1" xmlns="http://www.w3.org/2000/svg" xmlns:xlink="http://www.w3.org/1999/xlink">
    <title>4C285A13-BB14-47F5-B4A1-7AC81B3B9E76</title>
    <g id="multiSearch" stroke="none" stroke-width="1" fill="none" fill-rule="evenodd">
        <g id="desktop_app_02_lol_livegame_multisearch" transform="translate(-1837.000000, -1026.000000)" fill="#FFFFFF" fill-rule="nonzero">
            <g id="Group-5" transform="translate(1677.000000, 998.000000)">
                <g id="01-Icon-/-01-lol-/-icon_champion" transform="translate(160.000000, 28.000000)">
                    <path d="M21.1889061,12.2522734 C21.1889061,10.1202346 22.0271801,0.0641536266 12.0427374,0.00320768133 C11.9849991,0.00106922711 11.9700299,0 11.9550607,0 C1.970618,0.0641536266 2.80996128,10.1202346 2.80996128,12.2522734 C2.80996128,14.3907277 3.16601391,16.4842743 2.40900112,17.0637954 C1.65198832,17.6433165 1.9192951,18.4890752 3.43332069,20.3602226 C4.94734628,22.2313701 7.66639081,23.3005972 7.66639081,23.3005972 L7.66639081,13.7641606 C7.17133866,13.6005688 6.68697878,13.3076006 6.27425712,12.8841867 C5.13339179,11.7091061 4.97835386,10.0122427 5.92782753,9.09056888 C6.8730243,8.16889511 8.50038796,8.44368648 9.70861459,9.54712886 C10.1886976,9.98551197 10.5222964,10.6537789 10.6730574,11.1712848 C10.8815567,11.8256518 10.9072182,12.5249264 10.9072182,13.3771004 C10.9072182,14.8141416 10.9232566,16.840327 10.9232566,16.840327 C10.9232566,18.144784 13.0745415,18.144784 13.0745415,16.840327 C13.0745415,16.840327 13.0916492,14.8141416 13.0916492,13.3771004 C13.0916492,12.5249264 13.1162414,11.8256518 13.3258099,11.1712848 C13.4755017,10.6537789 13.8101698,9.98551197 14.2902528,9.54712886 C15.4984794,8.44368648 17.1247738,8.16889511 18.0710398,9.09056888 C19.0205135,10.0122427 18.8644063,11.7091061 17.7246102,12.8841867 C17.3118886,13.3076006 16.8275287,13.6005688 16.3324765,13.7641606 L16.3324765,23.3005972 C16.3324765,23.3005972 19.0515211,22.2313701 20.5655467,20.3602226 C22.0795722,18.4890752 22.346879,17.6433165 21.5898662,17.0637954 C20.8328534,16.4842743 21.1889061,14.3907277 21.1889061,12.2522734 Z" id="Page-1"></path>
                </g>
            </g>
        </g>
    </g>
</svg>