<svg xmlns="http://www.w3.org/2000/svg" width="16" height="16" viewBox="0 0 16 16">
    <g fill="none" fill-rule="evenodd">
        <g fill="#7B7A8E" fill-rule="nonzero">
            <g>
                <g>
                    <g>
                        <path d="M11.333 4.667H8.667v1.266h2.666c1.14 0 2.067.927 2.067 2.067 0 1.14-.927 2.067-2.067 2.067H8.667v1.266h2.666c1.84 0 3.334-1.493 3.334-3.333s-1.494-3.333-3.334-3.333zm-6 4h5.334V7.333H5.333v1.334zM2.6 8c0-1.14.927-2.067 2.067-2.067h2.666V4.667H4.667C2.827 4.667 1.333 6.16 1.333 8s1.494 3.333 3.334 3.333h2.666v-1.266H4.667C3.527 10.067 2.6 9.14 2.6 8z" transform="translate(-806.000000, -396.000000) translate(320.000000, 83.000000) translate(224.000000, 259.000000) translate(262.000000, 54.000000) translate(8.000000, 8.000000) rotate(-45.000000) translate(-8.000000, -8.000000)"/>
                    </g>
                </g>
            </g>
        </g>
    </g>
</svg>
