<svg xmlns="http://www.w3.org/2000/svg" width="12" height="12" viewBox="0 0 12 12">
    <g fill="none" fill-rule="evenodd">
        <g fill="#FFF">
            <g>
                <g>
                    <g>
                        <path d="M8.869 8.348c-.294 0-.532-.237-.532-.53 0-.293.238-.53.532-.53.292 0 .53.237.53.53 0 .293-.238.53-.53.53m-1.682-.65l-.776.776c-.225.226-.596.226-.821 0l-.777-.776c-.226-.226-.226-.596 0-.822L5.59 6.1c.225-.226.596-.226.821 0l.776.776c.226.226.226.596 0 .822m-4.055.65c-.293 0-.53-.237-.53-.53 0-.293.237-.53.53-.53.293 0 .53.237.53.53 0 .293-.237.53-.53.53m7.946-4.192l-.628-.628c-.23-.23-.607-.23-.837 0l-.628.628c-.068.069-.109.151-.136.237-.023.05-.039.108-.039.184 0 .824.282 1.204.282 1.204L7.415 5c0-.67.082-1.036.156-1.236.254-.332.233-.81-.07-1.114L6.6 1.748c-.33-.33-.872-.33-1.202 0l-.901.9c-.304.304-.325.783-.072 1.115.075.2.157.565.157 1.236l-1.598.764s.202-.362.202-1.186v-.008c-.001-.066-.014-.119-.032-.164-.028-.09-.069-.177-.14-.249l-.628-.628c-.23-.23-.607-.23-.836 0l-.628.628c-.23.23-.23.607 0 .837 0 0 .402.594.402 2.01 0 1.417-.778 2.196.212 2.514.992.32 7.933.32 8.924 0 .992-.318.213-1.097.213-2.514 0-1.37.372-1.965.397-2.002l.008-.008c.23-.23.23-.607 0-.837" transform="translate(-158 -284) translate(116 224) translate(38 56) translate(4 4)"/>
                    </g>
                </g>
            </g>
        </g>
    </g>
</svg>
