<svg xmlns="http://www.w3.org/2000/svg" width="16" height="16" viewBox="0 0 16 16">
    <g fill="none" fill-rule="evenodd">
        <g fill="#7D59EA" fill-rule="nonzero">
            <g>
                <g>
                    <g>
                        <path d="M8 13.667c3.13 0 5.667-2.537 5.667-5.667S11.13 2.333 8 2.333 2.333 4.87 2.333 8 4.87 13.667 8 13.667zm0 1c-3.682 0-6.667-2.985-6.667-6.667S4.318 1.333 8 1.333 14.667 4.318 14.667 8 11.682 14.667 8 14.667zm-.667-10h1.334v4.666H7.333V4.667zm0 5.333h1.334v1.333H7.333V10z" transform="translate(-498 -117) translate(172 69) translate(282 48) translate(44)"/>
                    </g>
                </g>
            </g>
        </g>
    </g>
</svg>
