<svg xmlns="http://www.w3.org/2000/svg" width="20" height="20" viewBox="0 0 20 20">
    <g fill="none" fill-rule="evenodd">
        <g fill="#FFF" fill-rule="nonzero">
            <g>
                <g>
                    <g>
                        <g>
                            <g>
                                <path d="M10.694 9.028l1.39 5.58v.67l-1.39 1.389H9.306l-1.39-1.39v-.67l1.39-5.58h1.388zM5.834 6.25l2.083 2.083-1.39 3.473-2.083-2.084.695-1.389H3.056L1.666 6.25h4.167zm12.5 0l-1.39 2.083h-2.083l.695 1.39-2.084 2.083-1.389-3.473 2.084-2.083h4.166zm-6.881-2.083l.63.694v.695l-1.389 2.083H9.306l-1.39-2.083V4.86l.631-.694h2.906z" transform="translate(-1052.000000, -802.000000) translate(320.000000, 162.000000) translate(224.000000, 119.000000) translate(12.000000, 492.000000) translate(496.000000, 29.000000) translate(-0.000000, -0.000000)"/>
                            </g>
                        </g>
                    </g>
                </g>
            </g>
        </g>
    </g>
</svg>
