<?xml version="1.0" encoding="UTF-8"?>
<svg width="60px" height="60px" viewBox="0 0 60 60" version="1.1" xmlns="http://www.w3.org/2000/svg" xmlns:xlink="http://www.w3.org/1999/xlink">
    <title>1F70F890-D19A-4648-BCCD-B9871F480689</title>
    <g id="multiSearch" stroke="none" stroke-width="1" fill="none" fill-rule="evenodd" opacity="0.099999994">
        <g id="desktop_app_02_lol_livegame_multisearch" transform="translate(-1887.000000, -822.000000)" fill="#7B7A8E" fill-rule="nonzero">
            <g id="Group-10" transform="translate(1677.000000, 130.000000)">
                <g id="Group-9-Copy-4" transform="translate(12.000000, 656.000000)">
                    <g id="01-Icon-/-01-lol-/-icon_position_sup" transform="translate(198.000000, 36.000000)">
                        <path d="M32.0833333,27.0833333 L36.25,43.8220978 L36.25,45.8333333 L32.0833333,50 L27.9166667,50 L23.75,45.8333333 L23.75,43.8220978 L27.9166667,27.0833333 L32.0833333,27.0833333 Z M17.5,18.75 L23.75,25 L19.5833333,35.4166667 L13.3333333,29.1666667 L15.4166667,25 L9.16666667,25 L5,18.75 L17.5,18.75 Z M55,18.75 L50.8333333,25 L44.5833333,25 L46.6666667,29.1666667 L40.4166667,35.4166667 L36.25,25 L42.5,18.75 L55,18.75 Z M34.3580263,12.5 L36.25,14.5833333 L36.25,16.6666667 L32.0833333,22.9166667 L27.9166667,22.9166667 L23.75,16.6666667 L23.75,14.5833333 L25.6419737,12.5 L34.3580263,12.5 Z" id="Combined-Shape"></path>
                    </g>
                </g>
            </g>
        </g>
    </g>
</svg>