<svg xmlns="http://www.w3.org/2000/svg" width="24" height="24" viewBox="0 0 24 24">
    <path fill="#9AA4AF" d="M13.9 2l1.25 2.391c.716.272 1.386.634 1.992 1.072l2.568-.108 1.9 3.29-1.197 1.887c.09.476.137.967.137 1.468s-.047.992-.137 1.468l1.197 1.887-1.9 3.29-2.568-.108c-.606.438-1.276.8-1.993 1.072L13.9 22h-3.8l-1.25-2.391c-.716-.272-1.386-.634-1.992-1.072l-2.568.108-1.9-3.29 1.197-1.887c-.09-.476-.137-.967-.137-1.468s.047-.992.137-1.468L2.39 8.645l1.9-3.29 2.568.108c.606-.438 1.276-.8 1.993-1.072L10.1 2h3.8zm-1.212 2h-1.376l-1.04 1.991-.712.27c-.548.208-1.063.485-1.532.824l-.562.405-2.05-.086-.688 1.192.971 1.53-.147.778c-.068.358-.102.725-.102 1.096 0 .371.034.738.102 1.096l.147.777-.971 1.53.688 1.193 2.05-.086.562.405c.469.339.984.616 1.532.824l.711.27L11.311 20h1.377l1.04-1.991.712-.27c.548-.208 1.063-.485 1.532-.824l.562-.405 2.05.086.688-1.192-.971-1.53.147-.778c.068-.358.102-.725.102-1.096 0-.371-.034-.738-.102-1.096l-.147-.777.971-1.53-.688-1.193-2.05.086-.562-.405c-.469-.339-.984-.616-1.532-.824l-.711-.27L12.689 4zM12 8c2.21 0 4 1.79 4 4s-1.79 4-4 4-4-1.79-4-4 1.79-4 4-4zm0 2c-1.105 0-2 .895-2 2s.895 2 2 2 2-.895 2-2-.895-2-2-2z"/>
</svg>
