<svg xmlns="http://www.w3.org/2000/svg" width="16" height="16" viewBox="0 0 16 16">
    <g fill="none" fill-rule="evenodd">
        <g fill="#7B7A8E" fill-rule="nonzero">
            <g>
                <g>
                    <g>
                        <path d="M14.667 1.333v5.334H9.333V5.143h3.17C11.559 3.653 9.895 2.666 8 2.666 5.054 2.667 2.667 5.054 2.667 8S5.054 13.333 8 13.333c1.392 0 2.66-.533 3.609-1.406l.934.952c-1.19 1.11-2.788 1.788-4.543 1.788-3.682 0-6.667-2.985-6.667-6.667S4.318 1.333 8 1.333c2.07 0 3.92.944 5.144 2.425l-.001-2.425h1.524z" transform="translate(-1352.000000, -215.000000) translate(320.000000, 130.000000) translate(971.000000, 77.000000) translate(61.000000, 8.000000)"/>
                    </g>
                </g>
            </g>
        </g>
    </g>
</svg>
