<svg xmlns="http://www.w3.org/2000/svg" width="20" height="20" viewBox="0 0 20 20">
    <g fill="none" fill-rule="evenodd">
        <g fill="#FFF" fill-rule="nonzero">
            <g>
                <g>
                    <g>
                        <g>
                            <g>
                                <path d="M4.283 1.667C5.6 2.674 8.934 5.853 10.097 9.96c1.163 4.109 0 8.372 0 8.372-2.403-2.765-5.167-4.496-5.167-4.496-.388-2.325-2.43-6.511-2.43-6.511 2.946.723 4.109 3.565 4.109 3.565-.31-3.643-2.326-9.224-2.326-9.224zm12.48 4.922s-1.035 2.06-1.511 3.837c-.195.726-.237 1.817-.241 2.532v.265c.001.281.008.46.008.46s-1.449 1.997-2.818 3.065c.074-1.335.052-2.863-.172-4.445.772-1.687 2.371-4.545 4.735-5.714zm-1.77-4.443S13.057 4.69 12.63 7.171c-.09.53-.168.995-.237 1.412-.315.487-.607.972-.875 1.444-.027-.104-.05-.208-.08-.312-.25-.891-.585-1.746-.965-2.566.044-.122.085-.243.141-.366 0 0 1.511-3.15 4.38-4.637z" transform="translate(-1052.000000, -496.000000) translate(320.000000, 162.000000) translate(224.000000, 119.000000) translate(0.000000, 186.000000) translate(508.000000, 29.000000) translate(0.000000, 0.000000)"/>
                            </g>
                        </g>
                    </g>
                </g>
            </g>
        </g>
    </g>
</svg>
