<?xml version="1.0" encoding="UTF-8"?>
<svg width="60px" height="60px" viewBox="0 0 60 60" version="1.1" xmlns="http://www.w3.org/2000/svg" xmlns:xlink="http://www.w3.org/1999/xlink">
    <title>318ED2B1-62F0-4AB4-9A04-D8C769F993CD</title>
    <g id="multiSearch" stroke="none" stroke-width="1" fill="none" fill-rule="evenodd" opacity="0.099999994">
        <g id="desktop_app_02_lol_livegame_multisearch" transform="translate(-1887.000000, -414.000000)" fill="#7B7A8E" fill-rule="nonzero">
            <g id="Group-10" transform="translate(1677.000000, 130.000000)">
                <g id="Group-9-Copy" transform="translate(12.000000, 248.000000)">
                    <g id="01-Icon-/-01-lol-/-icon_position_jng" transform="translate(198.000000, 36.000000)">
                        <path d="M12.8488372,5 C16.8023256,8.02325581 26.8023256,17.5581395 30.2906977,29.8837209 C33.4414854,41.0165041 30.9005276,52.528737 30.3792214,54.6526499 L30.3455241,54.7882596 C30.3104607,54.9275356 30.2906977,55 30.2906977,55 C23.0832558,46.704186 14.7893023,41.5116279 14.7893023,41.5116279 C13.6265116,34.5348837 7.5,21.9767442 7.5,21.9767442 C16.3390698,24.1460465 19.8255814,32.6744186 19.8255814,32.6744186 C18.8953488,21.744186 12.8488372,5 12.8488372,5 Z M50.2906977,19.7674419 C50.2906977,19.7674419 47.1837209,25.9460465 45.7548837,31.2781395 C45.1651922,33.4827148 45.0423969,36.8079897 45.0317551,38.9535551 L45.0314951,39.5412315 C45.0352417,40.4585012 45.0572093,41.0474419 45.0572093,41.0474419 C45.0572093,41.0474419 40.7111628,47.04 36.6032558,50.2437209 C36.8246512,46.24 36.7595349,41.6539535 36.0860465,36.907907 C38.404186,31.8493023 43.2004651,23.2725581 50.2906977,19.7674419 Z M44.9809302,6.43906977 C44.9809302,6.43906977 39.1669767,14.0706977 37.8888372,21.5125581 C37.6172093,23.1013953 37.3865116,24.4986047 37.18,25.7488372 C36.2330233,27.2111628 35.3567442,28.6660465 34.5548837,30.0818605 C34.4730233,29.7693023 34.4060465,29.4567442 34.3167442,29.144186 C33.5613953,26.4706977 32.5586047,23.9069767 31.4181395,21.4455814 C31.5502326,21.0809302 31.6748837,20.7181395 31.8423256,20.3497674 C31.8423256,20.3497674 31.9901339,20.0417173 32.2830236,19.5105967 L32.4284952,19.2499343 C33.9081525,16.6290472 38.1689147,9.97100775 44.9809302,6.43906977 Z" id="Combined-Shape"></path>
                    </g>
                </g>
            </g>
        </g>
    </g>
</svg>