<svg width="24" height="24" viewBox="0 0 24 24" xmlns="http://www.w3.org/2000/svg">
    <path d="M4.805 13.987c.125.11.384.289.777.54v1.503l5.013 2.917-.011-.724c1.514.67 2.68 1.074 3.497 1.212l.025.004L12 20.667l-7.195-4.198v-2.482zM12 4l7.195 4.148v6.328A7.108 7.108 0 0 1 21 16.368c-.125-.058-.38-.162-.765-.313.477 1.053.54 2.607-1.165 3.008-4.079.96-9.414-1.692-11.432-3.058 1.025.417 2.003.774 2.933 1.072v-.653a19.052 19.052 0 0 1-4.437-2.211C4.485 13.103 3.193 11.709 3 11.469c.276.075.51.12.702.138-.627-1.14.038-2.319 1.103-2.795v-.664L12 4zm0 .89L5.582 8.599v3.02c-.276-.263-.69-.94-.777-1.378-.276.2-.322.64-.15 1.077.745 1.898 3.931 3.969 5.916 5.053v-5.065H7.462L6.36 8.862h11.344L16.6 11.306h-3.108v6.545c.92.185 1.78.297 2.582.334 3.472.163 3.71-.84 3.121-1.679l-2.006 1.166a6.367 6.367 0 0 1-1.504-.025l2.733-1.567V8.6L12 4.889z" fill="#FFF" fill-rule="nonzero"/>
</svg>
