<svg xmlns="http://www.w3.org/2000/svg" width="86" height="86" viewBox="0 0 86 86">
    <g fill="none" fill-rule="evenodd">
        <g fill="#FFF" fill-rule="nonzero">
            <g>
                <g>
                    <path d="M59.613 44.85c4.49 0 8.725 1.975 11.62 5.419l.429.509-.553.37-4.912 3.277-.41.274-.345-.353c-1.552-1.59-3.622-2.328-5.829-2.328-4.498 0-8.158 3.528-8.158 8.032 0 4.503 3.66 8.167 8.158 8.167 3.804 0 6.327-2.15 6.821-4.55H60.23v-5.441h13.54c.031.379.074.98.103 1.824.05 1.415-.025 2.283-.31 3.992-1.151 6.913-6.497 11.208-13.95 11.208-8.372 0-15.183-6.818-15.183-15.2s6.81-15.2 15.183-15.2zm-31.886-.005c4.488 0 8.723 1.976 11.619 5.42l.427.51-.553.369-4.911 3.277-.41.275-.345-.354c-1.551-1.59-3.621-2.327-5.827-2.327-4.5 0-8.16 3.528-8.16 8.031s3.66 8.167 8.16 8.167c3.802 0 6.325-2.15 6.82-4.55h-6.205v-5.44h13.539c.033.378.075.98.105 1.823.05 1.416-.026 2.283-.311 3.992-1.15 6.913-6.497 11.208-13.948 11.208-8.373 0-15.185-6.818-15.185-15.2 0-8.38 6.812-15.2 15.185-15.2zm.014-34.095c8.38 0 15.197 6.826 15.197 15.214 0 8.39-6.818 15.214-15.197 15.214-8.38 0-15.2-6.824-15.2-15.214 0-8.388 6.82-15.214 15.2-15.214zm33.209.007c6.4 0 10.864 5.051 10.864 11.593 0 6.575-4.694 11.593-10.864 11.593h-8.296v7.21h-6.819V10.757zm10.864 24.228c1.7 0 3.081 1.384 3.081 3.084 0 1.7-1.382 3.084-3.081 3.084-1.7 0-3.082-1.383-3.082-3.084 0-1.7 1.383-3.084 3.082-3.084zM27.74 17.97c-4.404 0-7.987 3.587-7.987 7.995 0 4.407 3.583 7.993 7.987 7.993 4.402 0 7.984-3.586 7.984-7.993 0-4.408-3.582-7.995-7.984-7.995zm33.175-.181h-8.262v9.122h8.262c2.85 0 3.72-2.63 3.72-4.561 0-1.875-.87-4.561-3.72-4.561z" transform="translate(-597 -313) translate(500 220) translate(97 93)"/>
                </g>
            </g>
        </g>
    </g>
</svg>
