<svg xmlns="http://www.w3.org/2000/svg" width="24" height="24" viewBox="0 0 24 24">
    <g fill="none" fill-rule="evenodd">
        <g fill-rule="nonzero">
            <g>
                <g>
                    <g>
                        <g>
                            <path fill="#FFB900" d="M2 0L22 0 22 18.056 12 23 2 18.056z" transform="translate(-1210.000000, -501.000000) translate(320.000000, 123.000000) translate(588.000000, 137.000000) translate(302.000000, 45.000000) translate(0.000000, 196.000000)"/>
                            <path fill="#FFF" d="M10.124 15L8.892 13.768 8.892 12.046 10.838 12.046 10.838 13.11 11.244 13.516 12.644 13.516 13.05 13.11 13.05 11.318 12.588 10.842 10.068 10.842 10.068 9.288 12.588 9.288 13.05 8.826 13.05 7.258 12.644 6.852 11.244 6.852 10.838 7.258 10.838 8.28 8.892 8.28 8.892 6.572 10.124 5.34 13.764 5.34 14.996 6.558 14.996 9.036 13.988 10.044 14.996 11.066 14.996 13.782 13.778 15z" transform="translate(-1210.000000, -501.000000) translate(320.000000, 123.000000) translate(588.000000, 137.000000) translate(302.000000, 45.000000) translate(0.000000, 196.000000)"/>
                        </g>
                    </g>
                </g>
            </g>
        </g>
    </g>
</svg>
