<svg xmlns="http://www.w3.org/2000/svg" width="24" height="24" viewBox="0 0 24 24">
    <g fill="none" fill-rule="evenodd">
        <g fill-rule="nonzero">
            <g>
                <g>
                    <g>
                        <g>
                            <path fill="#9AA4AF" d="M2 0L22 0 22 18.056 12 23 2 18.056z" transform="translate(-1210.000000, -452.000000) translate(320.000000, 123.000000) translate(588.000000, 137.000000) translate(302.000000, 45.000000) translate(0.000000, 147.000000)"/>
                            <path fill="#FFF" d="M12.672 15L12.672 12.452 8.64 12.452 8.64 11.192 9.998 5.34 11.72 5.34 10.628 10.842 12.672 10.842 12.672 5.34 14.604 5.34 14.604 10.842 15.318 10.842 15.318 12.452 14.604 12.452 14.604 15z" transform="translate(-1210.000000, -452.000000) translate(320.000000, 123.000000) translate(588.000000, 137.000000) translate(302.000000, 45.000000) translate(0.000000, 147.000000)"/>
                        </g>
                    </g>
                </g>
            </g>
        </g>
    </g>
</svg>
