<svg xmlns="http://www.w3.org/2000/svg" width="24" height="24" viewBox="0 0 24 24">
    <g fill="none" fill-rule="evenodd">
        <g fill-rule="nonzero">
            <g>
                <g>
                    <g>
                        <g>
                            <path fill="#00BBA3" d="M2 0L22 0 22 18.056 12 23 2 18.056z" transform="translate(-1210.000000, -550.000000) translate(320.000000, 123.000000) translate(588.000000, 137.000000) translate(302.000000, 45.000000) translate(0.000000, 245.000000)"/>
                            <path fill="#FFF" d="M9.165 15L9.165 10.702 10.229 9.638 12.707 9.638 13.015 9.33 13.015 7.188 12.693 6.88 11.447 6.88 11.125 7.188 11.125 8.238 9.193 8.238 9.193 6.572 10.411 5.34 13.715 5.34 14.961 6.586 14.961 10.226 13.897 11.29 11.419 11.29 11.111 11.598 11.111 13.376 14.947 13.376 14.947 15z" transform="translate(-1210.000000, -550.000000) translate(320.000000, 123.000000) translate(588.000000, 137.000000) translate(302.000000, 45.000000) translate(0.000000, 245.000000)"/>
                        </g>
                    </g>
                </g>
            </g>
        </g>
    </g>
</svg>
