<?xml version="1.0" encoding="UTF-8"?>
<svg width="96px" height="30px" viewBox="0 0 96 30" version="1.1" xmlns="http://www.w3.org/2000/svg" xmlns:xlink="http://www.w3.org/1999/xlink">
    <title>Group 28</title>
    <g id="v3" stroke="none" stroke-width="1" fill="none" fill-rule="evenodd">
        <g id="V3_desktop_app_01_champion_position" transform="translate(-1122.000000, -7.000000)" fill-rule="nonzero">
            <g id="Group-28" transform="translate(1123.000000, 8.000000)">
                <rect id="Rectangle" stroke-opacity="0.414682242" stroke="#FF8200" fill-opacity="0.200256774" fill="#FF8200" x="0" y="0" width="94" height="28" rx="14"></rect>
                <path d="M59.0722656,18.2539062 C60.0683594,18.2539062 60.9407552,17.9967448 61.6894531,17.4824219 C62.3665365,17.0201823 62.8971354,16.4667969 63.28125,15.8222656 C63.6653646,15.1777344 63.8574219,14.5234375 63.8574219,13.859375 C63.8574219,13.1953125 63.6328125,12.6549479 63.1835938,12.2382812 C62.734375,11.8216146 62.1582031,11.6132812 61.4550781,11.6132812 C61.4290365,11.6132812 61.311849,11.6197917 61.1035156,11.6328125 C61.6764323,11.2486979 62.3111979,10.6888021 63.0078125,9.953125 C63.6523438,9.27604167 64.148763,8.61686198 64.4970703,7.97558594 C64.8453776,7.3343099 65.0195312,6.75651042 65.0195312,6.2421875 C65.0195312,5.78645833 64.9072266,5.42838542 64.6826172,5.16796875 C64.4580078,4.90755208 64.1536458,4.77734375 63.7695312,4.77734375 C63.4049479,4.77734375 63.0045573,4.87825521 62.5683594,5.08007812 C62.1321615,5.28190104 61.6455078,5.59114583 61.1083984,6.0078125 C60.5712891,6.42447917 60.0325521,6.90299479 59.4921875,7.44335938 C59.5182292,7.28059896 59.53125,7.19596354 59.53125,7.18945312 L59.53125,7.18945312 L59.6484375,6.40820312 C59.6614583,6.33658854 59.6744792,6.23730469 59.6875,6.11035156 C59.7005208,5.98339844 59.7167969,5.82226562 59.7363281,5.62695312 L59.7363281,5.62695312 L59.765625,5.37304688 L58.7597656,5.84179688 C58.733724,6.17382812 58.688151,6.65885417 58.6230469,7.296875 C58.5644531,7.82421875 58.5058594,8.27994792 58.4472656,8.6640625 C57.4641927,9.796875 56.6373698,11.219401 55.9667969,12.9316406 C55.686849,13.641276 55.4541016,14.3850911 55.2685547,15.1630859 C55.0830078,15.9410807 54.9902344,16.577474 54.9902344,17.0722656 C54.9902344,17.8144531 55.2115885,18.1855469 55.6542969,18.1855469 C55.9407552,18.1855469 56.2304688,17.9755859 56.5234375,17.5556641 C56.8164062,17.1357422 57.1191406,16.4895833 57.4316406,15.6171875 C57.6985677,14.8684896 57.9671224,14.0367839 58.2373047,13.1220703 C58.507487,12.2073568 58.7386068,11.3349609 58.9306641,10.5048828 C59.1227214,9.67480469 59.2708333,8.90494792 59.375,8.1953125 L59.375,8.1953125 L59.4042969,8.01953125 C59.7753906,7.55078125 60.2766927,7.05273438 60.9082031,6.52539062 C61.8326823,5.76367188 62.5878906,5.3828125 63.1738281,5.3828125 C63.499349,5.3828125 63.7613932,5.49674479 63.9599609,5.72460938 C64.1585286,5.95247396 64.2578125,6.25520833 64.2578125,6.6328125 C64.2578125,7.2578125 64.0071615,7.94791667 63.5058594,8.703125 C63.1282552,9.27604167 62.6627604,9.82454427 62.109375,10.3486328 C61.5559896,10.8727214 60.9895833,11.3007812 60.4101562,11.6328125 L60.4101562,11.6328125 L60.3125,12.1113281 C60.5664062,12.046224 60.7845052,12.0136719 60.9667969,12.0136719 C61.344401,12.0136719 61.6731771,12.0966797 61.953125,12.2626953 C62.2330729,12.4287109 62.4495443,12.6630859 62.6025391,12.9658203 C62.7555339,13.2685547 62.8320312,13.6315104 62.8320312,14.0546875 C62.8320312,14.7252604 62.6806641,15.3551432 62.3779297,15.9443359 C62.0751953,16.5335286 61.6715495,17.0055339 61.1669922,17.3603516 C60.6624349,17.7151693 60.1171875,17.8925781 59.53125,17.8925781 C59.1992188,17.8925781 58.8769531,17.8225911 58.5644531,17.6826172 C58.2519531,17.5426432 57.9915365,17.3619792 57.7832031,17.140625 L57.7832031,17.140625 L57.3046875,17.765625 C57.6497396,18.0911458 58.2389323,18.2539062 59.0722656,18.2539062 Z M55.5566406,17.609375 C55.3548177,17.609375 55.2539062,17.4042969 55.2539062,16.9941406 C55.2539062,16.7076823 55.3076172,16.297526 55.4150391,15.7636719 C55.5224609,15.2298177 55.6608073,14.6894531 55.8300781,14.1425781 C56.110026,13.2376302 56.476237,12.3489583 56.9287109,11.4765625 C57.3811849,10.6041667 57.8548177,9.86523438 58.3496094,9.25976562 C58.2584635,9.91080729 58.0957031,10.7213542 57.8613281,11.6914062 C57.796224,11.9648438 57.6969401,12.3489583 57.5634766,12.84375 C57.430013,13.3385417 57.3063151,13.7698568 57.1923828,14.1376953 C57.0784505,14.5055339 56.953125,14.8880208 56.8164062,15.2851562 C56.6796875,15.6822917 56.5592448,16.0110677 56.4550781,16.2714844 C56.2597656,16.7597656 56.0970052,17.1031901 55.9667969,17.3017578 C55.8365885,17.5003255 55.6998698,17.6028646 55.5566406,17.609375 Z M67.8945312,18.1171875 C68.4101562,18.125 68.8779297,18.0205078 69.2978516,17.8037109 C69.7177734,17.5869141 70.0605469,17.2871094 70.3261719,16.9042969 L70.3261719,16.9042969 L69.7167969,16.3886719 C69.1855469,16.9667969 68.6074219,17.2480469 67.9824219,17.2324219 C67.4667969,17.2167969 67.0791016,17.0078125 66.8193359,16.6054688 C66.5595703,16.203125 66.4648438,15.7148438 66.5351562,15.140625 L66.5351562,15.140625 L70.6777344,15.140625 L70.7421875,14.6542969 C70.7695312,14.4003906 70.7773438,14.1464844 70.765625,13.8925781 C70.7304688,13.1777344 70.5273438,12.6113281 70.15625,12.1933594 C69.7851562,11.7753906 69.2734375,11.5585938 68.6210938,11.5429688 C68.109375,11.53125 67.6328125,11.6572266 67.1914062,11.9208984 C66.75,12.1845703 66.3759766,12.5761719 66.0693359,13.0957031 C65.7626953,13.6152344 65.5761719,14.1894531 65.5097656,14.8183594 L65.5097656,14.8183594 L65.4804688,15.0703125 C65.4101562,15.953125 65.5976562,16.6777344 66.0429688,17.2441406 C66.4882812,17.8105469 67.1054688,18.1015625 67.8945312,18.1171875 Z M69.7285156,14.2558594 L66.6464844,14.25 C66.8378906,13.640625 67.0966797,13.1816406 67.4228516,12.8730469 C67.7490234,12.5644531 68.1308594,12.4160156 68.5683594,12.4277344 C68.9785156,12.4394531 69.2939453,12.6083984 69.5146484,12.9345703 C69.7353516,13.2607422 69.8144531,13.6699219 69.7519531,14.1621094 L69.7519531,14.1621094 L69.7285156,14.2558594 Z M73.2558594,18.1113281 C73.5175781,18.1113281 73.7753906,18.0761719 74.0292969,18.0058594 L74.0292969,18.0058594 L74.1113281,17.1210938 C73.8964844,17.1601562 73.7246094,17.1796875 73.5957031,17.1796875 C73.2910156,17.1796875 73.125,17.0273438 73.0976562,16.7226562 C73.0898438,16.6367188 73.0917969,16.5429688 73.1035156,16.4414062 L73.1035156,16.4414062 L73.765625,12.4980469 L74.9140625,12.4980469 L75.0605469,11.6601562 L73.90625,11.6601562 L74.1757812,10.125 L73.1210938,10.125 L72.8515625,11.6601562 L71.7324219,11.6601562 L71.5859375,12.4980469 L72.7050781,12.4980469 L72.0605469,16.4238281 C72.0136719,16.9355469 72.0957031,17.3427734 72.3066406,17.6455078 C72.5175781,17.9482422 72.8339844,18.1035156 73.2558594,18.1113281 Z M77.2402344,18.1171875 C77.8925781,18.1328125 78.5097656,17.8710938 79.0917969,17.3320312 L79.0917969,17.3320312 L79.0742188,17.6660156 C79.0742188,17.7753906 79.0878906,17.8867188 79.1152344,18 L79.1152344,18 L80.1933594,18 L80.2050781,17.9003906 C80.1503906,17.6894531 80.1269531,17.4765625 80.1347656,17.2617188 L80.1347656,17.2617188 L80.1640625,16.8105469 L80.6796875,13.6699219 C80.7382812,13.0332031 80.5839844,12.5224609 80.2167969,12.1376953 C79.8496094,11.7529297 79.3359375,11.5527344 78.6757812,11.5371094 C78.25,11.5292969 77.8378906,11.6044922 77.4394531,11.7626953 C77.0410156,11.9208984 76.7148438,12.1435547 76.4609375,12.4306641 C76.2070312,12.7177734 76.0625,13.046875 76.0273438,13.4179688 L76.0273438,13.4179688 L77.09375,13.4121094 C77.15625,13.1074219 77.3271484,12.8623047 77.6064453,12.6767578 C77.8857422,12.4912109 78.2070312,12.4023438 78.5703125,12.4101562 C78.9414062,12.4179688 79.2197266,12.5322266 79.4052734,12.7529297 C79.5908203,12.9736328 79.6640625,13.2734375 79.625,13.6523438 L79.625,13.6523438 L79.5546875,14.15625 L78.4472656,14.1503906 C77.5527344,14.1503906 76.8310547,14.3388672 76.2822266,14.7158203 C75.7333984,15.0927734 75.4394531,15.6171875 75.4003906,16.2890625 C75.3691406,16.8085938 75.5283203,17.2412109 75.8779297,17.5869141 C76.2275391,17.9326172 76.6816406,18.109375 77.2402344,18.1171875 Z M77.4511719,17.1796875 C77.1191406,17.171875 76.8662109,17.0693359 76.6923828,16.8720703 C76.5185547,16.6748047 76.4492188,16.4277344 76.484375,16.1308594 C76.53125,15.7441406 76.7324219,15.4453125 77.0878906,15.234375 C77.4433594,15.0234375 77.9550781,14.9179688 78.6230469,14.9179688 L78.6230469,14.9179688 L79.4257812,14.9238281 L79.1972656,16.2304688 C78.9785156,16.53125 78.7177734,16.7666016 78.4150391,16.9365234 C78.1123047,17.1064453 77.7910156,17.1875 77.4511719,17.1796875 Z" id="Beta" fill="#FF851F"></path>
                <path d="M15.4746094,18.1171875 C16.4160156,18.1367188 17.2304688,17.8261719 17.9179688,17.1855469 C18.3125,16.8183594 18.6376953,16.3632812 18.8935547,15.8203125 C19.1494141,15.2773438 19.3271484,14.6894531 19.4267578,14.0566406 C19.5263672,13.4238281 19.5683594,12.9023438 19.5527344,12.4921875 C19.5175781,11.5351562 19.2597656,10.7763672 18.7792969,10.2158203 C18.2988281,9.65527344 17.6425781,9.3671875 16.8105469,9.3515625 C16.0253906,9.3359375 15.3261719,9.5546875 14.7128906,10.0078125 C14.2597656,10.34375 13.875,10.7910156 13.5585938,11.3496094 C13.2421875,11.9082031 13.0195313,12.5351562 12.890625,13.2304688 C12.7617188,13.9257812 12.7089844,14.5097656 12.7324219,14.9824219 C12.7558594,15.5878906 12.8828125,16.1337891 13.1132813,16.6201172 C13.34375,17.1064453 13.6591797,17.4746094 14.0595703,17.7246094 C14.4599609,17.9746094 14.9316406,18.1054688 15.4746094,18.1171875 Z M15.5273438,17.1679688 C14.9609375,17.1523438 14.5292969,16.9277344 14.2324219,16.4941406 C13.9355469,16.0605469 13.7988281,15.4609375 13.8222656,14.6953125 L13.8222656,14.6953125 L13.8398438,14.3144531 C13.9101563,13.4082031 14.0771484,12.6591797 14.3408203,12.0673828 C14.6044922,11.4755859 14.9423828,11.03125 15.3544922,10.734375 C15.7666016,10.4375 16.234375,10.296875 16.7578125,10.3125 C17.3359375,10.328125 17.7714844,10.5478516 18.0644531,10.9716797 C18.3574219,11.3955078 18.4921875,11.9921875 18.46875,12.7617188 C18.4570313,13.1210938 18.4121094,13.546875 18.3339844,14.0390625 C18.1738281,15.0390625 17.8505859,15.8154297 17.3642578,16.3681641 C16.8779297,16.9208984 16.265625,17.1875 15.5273438,17.1679688 Z M22.7578125,18 L25.9511719,11.6601562 L24.8320313,11.6601562 L22.546875,16.5175781 L21.75,11.6601562 L20.7070313,11.6601562 L21.9492188,18 L22.7578125,18 Z M28.6816406,18.1171875 C29.1972656,18.125 29.6650391,18.0205078 30.0849609,17.8037109 C30.5048828,17.5869141 30.8476563,17.2871094 31.1132813,16.9042969 L31.1132813,16.9042969 L30.5039063,16.3886719 C29.9726563,16.9667969 29.3945313,17.2480469 28.7695313,17.2324219 C28.2539063,17.2167969 27.8662109,17.0078125 27.6064453,16.6054688 C27.3466797,16.203125 27.2519531,15.7148438 27.3222656,15.140625 L27.3222656,15.140625 L31.4648438,15.140625 L31.5292969,14.6542969 C31.5566406,14.4003906 31.5644531,14.1464844 31.5527344,13.8925781 C31.5175781,13.1777344 31.3144531,12.6113281 30.9433594,12.1933594 C30.5722656,11.7753906 30.0605469,11.5585938 29.4082031,11.5429688 C28.8964844,11.53125 28.4199219,11.6572266 27.9785156,11.9208984 C27.5371094,12.1845703 27.1630859,12.5761719 26.8564453,13.0957031 C26.5498047,13.6152344 26.3632813,14.1894531 26.296875,14.8183594 L26.296875,14.8183594 L26.2675781,15.0703125 C26.1972656,15.953125 26.3847656,16.6777344 26.8300781,17.2441406 C27.2753906,17.8105469 27.8925781,18.1015625 28.6816406,18.1171875 Z M30.515625,14.2558594 L27.4335938,14.25 C27.625,13.640625 27.8837891,13.1816406 28.2099609,12.8730469 C28.5361328,12.5644531 28.9179687,12.4160156 29.3554687,12.4277344 C29.765625,12.4394531 30.0810547,12.6083984 30.3017578,12.9345703 C30.5224609,13.2607422 30.6015625,13.6699219 30.5390625,14.1621094 L30.5390625,14.1621094 L30.515625,14.2558594 Z M33.2226562,18 L34.0019531,13.4941406 C34.3925781,12.8808594 34.9277344,12.5742188 35.6074219,12.5742188 L35.6074219,12.5742188 L36.1054688,12.6269531 L36.2226562,11.6191406 C36.015625,11.5605469 35.8476562,11.53125 35.71875,11.53125 C35.109375,11.515625 34.5800781,11.8027344 34.1308594,12.3925781 L34.1308594,12.3925781 L34.2890625,11.6542969 L33.2636719,11.6601562 L32.1621094,18 L33.2226562,18 Z M37.3066406,18 L38.8710938,9 L37.8105469,9 L36.2519531,18 L37.3066406,18 Z M41.0449219,18.1171875 C41.6972656,18.1328125 42.3144531,17.8710938 42.8964844,17.3320312 L42.8964844,17.3320312 L42.8789062,17.6660156 C42.8789062,17.7753906 42.8925781,17.8867188 42.9199219,18 L42.9199219,18 L43.9980469,18 L44.0097656,17.9003906 C43.9550781,17.6894531 43.9316406,17.4765625 43.9394531,17.2617188 L43.9394531,17.2617188 L43.96875,16.8105469 L44.484375,13.6699219 C44.5429688,13.0332031 44.3886719,12.5224609 44.0214844,12.1376953 C43.6542969,11.7529297 43.140625,11.5527344 42.4804688,11.5371094 C42.0546875,11.5292969 41.6425781,11.6044922 41.2441406,11.7626953 C40.8457031,11.9208984 40.5195312,12.1435547 40.265625,12.4306641 C40.0117188,12.7177734 39.8671875,13.046875 39.8320312,13.4179688 L39.8320312,13.4179688 L40.8984375,13.4121094 C40.9609375,13.1074219 41.1318359,12.8623047 41.4111328,12.6767578 C41.6904297,12.4912109 42.0117188,12.4023438 42.375,12.4101562 C42.7460938,12.4179688 43.0244141,12.5322266 43.2099609,12.7529297 C43.3955078,12.9736328 43.46875,13.2734375 43.4296875,13.6523438 L43.4296875,13.6523438 L43.359375,14.15625 L42.2519531,14.1503906 C41.3574219,14.1503906 40.6357422,14.3388672 40.0869141,14.7158203 C39.5380859,15.0927734 39.2441406,15.6171875 39.2050781,16.2890625 C39.1738281,16.8085938 39.3330078,17.2412109 39.6826172,17.5869141 C40.0322266,17.9326172 40.4863281,18.109375 41.0449219,18.1171875 Z M41.2558594,17.1796875 C40.9238281,17.171875 40.6708984,17.0693359 40.4970703,16.8720703 C40.3232422,16.6748047 40.2539063,16.4277344 40.2890625,16.1308594 C40.3359375,15.7441406 40.5371094,15.4453125 40.8925781,15.234375 C41.2480469,15.0234375 41.7597656,14.9179688 42.4277344,14.9179688 L42.4277344,14.9179688 L43.2304688,14.9238281 L43.0019531,16.2304688 C42.7832031,16.53125 42.5224609,16.7666016 42.2197266,16.9365234 C41.9169922,17.1064453 41.5957031,17.1875 41.2558594,17.1796875 Z M45.3574219,20.578125 C46.1777344,20.5898438 46.8496094,20.0820312 47.3730469,19.0546875 L47.3730469,19.0546875 L51.1347656,11.6601562 L49.9628906,11.6601562 L47.7070312,16.4003906 L46.9980469,11.6601562 L45.890625,11.6601562 L46.9863281,17.8652344 L46.6054688,18.5917969 C46.4179688,18.9628906 46.2021484,19.2314453 45.9580078,19.3974609 C45.7138672,19.5634766 45.4238281,19.6386719 45.0878906,19.6230469 L45.0878906,19.6230469 L44.8125,19.59375 L44.71875,20.4726562 C45,20.5390625 45.2128906,20.5742188 45.3574219,20.578125 Z" id="Overlay" fill="#FF851F"></path>
            </g>
        </g>
    </g>
</svg>