<svg xmlns="http://www.w3.org/2000/svg" width="24" height="24" viewBox="0 0 24 24">
    <g fill="none" fill-rule="evenodd">
        <g fill="#FFF" fill-rule="nonzero">
            <g>
                <g>
                    <path d="M12 20.5c4.694 0 8.5-3.806 8.5-8.5S16.694 3.5 12 3.5 3.5 7.306 3.5 12s3.806 8.5 8.5 8.5zm0 1.5C6.477 22 2 17.523 2 12S6.477 2 12 2s10 4.477 10 10-4.477 10-10 10zM11 7h2v7h-2V7zm0 8h2v2h-2v-2z" transform="translate(-1032 -740) translate(1020 724) translate(12 16)"/>
                </g>
            </g>
        </g>
    </g>
</svg>
