<svg width="382" height="146" xmlns="http://www.w3.org/2000/svg">
    <path d="M104.794 144.569v-28.857h22.33V89.8h-22.33V64.085H74.825V89.8H38L97.94 7.157h-33.3L0 94.315v21.397h73.846v28.857h30.948zM199.981 0c60.76 0 61.958 55.518 61.981 57.739V146l-15.55-20.624L230.915 146l-15.483-20.624L199.95 146l-15.482-20.624L168.986 146l-15.48-20.624L138 146V57.739C138.024 55.519 139.222 0 199.981 0zm175.856 7.73v20.264l-30.429 34.739C369.674 66.593 382 81.646 382 101.525c0 22.773-17.526 43.616-55.85 43.616-18.874 0-38.326-5.21-51.422-14.474l12.133-23.932c10.208 7.72 24.46 12.159 38.518 12.159 15.6 0 25.23-6.369 25.23-17.37 0-10.228-7.512-16.597-25.23-16.597h-14.251v-20.65l27.732-31.458H281.47V7.729h94.368zM183.192 35.027 174 44.233l-9.192-9.205-2.829 2.832 9.192 9.205-9.192 9.206 2.829 2.832L174 49.897l9.192 9.206 2.829-2.832-9.193-9.206 9.193-9.205-2.829-2.832zm50 0L224 44.233l-9.192-9.205-2.829 2.832 9.192 9.205-9.192 9.206 2.829 2.832L224 49.897l9.192 9.206 2.829-2.832-9.193-9.206 9.193-9.205-2.829-2.832z" fill="#7D59EA" fill-rule="nonzero"/>
</svg>
