<svg width="401" height="146" xmlns="http://www.w3.org/2000/svg">
    <path d="M104.841 143.685v-28.737h22.255V89.143H104.84V63.534H74.973v25.61h-36.7L98.008 6.841H64.822L.4 93.64v21.309h73.597v28.737h30.844zM199.446 0c61.999 0 61.981 57.807 61.981 57.807V146l-15.551-20.624L230.38 146l-15.483-20.624L199.415 146l-15.483-20.624L168.451 146l-15.48-20.624L137.464 146V57.739C137.49 55.519 138.687 0 199.447 0zm171.867 6.842-59.737 82.301h36.701V63.534h29.868v25.61H400.4v25.804h-22.255v28.737h-30.844v-28.737h-73.597V93.639l64.422-86.797h33.187zM182.657 35.028l-9.193 9.205-9.192-9.205-2.828 2.832 9.191 9.205-9.191 9.206 2.828 2.832 9.192-9.206 9.193 9.206 2.828-2.832-9.193-9.206 9.193-9.205-2.828-2.832zm50 0-9.193 9.205-9.192-9.205-2.828 2.832 9.191 9.205-9.191 9.206 2.828 2.832 9.192-9.206 9.193 9.206 2.828-2.832-9.193-9.206 9.193-9.205-2.828-2.832z" fill="#7D59EA" fill-rule="nonzero"/>
</svg>
