<svg width="367" height="146" xmlns="http://www.w3.org/2000/svg">
    <path d="M51.805 146c38.806 0 56.462-20.967 56.462-45.04 0-24.072-15.91-42.127-56.074-42.127h-11.06l2.135-25.82h56.656V7.775h-82.85l-6.985 76.49H44.82c24.642 0 31.627 6.989 31.627 17.666 0 11.066-9.701 17.666-25.418 17.666-14.164 0-28.328-4.465-38.611-12.23L0 131.44C13.194 140.758 32.985 146 51.805 146zM179.981 0c60.76 0 61.957 55.518 61.981 57.739V146l-15.55-20.624L210.915 146l-15.483-20.624L179.95 146l-15.482-20.624L148.986 146l-15.48-20.624L118 146V57.739C118.024 55.519 119.222 0 179.981 0zm129.457 7.2C342.632 7.2 367 32.21 367 76.311c0 44.102-24.368 69.112-57.562 69.112-33.001 0-57.561-25.01-57.561-69.112 0-44.102 24.56-69.113 57.561-69.113zm-.094 25.916c-15.181 0-25.808 12.671-25.808 43.196 0 30.524 10.627 43.195 25.808 43.195 15.37 0 25.997-12.67 25.997-43.195s-10.627-43.196-25.997-43.196zm-146.152 1.912L154 44.233l-9.192-9.205-2.829 2.832 9.192 9.205-9.192 9.206 2.829 2.832L154 49.897l9.192 9.206 2.829-2.832-9.193-9.206 9.193-9.205-2.829-2.832zm50 0L204 44.233l-9.192-9.205-2.829 2.832 9.192 9.205-9.192 9.206 2.829 2.832L204 49.897l9.192 9.206 2.829-2.832-9.193-9.206 9.193-9.205-2.829-2.832z" fill="#7D59EA" fill-rule="nonzero"/>
</svg>
