<svg xmlns="http://www.w3.org/2000/svg" width="20" height="20" viewBox="0 0 20 20">
    <g fill="none" fill-rule="evenodd">
        <g fill="#FFF" fill-rule="nonzero">
            <g>
                <g>
                    <g>
                        <g>
                            <g>
                                <path d="M10 17.083c3.912 0 7.083-3.171 7.083-7.083 0-3.912-3.171-7.083-7.083-7.083-3.912 0-7.083 3.171-7.083 7.083 0 3.912 3.171 7.083 7.083 7.083zm0 1.25c-4.602 0-8.333-3.73-8.333-8.333 0-4.602 3.73-8.333 8.333-8.333 4.602 0 8.333 3.73 8.333 8.333 0 4.602-3.73 8.333-8.333 8.333zm0-5c1.84 0 3.333-1.492 3.333-3.333 0-1.84-1.492-3.333-3.333-3.333-1.84 0-3.333 1.492-3.333 3.333 0 1.84 1.492 3.333 3.333 3.333z" transform="translate(-1530.000000, -425.000000) translate(320.000000, 162.000000) translate(224.000000, 133.000000) translate(710.000000, 52.000000) translate(12.000000, 72.000000) translate(264.000000, 6.000000)"/>
                            </g>
                        </g>
                    </g>
                </g>
            </g>
        </g>
    </g>
</svg>
