<svg xmlns="http://www.w3.org/2000/svg" width="48" height="48" viewBox="0 0 48 48">
    <path fill="#ffffff" fill-rule="evenodd" d="M33.286 28.092s-.817-1.4-.51-7.396c0 0 .306-6.297-8.776-7.696-9.082 1.4-8.776 7.696-8.776 7.696.307 5.997-.51 7.396-.51 7.396-.714.7-.714 1.8-.714 1.8 2.653 5.596 6.02 5.097 6.02 5.097-2.347-3.099 0-7.497 0-7.497.416-.96-.612-1.099-.612-1.099-.51 0-1.224-.6-1.224-.6-1.837-1.699-.204-4.197-.204-4.197 4.285-.4 4.693 3.298 4.693 3.298v4.198C22.673 30.19 24 30.99 24 30.99s1.327-.8 1.327-1.9v-4.197s.408-3.698 4.693-3.298c0 0 1.633 2.498-.204 4.197 0 0-.714.6-1.224.6 0 0-1.028.14-.612 1.1 0 0 2.347 4.397 0 7.496 0 0 3.367.5 6.02-5.098 0 0 0-1.1-.714-1.799"/>
</svg>
