<svg xmlns="http://www.w3.org/2000/svg" width="24" height="24" viewBox="0 0 24 24">
    <g fill="none" fill-rule="evenodd">
        <g fill="#FFF" fill-rule="nonzero">
            <g>
                <g>
                    <g>
                        <g>
                            <g>
                                <path d="M8.328 10.068c-.684 0-1.224.6-1.224 1.332 0 .732.552 1.332 1.224 1.332.684 0 1.224-.6 1.224-1.332.012-.732-.54-1.332-1.224-1.332zm4.38 0c-.684 0-1.224.6-1.224 1.332 0 .732.552 1.332 1.224 1.332.684 0 1.224-.6 1.224-1.332 0-.732-.54-1.332-1.224-1.332z" transform="translate(-894 -1312) translate(420 158) translate(0 1092) translate(410 48) translate(64 14) translate(1.5)"/>
                                <path d="M18.54 0H2.46C1.104 0 0 1.104 0 2.472v16.224c0 1.368 1.104 2.472 2.46 2.472h13.608l-.636-2.22 1.536 1.428 1.452 1.344L21 24V2.472C21 1.104 19.896 0 18.54 0zm-4.632 15.672s-.432-.516-.792-.972c1.572-.444 2.172-1.428 2.172-1.428-.492.324-.96.552-1.38.708-.6.252-1.176.42-1.74.516-1.152.216-2.208.156-3.108-.012-.684-.132-1.272-.324-1.764-.516-.276-.108-.576-.24-.876-.408-.036-.024-.072-.036-.108-.06-.024-.012-.036-.024-.048-.036-.216-.12-.336-.204-.336-.204s.576.96 2.1 1.416c-.36.456-.804.996-.804.996-2.652-.084-3.66-1.824-3.66-1.824 0-3.864 1.728-6.996 1.728-6.996 1.728-1.296 3.372-1.26 3.372-1.26l.12.144c-2.16.624-3.156 1.572-3.156 1.572s.264-.144.708-.348c1.284-.564 2.304-.72 2.724-.756.072-.012.132-.024.204-.024.732-.096 1.56-.12 2.424-.024 1.14.132 2.364.468 3.612 1.152 0 0-.948-.9-2.988-1.524l.168-.192s1.644-.036 3.372 1.26c0 0 1.728 3.132 1.728 6.996 0 0-1.02 1.74-3.672 1.824z" transform="translate(-894 -1312) translate(420 158) translate(0 1092) translate(410 48) translate(64 14) translate(1.5)"/>
                            </g>
                        </g>
                    </g>
                </g>
            </g>
        </g>
    </g>
</svg>
