<svg xmlns="http://www.w3.org/2000/svg" width="36" height="36" viewBox="0 0 36 36">
    <path fill="#FFF" d="M24.954 18.774c1.88 0 3.652.827 4.865 2.269l.179.213-.232.155-2.056 1.372-.171.114-.145-.148c-.65-.665-1.516-.974-2.44-.974-1.882 0-3.415 1.477-3.415 3.362s1.533 3.42 3.415 3.42c1.593 0 2.649-.901 2.856-1.905h-2.598v-2.278h5.668c.014.158.031.41.044.763.02.593-.01.956-.13 1.671-.482 2.894-2.72 4.692-5.84 4.692-3.504 0-6.355-2.854-6.355-6.363 0-3.508 2.85-6.363 6.355-6.363zm-13.348-.002c1.88 0 3.652.827 4.864 2.27l.18.213-.232.154-2.056 1.372-.172.115-.144-.148c-.65-.665-1.516-.974-2.44-.974-1.883 0-3.415 1.477-3.415 3.362s1.532 3.418 3.415 3.418c1.592 0 2.648-.9 2.855-1.904h-2.597v-2.278h5.668c.013.159.031.41.043.764.021.592-.01.955-.13 1.67-.481 2.895-2.72 4.692-5.839 4.692-3.504 0-6.356-2.854-6.356-6.362 0-3.509 2.852-6.364 6.356-6.364zM11.612 4.5c3.508 0 6.362 2.857 6.362 6.369 0 3.512-2.854 6.368-6.362 6.368S5.25 14.381 5.25 10.87c0-3.512 2.854-6.369 6.362-6.369zm13.902.003c2.68 0 4.548 2.114 4.548 4.853 0 2.752-1.965 4.853-4.548 4.853H22.04v3.018h-2.854V4.503zm4.547 10.142c.712 0 1.29.58 1.29 1.291 0 .712-.578 1.29-1.29 1.29-.71 0-1.29-.578-1.29-1.29 0-.712.58-1.291 1.29-1.291zM11.612 7.522c-1.843 0-3.343 1.502-3.343 3.347s1.5 3.346 3.343 3.346 3.343-1.501 3.343-3.346c0-1.845-1.5-3.347-3.343-3.347zM25.5 7.446H22.04v3.819H25.5c1.193 0 1.557-1.1 1.557-1.91 0-.784-.364-1.909-1.557-1.909z"/>
</svg>
