<svg xmlns="http://www.w3.org/2000/svg" width="24" height="24" viewBox="0 0 24 24">
    <g fill="none" fill-rule="evenodd">
        <g fill="#E0E0E0" fill-rule="nonzero">
            <g>
                <path d="M12 2C6.486 2 2 6.486 2 12s4.486 10 10 10 10-4.486 10-10S17.514 2 12 2zM9.586 7.616c.609-.645 1.466-1 2.414-1 .948 0 1.798.357 2.41 1.006.619.658.92 1.541.85 2.491-.143 1.887-1.605 3.425-3.26 3.425-1.655 0-3.12-1.538-3.26-3.425-.07-.958.231-1.844.846-2.497zM12 20.462c-2.282.001-4.468-.922-6.058-2.56.451-.642 1.025-1.188 1.69-1.607 1.225-.785 2.776-1.218 4.368-1.218 1.592 0 3.143.433 4.367 1.218.665.418 1.24.965 1.69 1.608-1.59 1.637-3.775 2.56-6.057 2.559z" transform="translate(-20 -173) translate(20 173)"/>
            </g>
        </g>
    </g>
</svg>
