<svg xmlns="http://www.w3.org/2000/svg" width="19" height="19" viewBox="0 0 19 19">
    <path fill="#9AA4AF" d="M4.521 2.167c1.186.907 4.186 3.767 5.233 7.465 1.046 3.697 0 7.535 0 7.535-2.162-2.49-4.65-4.047-4.65-4.047-.35-2.093-2.187-5.86-2.187-5.86 2.651.65 3.697 3.209 3.697 3.209-.279-3.28-2.093-8.302-2.093-8.302zm11.233 4.43s-.932 1.853-1.36 3.453c-.28 1.046-.21 2.93-.21 2.93s-1.304 1.799-2.536 2.76c.066-1.201.047-2.577-.156-4.001.696-1.518 2.135-4.09 4.262-5.142zM14.16 2.598s-1.744 2.29-2.128 4.522c-.081.477-.15.896-.212 1.271-.284.439-.547.875-.788 1.3-.024-.094-.045-.187-.071-.281-.227-.802-.528-1.571-.87-2.31.04-.11.077-.218.127-.328 0 0 1.36-2.835 3.942-4.174z"/>
</svg>
