<svg xmlns="http://www.w3.org/2000/svg" width="12" height="12" viewBox="0 0 12 12">
    <g fill="none" fill-rule="evenodd">
        <g fill="#FFF">
            <g>
                <g>
                    <g>
                        <path d="M7.813 8.933c-.704-.057-1.074-.635-1.221-1.371-.144-.72-.031-1.275.589-1.484.545-.184 1.58.523 2.04 1.258.459.735-.705 1.654-1.408 1.597m-1.4 1.042c-.303.032-.292-.498-.292-.784 0-.286.004-.406.151-.445.119-.032.194.159.259.466.064.308.183.731-.119.763m-.87 0c-.301-.032-.183-.455-.118-.763.064-.307.14-.498.258-.466.148.04.151.159.151.445 0 .286.01.816-.29.784M4.14 8.933c-.703.057-1.866-.862-1.407-1.597.46-.735 1.494-1.442 2.04-1.258.62.209.732.763.588 1.484-.146.736-.516 1.314-1.22 1.371m6.377-6.516C9.32.222 7.216-.013 5.977.001 4.74.014 2.635.222 1.436 2.417.208 4.665.932 7.361 1.294 7.463c.201.057.431.03.503-.325.087-.43.145-1.594.086-1.908-.108-.573-.017-.65.134-.396.15.254.259 1.633-.065 2.65-.323 1.018-.409 1.654-.129 2.036.28.381.819.445 1.185.508.366.064.388.552.366.848-.021.297.043.806 1.443.955v-.601s.216.028.302.07l.018.577s.154.122.837.123h.007c.683 0 .826-.134.826-.134l.017-.576c.087-.042.313-.06.313-.06v.6c1.4-.148 1.465-.657 1.443-.954-.021-.296 0-.784.367-.848.366-.063.904-.127 1.184-.508.28-.382.194-1.018-.129-2.036-.323-1.017-.215-2.396-.065-2.65.151-.254.257-.159.15.413-.06.314-.088 1.373 0 1.803.071.354.415.43.624.254.442-.37 1.036-2.64-.192-4.887" transform="translate(-1190 -284) translate(116 224) translate(1070 56) translate(4 4)"/>
                    </g>
                </g>
            </g>
        </g>
    </g>
</svg>
