<svg width="16" height="16" xmlns="http://www.w3.org/2000/svg">
    <path d="M9.087 3.333a5 5 0 0 1 1.252.16 2.197 2.197 0 0 1 .826-.16 2.868 2.868 0 0 1 2.846 2.513l.638 5.103a2.235 2.235 0 0 1-2.218 2.513 2.87 2.87 0 0 1-2.7-1.899H6.268a2.87 2.87 0 0 1-2.7 1.899 2.235 2.235 0 0 1-2.217-2.513l.638-5.103a2.868 2.868 0 0 1 2.846-2.513c.292 0 .571.056.827.159.401-.104.82-.159 1.251-.159h2.174zm-3.62 2.849h-.632v1.265l-1.266.001v.633h1.265v1.266h.634V8.08l1.266.001v-.633H5.467V6.181zm5.065.316a1.266 1.266 0 1 0 0 2.533 1.266 1.266 0 0 0 0-2.533z" fill="#7B7A8E" fill-rule="nonzero"/>
</svg>
