<?xml version="1.0" encoding="UTF-8"?>
<svg width="20px" height="20px" viewBox="0 0 20 20" version="1.1" xmlns="http://www.w3.org/2000/svg" xmlns:xlink="http://www.w3.org/1999/xlink">
    <title>tag2</title>
    <g id="Final" stroke="none" stroke-width="1" fill="none" fill-rule="evenodd">
        <g id="desktop_app_00_ingame" transform="translate(-1186.000000, -280.000000)">
            <g id="Group-10" transform="translate(116.000000, 224.000000)">
                <g id="tag2" transform="translate(1070.000000, 56.000000)">
                    <circle id="Oval" stroke="#FFFFFF" fill="#FF7905" fill-rule="nonzero" cx="10" cy="10" r="9.5"></circle>
                    <g id="03-Icon-/-01-lol-/-icon_dead" transform="translate(4.000000, 4.000000)" fill="#FFFFFF">
                        <path d="M7.81292517,8.93304324 C7.1092185,8.8764862 6.73876556,8.29753405 6.59202104,7.5620401 C6.44835508,6.84119038 6.56072239,6.28672943 7.18079494,6.07792288 C7.72646904,5.894365 8.76060742,6.60082297 9.22008195,7.33581195 C9.67981302,8.07080093 8.51637528,8.98960028 7.81292517,8.93304324 M6.41218205,9.97530861 C6.11048353,10.0071219 6.12125847,9.47715222 6.12125847,9.19083223 C6.12125847,8.90476472 6.12536322,8.78508599 6.27210773,8.74569806 C6.39063215,8.71388473 6.46605678,8.90476472 6.53070646,9.21204112 C6.59535615,9.51957 6.71388056,9.94349528 6.41218205,9.97530861 M5.54223334,9.97530861 C5.24104792,9.94349528 5.35931579,9.51957 5.42370892,9.21204112 C5.48835861,8.90476472 5.56378324,8.71388473 5.68230765,8.74569806 C5.82956526,8.78508599 5.83315691,8.90476472 5.83315691,9.19083223 C5.83315691,9.47715222 5.84393186,10.0071219 5.54223334,9.97530861 M4.14149022,8.93304324 C3.4380401,8.98960028 2.27460237,8.07080093 2.73433344,7.33581195 C3.19380797,6.60082297 4.22820289,5.894365 4.773877,6.07792288 C5.393693,6.28672943 5.50631685,6.84119038 5.36239434,7.5620401 C5.21590637,8.29753405 4.84570998,8.8764862 4.14149022,8.93304324 M10.5192327,2.41736973 C9.31962193,0.22199729 7.21594179,-0.013572864 5.97733597,0.000566394925 C4.73873014,0.0144531671 2.63479345,0.22199729 1.43569577,2.41736973 C0.207608351,4.66450196 0.931838722,7.36106063 1.29408218,7.46306528 C1.49495798,7.51962232 1.72508006,7.49260623 1.7966565,7.13811481 C1.88388226,6.70787736 1.94160519,5.54366088 1.88285608,5.22981983 C1.7751066,4.65743233 1.86618056,4.5796664 2.01702982,4.83417306 C2.16787908,5.08842724 2.27562855,6.46650001 1.95238014,7.48427417 C1.62938827,8.50179584 1.54344524,9.1380625 1.82308077,9.51957 C2.1032294,9.90107751 2.64197675,9.96470417 3.00806841,10.0283308 C3.37416006,10.0919575 3.39570995,10.5795094 3.37416006,10.8764339 C3.35261017,11.1733583 3.41725985,11.6821192 4.81748988,11.8305814 L4.81748988,11.2299154 C4.81748988,11.2299154 5.03298882,11.2579414 5.1191884,11.3003592 L5.13689009,11.876534 C5.13689009,11.876534 5.29056136,11.9992425 5.97374432,12 C5.97374432,12 5.97605323,12 5.97733597,12 L5.98067107,12 L5.98067107,12 C6.66385402,11.9992425 6.80675035,11.865677 6.80675035,11.865677 L6.82445204,11.2897547 C6.91065162,11.2475894 7.13692551,11.2299154 7.13692551,11.2299154 L7.13692551,11.8305814 C8.53715554,11.6821192 8.60180522,11.1733583 8.58025533,10.8764339 C8.55870543,10.5795094 8.58025533,10.0919575 8.94660353,10.0283308 C9.31269518,9.96470417 9.85118599,9.90107751 10.1313346,9.51957 C10.4114832,9.1380625 10.3252837,8.50179584 10.0020352,7.48427417 C9.67878684,6.46650001 9.78653631,5.08842724 9.93738557,4.83417306 C10.0882348,4.5796664 10.1941885,4.6751064 10.086439,5.2474939 C10.0276899,5.56133495 9.99921324,6.61950699 10.086439,7.04974444 C10.158272,7.40423587 10.501531,7.4799819 10.7113859,7.30399862 C11.1529022,6.93309556 11.7470636,4.66450196 10.5192327,2.41736973" id="icon_dead"></path>
                    </g>
                </g>
            </g>
        </g>
    </g>
</svg>