<?xml version="1.0" encoding="UTF-8"?>
<svg width="20px" height="20px" viewBox="0 0 20 20" version="1.1" xmlns="http://www.w3.org/2000/svg" xmlns:xlink="http://www.w3.org/1999/xlink">
    <title>tag</title>
    <g id="Final" stroke="none" stroke-width="1" fill="none" fill-rule="evenodd">
        <g id="desktop_app_00_ingame" transform="translate(-154.000000, -280.000000)">
            <g id="Group-10" transform="translate(116.000000, 224.000000)">
                <g id="tag" transform="translate(38.000000, 56.000000)">
                    <circle id="Oval" stroke="#FFFFFF" fill="#1EA1F7" fill-rule="nonzero" cx="10" cy="10" r="9.5"></circle>
                    <g id="03-Icon-/-01-lol-/-icon_best" transform="translate(4.000000, 4.000000)" fill="#FFFFFF">
                        <path d="M8.86852275,8.34848653 C8.57491451,8.34848653 8.33739352,8.11054064 8.33739352,7.81778221 C8.33739352,7.52502377 8.57491451,7.28707788 8.86852275,7.28707788 C9.16128118,7.28707788 9.39880218,7.52502377 9.39880218,7.81778221 C9.39880218,8.11054064 9.16128118,8.34848653 8.86852275,8.34848653 M7.18675515,7.69838436 L6.41130648,8.47383303 C6.18610768,8.69988163 5.81516703,8.69988163 5.58954333,8.47383303 L4.81324485,7.69838436 C4.58719624,7.47191085 4.58719624,7.10224491 4.81324485,6.87619631 L5.58954333,6.10032272 C5.81516703,5.87427412 6.18610768,5.87427412 6.41130648,6.10032272 L7.18675515,6.87619631 C7.41280376,7.10224491 7.41280376,7.47191085 7.18675515,7.69838436 M3.13232705,8.34848653 C2.83871882,8.34848653 2.60119782,8.11054064 2.60119782,7.81778221 C2.60119782,7.52502377 2.83871882,7.28707788 3.13232705,7.28707788 C3.42508549,7.28707788 3.66260648,7.52502377 3.66260648,7.81778221 C3.66260648,8.11054064 3.42508549,8.34848653 3.13232705,8.34848653 M11.0775955,4.15638974 L10.4495882,3.52838253 C10.2205653,3.2985098 9.84282621,3.2985098 9.61295348,3.52838253 L8.98537118,4.15638974 C8.91738664,4.22479918 8.87617101,4.30723044 8.84855229,4.39348583 C8.82603241,4.44362443 8.81031099,4.50141129 8.81031099,4.57704409 C8.81031099,5.40050685 9.09202193,5.78122028 9.09202193,5.78122028 L7.41535318,4.99939805 C7.41535318,4.32805071 7.49650972,3.96263379 7.57129272,3.7629292 C7.82538494,3.43107966 7.80371487,2.95221354 7.50075876,2.64883253 L6.59953868,1.74761245 C6.26938875,1.41746252 5.72806183,1.41746252 5.3979119,1.74761245 L4.49669182,2.64883253 C4.1928859,2.95221354 4.17206564,3.43107966 4.42530805,3.7629292 C4.50009105,3.96263379 4.5820974,4.32805071 4.5820974,4.99939805 L2.98403577,5.76337434 C2.98403577,5.76337434 3.18628978,5.40050685 3.18628978,4.57704409 L3.18628978,4.57619428 C3.18628978,4.57364486 3.18543998,4.57109544 3.18543998,4.56854602 C3.18459017,4.502686 3.17226797,4.45042288 3.15399713,4.40495822 C3.12637841,4.3144538 3.08516278,4.22777351 3.01462882,4.15638974 L2.38619671,3.52838253 C2.15632398,3.2985098 1.77943468,3.2985098 1.54956194,3.52838253 L0.922404548,4.15638974 C0.692531817,4.38626247 0.692531817,4.76315177 0.922404548,4.99344941 C0.922404548,4.99344941 1.32393825,5.58661453 1.32393825,7.00324242 C1.32393825,8.4198703 0.545515246,9.19871821 1.53638994,9.51739575 C2.52811444,9.83607329 9.46933614,9.83607329 10.4602108,9.51739575 C11.4519353,9.19871821 10.6726625,8.4198703 10.6726625,7.00324242 C10.6726625,5.632929 11.0453028,5.03848916 11.0703721,5.00067276 L11.0775955,4.99344941 C11.3074682,4.76315177 11.3074682,4.38626247 11.0775955,4.15638974" id="Fill-1-Copy-3"></path>
                    </g>
                </g>
            </g>
        </g>
    </g>
</svg>