<svg xmlns="http://www.w3.org/2000/svg" width="16" height="16" viewBox="0 0 16 16">
    <path fill="#FFF" d="M9.087 3.333c.43 0 .85.055 1.252.16.171-.07.355-.118.549-.142.092-.012.184-.018.277-.018 1.447 0 2.667 1.078 2.846 2.513l.638 5.103c.153 1.225-.716 2.342-1.94 2.496-.093.011-.185.017-.278.017-1.231 0-2.299-.78-2.7-1.899H6.268c-.4 1.118-1.468 1.899-2.7 1.899-1.234 0-2.235-1-2.235-2.235 0-.093.006-.186.018-.278l.638-5.103c.179-1.435 1.4-2.513 2.846-2.513.292 0 .571.056.827.159.401-.104.82-.159 1.251-.159h2.174zm-3.62 2.849h-.632v1.265l-1.266.001v.633h1.265v1.266h.634V8.08l1.266.001v-.633H5.467V6.181zm5.065.316c-.7 0-1.266.567-1.266 1.267 0 .699.567 1.266 1.266 1.266.7 0 1.266-.567 1.266-1.266 0-.7-.567-1.267-1.266-1.267z"/>
</svg>
