<?xml version="1.0" encoding="UTF-8"?>
<svg width="16px" height="16px" viewBox="0 0 16 16" version="1.1" xmlns="http://www.w3.org/2000/svg" xmlns:xlink="http://www.w3.org/1999/xlink">
    <title>92215C28-F58D-4733-8C2C-3D9E6DBE6066</title>
    <g id="game" stroke="none" stroke-width="1" fill="none" fill-rule="evenodd">
        <g id="desktop_app_02_lol_champions_Mythic" transform="translate(-1568.000000, -1737.000000)">
            <g id="Group-36-Copy-5" transform="translate(320.000000, 1721.000000)">
                <g id="Group-3" transform="translate(1184.000000, 16.000000)">
                    <g id="Group" transform="translate(64.000000, 0.000000)">
                        <polygon id="Path" points="0 0 16 0 16 16 0 16"></polygon>
                        <path d="M10,2.66666667 L11.3333333,2.66666667 C12.4379028,2.66666667 13.3333333,3.56209717 13.3333333,4.66666667 L13.3333333,11.3333333 C13.3333333,12.4379028 12.4379028,13.3333333 11.3333333,13.3333333 L10,13.3333333 L10,13.3333333 L10,2.66666667 Z" id="Rectangle" stroke="#FFFFFF" stroke-linecap="round" stroke-linejoin="round"></path>
                        <path d="M4.66666667,2.66666667 L10,2.66666667 L10,2.66666667 L10,13.3333333 L4.66666667,13.3333333 C3.56209717,13.3333333 2.66666667,12.4379028 2.66666667,11.3333333 L2.66666667,4.66666667 C2.66666667,3.56209717 3.56209717,2.66666667 4.66666667,2.66666667 Z" id="Rectangle" stroke="#FFFFFF" stroke-linecap="round" stroke-linejoin="round"></path>
                        <line x1="10" y1="2.66666667" x2="10" y2="13.3333333" id="Path" stroke="#FFFFFF" stroke-linecap="round" stroke-linejoin="round"></line>
                    </g>
                </g>
            </g>
        </g>
    </g>
</svg>