<svg xmlns="http://www.w3.org/2000/svg" width="40" height="40" viewBox="0 0 40 40">
    <path fill="#FFF" d="M11.97 6.667c-.23 0-.44.13-.543.335-.103.205-.08.45.057.634l1.697 2.262v20.204l-2.303 2.262c-.138.183-.16.429-.057.634.103.206.312.335.542.335h17.576c.184 0 .358-.083.473-.227l3.03-3.03c.145-.182.173-.431.072-.64-.1-.21-.312-.344-.545-.345H19.242V7.273c0-.335-.272-.606-.606-.606h-6.667zm8.484 2.424v1.212c6.015 0 10.909 4.894 10.909 10.91 0 2.51-.861 4.82-2.293 6.666h1.497c1.31-1.976 2.01-4.295 2.008-6.667 0-6.684-5.437-12.121-12.121-12.121zm0 2.424V27.88h7.024c1.652-1.74 2.673-4.084 2.673-6.667 0-5.347-4.35-9.697-9.697-9.697zm-8.485 1.055c-2.094 2.057-3.45 4.863-3.618 7.983-.03.573-.021 1.149.028 1.72.258 2.959 1.586 5.613 3.59 7.582v-1.802c-1.57-1.935-2.425-4.35-2.424-6.84-.001-2.492.855-4.907 2.424-6.841V12.57zm0 3.958c-.796 1.433-1.213 3.045-1.212 4.684 0 1.698.442 3.295 1.212 4.684v-9.369z"/>
</svg>
