<svg xmlns="http://www.w3.org/2000/svg" width="24" height="24" viewBox="0 0 24 24">
    <g fill="none" fill-rule="evenodd">
        <g fill-rule="nonzero">
            <g>
                <g>
                    <g>
                        <g>
                            <path fill="#A88A67" d="M2 0L22 0 22 18.056 12 23 2 18.056z" transform="translate(-1210.000000, -599.000000) translate(320.000000, 123.000000) translate(588.000000, 137.000000) translate(302.000000, 45.000000) translate(0.000000, 294.000000)"/>
                            <path fill="#FFF" d="M10.327 15L9.095 13.768 9.095 12.06 11.041 12.06 11.041 13.082 11.433 13.474 12.651 13.474 13.057 13.068 13.057 10.422 12.749 10.1 11.517 10.1 10.901 10.716 9.095 10.716 9.095 5.34 14.877 5.34 14.877 6.95 11.041 6.95 11.041 9.26 11.727 8.574 13.855 8.574 15.003 9.722 15.003 13.754 13.757 15z" transform="translate(-1210.000000, -599.000000) translate(320.000000, 123.000000) translate(588.000000, 137.000000) translate(302.000000, 45.000000) translate(0.000000, 294.000000)"/>
                        </g>
                    </g>
                </g>
            </g>
        </g>
    </g>
</svg>
