<svg width="24" height="24" viewBox="0 0 24 24" xmlns="http://www.w3.org/2000/svg">
    <path d="M4.805 13.987c.125.11.384.289.777.54v1.503l5.013 2.917 1.405.724c1.105-.207 1.244-.233 1.809-.236h.272L12 20.666l-7.195-4.198v-2.482zM12.697 8c1.64 0 2.62.803 2.62 2.11 0 .896-.663 1.675-1.53 1.804v.106c1.12.082 1.934.925 1.934 2.015 0 1.483-1.12 2.42-2.924 2.42H9V8zm-.392 4.7H10.77v2.402h1.576c1.02 0 1.57-.428 1.57-1.22 0-.773-.568-1.183-1.611-1.183zm-.059-3.346H10.77v2.15h1.33c.955 0 1.476-.393 1.476-1.072 0-.674-.486-1.078-1.33-1.078zM12 4l7.195 4.148v6.328A7.108 7.108 0 0 1 21 16.368c-.125-.058-.38-.162-.765-.313.477 1.053.54 2.607-1.165 3.008-4.079.96-9.414-1.692-11.432-3.058 1.025.417 3.115 1.088 4.045 1.387l-.631-.267c-.938-.318-3.1-1.69-4.918-2.912-1.649-1.11-2.941-2.504-3.134-2.744.276.075.51.12.702.138-.627-1.14.038-2.319 1.103-2.795v-.664L12 4zm0 .89L5.582 8.599v3.02c-.276-.263-.69-.94-.777-1.378-.276.2-.322.64-.15 1.077.745 1.898 4.183 4.388 5.525 5.28.636.37 1.115.607 1.436.713.321.106.947.286 1.876.54.92.185 1.78.297 2.582.334 3.472.163 3.71-.84 3.121-1.679l-2.006 1.166a6.367 6.367 0 0 1-1.504-.025l2.733-1.567V8.6L12 4.889z" fill="#7B7A8E" fill-rule="nonzero"/>
</svg>
