<svg width="48" height="48" viewBox="0 0 48 48" xmlns="http://www.w3.org/2000/svg">
    <path d="M9.61 27.975c.25.217.769.576 1.554 1.078v3.007l10.027 5.834L24 39.342c2.224-.416 2.49-.466 3.637-.472l.337-.001h.188L24 41.333 9.61 32.937v-4.962zM24.145 16c3.726 0 6.363 2.086 6.468 5.098h-3.328c-.164-1.336-1.406-2.227-3.117-2.227-1.77 0-2.941.82-2.941 2.11 0 1.042.808 1.64 2.789 2.062l2.039.434c3.398.714 4.863 2.18 4.863 4.804 0 3.41-2.613 5.496-6.855 5.496-4.032 0-6.645-1.98-6.774-5.132h3.422c.164 1.37 1.547 2.25 3.539 2.25 1.84 0 3.14-.891 3.14-2.168 0-1.079-.843-1.7-2.917-2.145l-2.203-.469c-3.082-.644-4.594-2.25-4.594-4.828 0-3.187 2.566-5.285 6.469-5.285zM24 8l14.39 8.296v12.656c1.387.986 2.59 2.248 3.61 3.785a32.41 32.41 0 0 0-1.53-.627c.953 2.105 1.079 5.213-2.33 6.015-8.158 1.92-18.828-3.383-22.864-6.115 2.05.834 6.23 2.177 8.09 2.773l-1.262-.533c-1.876-.636-6.202-3.379-9.837-5.824C8.97 26.208 6.385 23.42 6 22.937c.552.15 1.02.243 1.404.276-1.254-2.28.075-4.637 2.206-5.589v-1.328L24 8zm0 1.78-12.836 7.418v6.04c-.551-.526-1.378-1.88-1.554-2.757-.551.401-.644 1.282-.3 2.156 1.489 3.795 8.366 8.774 11.05 10.56 1.272.739 2.23 1.214 2.872 1.426.643.212 1.893.571 3.751 1.078 1.84.371 3.562.595 5.165.67 6.944.326 7.42-1.68 6.242-3.358l-4.011 2.33c-1.103.1-2.106.084-3.008-.05l5.465-3.133V17.198L24 9.779z" fill="#E84057" fill-rule="evenodd"/>
</svg>
